<?xml version="1.0" encoding="UTF-8"?>
<!DOCTYPE svg PUBLIC "-//W3C//DTD SVG 1.1//EN" "http://www.w3.org/Graphics/SVG/1.1/DTD/svg11.dtd">
<!-- Creator: CorelDRAW 2021 (64-Bit) -->
<svg xmlns="http://www.w3.org/2000/svg" xml:space="preserve" width="210mm" height="297mm" version="1.1" style="shape-rendering:geometricPrecision; text-rendering:geometricPrecision; image-rendering:optimizeQuality; fill-rule:evenodd; clip-rule:evenodd"
viewBox="0 0 21000 29700"
 xmlns:xlink="http://www.w3.org/1999/xlink"
 xmlns:xodm="http://www.corel.com/coreldraw/odm/2003">
 <defs>
  <style type="text/css">
   <![CDATA[
    .str0 {stroke:#996633;stroke-width:282.22;stroke-miterlimit:22.9256}
    .fil0 {fill:#C28A51}
    .fil1 {fill:#996633;fill-opacity:0.121569}
    .fil2 {fill:#996633;fill-opacity:0.231373}
   ]]>
  </style>
 </defs>
 <g id="Слой_x0020_1">
  <metadata id="CorelCorpID_0Corel-Layer"/>
  <rect class="fil0 str0" x="4620.91" y="5582.35" width="8771.55" height="8771.55"/>
  <path class="fil1" d="M11828.02 13235.99c-697.97,138.38 -2754.96,197.82 -3449.17,88.57 -123.49,-19.44 -253.11,-157.83 46.78,-225.17 431.28,-96.84 1392.49,25 1931.06,6.91 264.25,-8.87 1389.84,-69.29 1508.25,111.59l-36.92 18.1z"/>
  <path class="fil1" d="M8717.67 9714.75c-611.2,91.4 -2412.5,130.66 -3020.41,58.5 -108.14,-12.84 -221.65,-104.25 40.96,-148.72 377.67,-63.96 1219.4,16.51 1691.02,4.56 231.41,-5.86 1217.08,-45.76 1320.77,73.71l-32.34 11.95z"/>
  <path class="fil1" d="M10338.37 8625.98c474.47,-94.08 1872.8,-134.49 2344.72,-60.21 83.95,13.21 172.06,107.29 -31.8,153.06 -293.18,65.83 -946.6,-16.99 -1312.73,-4.69 -179.63,6.03 -944.8,47.1 -1025.29,-75.86l25.1 -12.3z"/>
  <path class="fil2" d="M9439.05 7430.19c-697.97,138.38 -2754.96,197.82 -3449.17,88.57 -123.49,-19.44 -253.11,-157.83 46.78,-225.17 431.28,-96.84 1392.49,25 1931.06,6.91 264.25,-8.87 1389.84,-69.29 1508.25,111.59l-36.92 18.1z"/>
  <path class="fil2" d="M6942.94 11396.74c-2949.03,-149.15 -523.08,-313.36 710.92,-308.87 22.71,0.09 6573.76,-15.14 4328.62,241.23 -1430.33,163.32 -3575.34,133.86 -5039.54,67.64z"/>
 </g>
</svg>
