<?xml version="1.0" standalone="no"?>
<!DOCTYPE svg PUBLIC "-//W3C//DTD SVG 20010904//EN"
 "http://www.w3.org/TR/2001/REC-SVG-20010904/DTD/svg10.dtd">
<svg version="1.0" xmlns="http://www.w3.org/2000/svg"
 width="2800.000000pt" height="2800.000000pt" viewBox="0 0 2800.000000 2800.000000"
 preserveAspectRatio="xMidYMid meet">

<g transform="translate(0.000000,2800.000000) scale(0.100000,-0.100000)"
fill="#000000" stroke="none">
<path d="M0 27914 l0 -85 28 20 c15 12 59 50 97 86 l70 64 -97 1 -98 0 0 -86z"/>
<path d="M678 27878 c-322 -256 -508 -436 -616 -599 l-62 -93 0 -317 0 -316
42 -49 c23 -27 137 -146 253 -264 218 -222 284 -303 472 -575 221 -319 333
-507 508 -855 118 -231 179 -315 226 -308 61 9 134 212 209 578 52 258 94 404
161 565 176 424 488 866 932 1324 309 317 375 399 460 566 63 125 80 196 80
332 -1 61 -4 116 -7 122 -5 8 -123 11 -380 11 l-374 0 25 -62 c86 -212 61
-476 -64 -690 -46 -79 -125 -162 -257 -270 -269 -221 -421 -434 -491 -685 -14
-51 -36 -135 -50 -185 -51 -186 -127 -292 -252 -351 -169 -79 -346 -36 -441
107 -44 65 -325 648 -376 778 -71 180 -96 291 -103 443 -8 210 35 342 152 459
77 77 139 114 289 170 94 36 426 209 526 275 10 7 -106 10 -347 10 l-362 1
-153 -122z"/>
<path d="M3738 27871 c7 -247 -50 -431 -205 -666 -90 -136 -170 -230 -373
-440 -225 -232 -312 -328 -422 -466 -186 -234 -355 -497 -456 -707 -71 -150
-123 -311 -166 -518 -73 -346 -87 -403 -117 -495 -65 -195 -169 -353 -276
-416 -61 -35 -155 -63 -217 -63 -119 0 -255 59 -346 150 -74 74 -119 144 -218
340 -200 394 -362 658 -635 1035 -81 112 -279 335 -298 335 -5 0 -9 -144 -9
-351 l0 -352 67 -81 c369 -450 667 -874 970 -1381 185 -309 209 -347 296 -464
145 -196 317 -335 451 -363 57 -12 59 -12 79 12 40 49 69 134 102 293 18 89
57 239 85 332 29 94 96 323 150 510 166 575 266 873 395 1176 192 450 440 834
721 1114 138 137 258 233 499 400 343 237 452 341 539 513 86 170 86 443 1
630 l-24 52 -298 0 -298 0 3 -129z"/>
<path d="M4788 27908 c32 -128 40 -326 18 -462 -31 -185 -94 -333 -210 -486
-118 -158 -258 -278 -586 -505 -222 -154 -303 -220 -435 -356 -213 -220 -382
-473 -548 -817 -143 -298 -246 -596 -446 -1282 -67 -228 -139 -473 -160 -545
-21 -71 -50 -186 -65 -255 -60 -288 -111 -405 -225 -516 -126 -124 -273 -150
-485 -89 -159 46 -279 119 -419 254 -173 167 -285 324 -555 776 -211 355 -515
808 -642 956 l-29 34 -1 -338 0 -339 177 -301 c476 -813 658 -1065 946 -1313
394 -339 879 -575 1232 -600 75 -6 97 -4 124 10 68 36 95 150 110 471 21 412
39 490 223 960 50 127 180 498 288 825 328 990 455 1273 743 1660 124 166 419
464 587 594 144 111 359 254 515 341 293 165 292 164 288 252 -2 28 -14 112
-27 185 -13 73 -41 257 -60 408 -39 293 -74 534 -83 556 -4 11 -37 14 -152 14
l-147 0 24 -92z"/>
<path d="M5470 27993 c0 -4 11 -88 25 -188 13 -99 36 -268 50 -375 14 -107 39
-266 55 -354 46 -244 39 -367 -27 -503 -54 -110 -119 -160 -428 -333 -458
-255 -823 -581 -1077 -960 -109 -163 -251 -449 -341 -685 -36 -93 -142 -406
-237 -695 -95 -289 -215 -635 -267 -770 -135 -347 -158 -413 -193 -552 -27
-108 -32 -149 -40 -343 -15 -353 -40 -506 -101 -628 -104 -207 -315 -306 -593
-277 -528 55 -1114 365 -1591 844 -207 208 -359 413 -606 816 l-94 155 -3
-163 -2 -162 68 -143 c130 -271 324 -584 487 -787 190 -238 461 -510 620 -622
135 -96 272 -153 475 -196 152 -33 1366 -222 1424 -222 49 0 54 2 64 28 22 53
33 121 77 487 206 1688 386 2278 1079 3544 193 352 302 507 467 666 141 136
267 219 579 385 96 51 211 116 255 144 157 102 275 223 339 346 71 138 71 215
1 564 -64 317 -121 542 -238 936 l-13 45 -107 3 c-59 1 -107 -1 -107 -5z"/>
<path d="M6102 27988 c16 -42 86 -298 133 -489 105 -424 149 -667 149 -834 0
-260 -95 -468 -309 -680 -149 -148 -249 -216 -580 -394 -369 -200 -499 -307
-657 -547 -127 -192 -446 -784 -596 -1109 -317 -684 -471 -1304 -617 -2485
-63 -513 -74 -583 -97 -659 -53 -172 -142 -272 -286 -320 -105 -36 -179 -29
-775 64 -298 47 -603 94 -677 106 -498 76 -741 188 -1094 503 -164 147 -451
481 -616 719 l-75 108 -3 -282 -2 -282 40 -68 c84 -142 281 -361 435 -486 183
-148 461 -314 655 -391 178 -71 488 -142 945 -217 571 -93 800 -143 1090 -235
195 -62 280 -80 373 -80 98 0 134 13 197 71 84 78 131 186 161 375 15 97 16
149 8 474 -12 474 -10 788 5 925 54 485 190 951 471 1610 373 874 544 1178
815 1450 118 119 255 223 580 442 409 276 539 402 657 638 126 252 176 580
165 1080 -8 346 -38 597 -110 905 l-22 95 -184 3 c-145 2 -182 0 -179 -10z"/>
<path d="M6891 27918 c65 -296 99 -584 106 -913 20 -914 -165 -1420 -666
-1821 -58 -47 -226 -166 -373 -265 -313 -211 -389 -270 -520 -407 -199 -208
-346 -477 -665 -1217 -218 -506 -352 -906 -422 -1260 -51 -258 -56 -326 -51
-720 8 -641 6 -924 -8 -1005 -57 -325 -176 -541 -368 -669 -190 -127 -430
-143 -749 -50 -332 98 -418 121 -571 154 -93 20 -353 68 -579 106 -571 97
-801 150 -1041 243 -312 120 -600 305 -913 585 l-71 63 0 -246 0 -245 68 -54
c241 -195 614 -403 887 -497 238 -82 404 -115 825 -164 339 -40 432 -57 731
-131 449 -111 496 -118 941 -140 456 -22 666 -54 876 -135 265 -101 499 -296
615 -511 133 -245 127 -559 -16 -844 -80 -159 -186 -298 -446 -585 -93 -102
-192 -213 -220 -247 -94 -113 -201 -285 -296 -478 -140 -283 -218 -513 -381
-1115 -200 -741 -301 -1040 -454 -1355 -116 -237 -226 -402 -484 -729 -233
-295 -290 -385 -511 -801 -138 -261 -220 -392 -326 -526 -327 -411 -889 -695
-1656 -838 l-148 -28 -3 -251 c-2 -206 0 -252 11 -252 8 0 72 16 143 35 256
71 430 138 699 270 105 52 224 104 265 117 103 31 230 31 322 0 176 -60 278
-195 421 -557 147 -371 210 -668 307 -1435 57 -459 79 -603 121 -810 109 -531
274 -895 518 -1139 196 -196 458 -328 801 -405 169 -37 326 -55 585 -67 305
-13 394 -36 472 -122 83 -92 113 -223 89 -383 -29 -193 -103 -381 -265 -674
-215 -387 -239 -448 -321 -800 -139 -597 -266 -813 -815 -1379 -349 -361 -440
-465 -553 -638 -136 -208 -240 -454 -306 -723 -73 -301 -91 -469 -90 -860 0
-313 12 -487 55 -800 29 -214 24 -200 70 -200 46 0 40 -18 69 225 144 1220
456 2110 965 2745 123 154 235 270 403 416 292 255 381 353 456 503 66 130 91
209 171 536 41 165 90 347 110 405 135 388 323 620 833 1028 437 349 693 462
1047 462 199 0 209 19 251 450 35 370 30 897 -17 1485 -93 1180 -103 1445 -79
1936 42 829 138 1470 404 2684 226 1031 249 1173 249 1490 0 410 -92 653 -383
1010 -398 491 -535 691 -720 1060 -173 344 -299 687 -436 1186 -149 549 -217
677 -569 1084 -340 392 -455 596 -555 989 -70 273 -99 529 -107 946 -32 1581
493 3028 1425 3932 139 134 293 260 523 428 175 127 323 271 407 398 145 218
286 559 368 887 76 308 99 507 99 860 0 325 -20 516 -81 788 l-16 67 -237 0
-238 0 18 -82z m-1778 -10643 c166 -43 344 -178 486 -370 136 -182 319 -493
571 -970 381 -721 489 -904 646 -1092 52 -62 115 -142 140 -177 193 -278 210
-620 48 -1024 -26 -64 -109 -250 -184 -412 -75 -162 -153 -335 -172 -385 -142
-361 -242 -891 -277 -1480 -36 -585 -22 -1078 64 -2285 59 -836 69 -1021 69
-1370 1 -315 0 -341 -22 -440 -77 -346 -229 -539 -469 -596 -94 -22 -222 -14
-333 21 -47 15 -152 59 -235 97 -193 90 -305 131 -490 178 -198 51 -317 67
-570 80 -381 18 -522 36 -700 91 -485 149 -837 565 -1090 1289 -88 254 -262
905 -343 1285 -113 530 -160 953 -149 1360 14 534 101 901 317 1340 101 205
196 358 433 702 228 331 343 516 446 723 155 309 269 632 471 1335 213 738
326 1055 510 1430 218 445 361 610 581 669 71 19 181 20 252 1z"/>
<path d="M4887 16838 c-86 -87 -254 -388 -367 -657 -111 -264 -194 -518 -390
-1196 -185 -640 -313 -996 -479 -1330 -114 -231 -207 -384 -445 -730 -385
-559 -505 -782 -602 -1118 -82 -285 -110 -539 -101 -930 9 -427 56 -741 208
-1382 184 -784 343 -1228 545 -1533 123 -185 257 -308 430 -395 141 -71 257
-93 603 -112 635 -37 872 -94 1411 -341 168 -77 247 -72 308 19 71 107 93 199
99 429 8 276 -11 663 -77 1598 -116 1635 -98 2405 76 3244 76 361 136 529 384
1061 168 359 217 501 227 652 12 166 -30 259 -211 476 -181 218 -270 364 -617
1019 -391 738 -563 1022 -699 1158 -84 84 -147 120 -209 120 -38 0 -48 -6 -94
-52z m380 -658 c218 -108 351 -330 621 -1035 116 -301 141 -361 251 -586 142
-293 185 -472 162 -670 -20 -163 -51 -257 -184 -554 -173 -387 -283 -742 -371
-1190 -91 -465 -126 -894 -126 -1535 0 -536 18 -891 100 -1930 22 -277 40
-538 40 -580 0 -293 -145 -482 -370 -483 -59 0 -121 18 -580 172 -502 167
-738 254 -870 321 -195 98 -365 254 -458 420 -79 140 -112 282 -142 615 -38
425 -80 691 -145 914 -42 144 -79 232 -163 385 -84 155 -118 232 -147 332 -90
310 -34 767 146 1200 130 313 286 577 664 1129 118 171 255 375 306 455 365
572 500 962 694 2004 76 411 87 450 151 537 97 133 253 162 421 79z"/>
<path d="M5136 15763 c-3 -10 -26 -130 -50 -268 -170 -942 -322 -1424 -610
-1925 -81 -141 -276 -435 -546 -825 -334 -483 -521 -835 -615 -1160 -55 -192
-68 -279 -69 -465 -1 -166 0 -179 26 -253 16 -42 61 -139 102 -215 217 -400
289 -696 366 -1505 30 -313 58 -407 155 -515 73 -81 189 -156 337 -218 80 -34
1100 -384 1119 -384 16 0 10 140 -31 657 -90 1143 -104 1459 -97 2072 5 436
17 641 53 946 81 681 232 1244 484 1805 110 245 150 372 150 481 0 90 -43 215
-154 447 -57 119 -134 296 -171 392 -222 571 -260 657 -372 852 -51 89 -69
108 -77 81z m175 -1385 c54 -18 87 -48 114 -102 47 -94 21 -193 -63 -247 -57
-36 -104 -45 -160 -30 -62 16 -99 47 -129 108 -49 102 -14 206 88 257 58 28
98 32 150 14z m-71 -552 c96 -63 112 -173 47 -311 -51 -107 -80 -147 -125
-172 -54 -30 -96 -36 -154 -23 -87 21 -148 104 -148 200 0 43 99 246 138 283
64 61 170 71 242 23z m-453 -1018 c71 -26 154 -106 188 -180 48 -105 58 -170
52 -333 -5 -158 -24 -269 -91 -544 -20 -79 -41 -182 -48 -230 -20 -136 -15
-605 10 -946 30 -422 35 -559 22 -758 -11 -193 -37 -363 -70 -469 -24 -77 -88
-156 -154 -190 -62 -32 -175 -36 -248 -8 -87 32 -160 104 -208 204 -62 128
-135 361 -205 655 -101 424 -124 497 -241 767 -142 328 -184 478 -184 653 0
207 54 352 230 616 37 55 102 161 145 235 108 187 166 270 247 356 173 182
368 242 555 172z"/>
<path d="M4570 12406 c-62 -41 -138 -150 -270 -381 -35 -60 -89 -148 -120
-195 -158 -236 -174 -276 -168 -423 6 -124 28 -198 140 -457 125 -292 162
-404 258 -796 50 -201 94 -373 99 -382 5 -9 11 36 15 119 7 137 -3 407 -28
752 -43 576 -27 886 64 1258 52 208 70 322 70 437 0 103 -3 107 -60 68z"/>
<path d="M7764 27975 c33 -131 71 -453 81 -690 20 -462 -79 -1074 -251 -1553
-57 -159 -183 -419 -261 -537 -147 -222 -252 -323 -592 -565 -266 -189 -426
-335 -636 -580 -508 -592 -854 -1380 -1005 -2285 -70 -419 -102 -949 -81
-1315 28 -458 90 -743 221 -1005 77 -153 147 -251 354 -490 414 -481 491 -634
691 -1370 46 -170 104 -369 129 -441 156 -454 407 -883 837 -1429 240 -304
363 -510 442 -741 76 -218 103 -419 94 -689 -11 -308 -52 -587 -158 -1055
-153 -677 -191 -852 -238 -1094 -158 -800 -227 -1365 -253 -2063 -14 -378 -2
-775 37 -1268 13 -170 33 -422 44 -560 64 -796 54 -1372 -30 -1813 -46 -238
-130 -366 -294 -443 -89 -42 -163 -57 -326 -68 -180 -12 -218 -21 -347 -82
-266 -125 -757 -525 -933 -759 -148 -197 -204 -334 -309 -755 -109 -434 -157
-561 -282 -752 -84 -129 -180 -234 -358 -391 -200 -177 -374 -349 -460 -457
-175 -215 -380 -572 -499 -867 -173 -430 -299 -966 -381 -1628 -11 -91 -23
-180 -26 -198 l-5 -32 184 0 184 0 22 112 c224 1141 465 1770 850 2218 30 36
186 198 346 360 466 472 551 609 660 1055 25 105 60 246 76 315 75 308 192
606 312 800 229 366 543 607 914 699 217 53 345 46 677 -38 222 -57 377 -60
446 -11 92 66 115 135 114 340 -1 159 -7 220 -68 635 -118 804 -167 1884 -136
2995 18 650 54 1289 120 2140 39 494 68 879 90 1170 34 435 98 743 210 1001
47 108 101 192 221 341 154 191 198 279 199 398 0 132 -54 265 -190 465 -271
399 -652 983 -859 1319 -326 528 -605 1065 -782 1506 -218 544 -301 689 -571
989 -286 319 -356 407 -438 548 -94 164 -173 412 -207 656 -43 301 -6 1181 73
1752 122 873 384 1411 994 2039 80 82 370 365 645 630 670 643 980 953 1054
1055 75 101 133 219 162 327 20 70 22 105 23 299 0 149 -6 270 -18 375 -10 85
-43 459 -75 830 l-56 675 -194 3 -193 2 6 -25z"/>
<path d="M8546 27963 c3 -21 27 -309 54 -640 28 -332 57 -665 65 -740 25 -244
37 -465 30 -573 -16 -274 -85 -480 -233 -701 -137 -204 -225 -296 -897 -933
-702 -665 -941 -904 -1130 -1131 -147 -176 -306 -444 -403 -677 -145 -347
-236 -801 -294 -1458 -18 -203 -17 -924 1 -1050 35 -246 115 -457 238 -628 33
-46 116 -144 184 -219 294 -322 340 -379 451 -566 90 -151 163 -306 303 -641
157 -378 192 -455 304 -671 225 -435 440 -791 964 -1595 463 -710 480 -738
541 -895 88 -231 88 -423 -3 -612 -44 -92 -85 -155 -212 -325 -281 -377 -330
-618 -434 -2158 -19 -283 -44 -648 -55 -810 -126 -1861 -99 -3410 80 -4567 57
-368 70 -553 50 -698 -43 -298 -176 -478 -417 -562 -72 -25 -89 -27 -233 -27
-125 0 -174 4 -255 23 -348 79 -472 93 -610 68 -231 -42 -482 -219 -653 -461
-79 -113 -170 -297 -221 -452 -22 -66 -74 -258 -115 -427 -87 -354 -139 -521
-206 -662 -109 -233 -222 -376 -609 -770 -163 -165 -325 -336 -360 -380 -253
-314 -431 -710 -570 -1264 -38 -152 -161 -729 -161 -756 0 -3 87 -5 194 -5
l193 0 7 43 c32 206 152 664 232 885 158 435 277 632 753 1247 241 310 373
528 465 766 24 63 85 245 136 405 111 350 164 492 241 648 149 300 331 502
559 620 386 199 843 192 1405 -21 66 -25 246 -102 400 -170 154 -68 334 -144
400 -168 172 -62 407 -117 745 -175 340 -59 479 -88 640 -137 320 -96 554
-227 740 -413 143 -143 236 -296 298 -490 54 -171 64 -264 92 -841 14 -304 53
-507 155 -814 116 -350 302 -712 612 -1192 l125 -193 129 0 c103 0 128 3 122
13 -4 7 -35 53 -69 102 -178 262 -303 560 -399 949 -56 229 -83 387 -140 811
-101 749 -167 1035 -314 1365 -186 416 -441 682 -851 889 -188 95 -330 151
-745 291 -485 164 -659 235 -775 313 -218 148 -345 343 -444 687 -117 401
-239 1256 -288 2015 -17 264 -17 1422 0 1760 61 1206 154 2181 343 3590 61
459 101 629 190 808 53 106 90 159 173 246 184 191 424 290 826 342 49 6 413
14 855 19 772 8 885 13 1150 51 486 69 829 213 1185 497 116 92 356 331 469
467 431 519 777 1097 1072 1789 210 492 244 806 174 1616 -8 91 -20 258 -26
371 -17 313 7 630 82 1059 121 699 133 803 126 1075 -10 356 -83 671 -236
1020 -182 414 -394 719 -836 1200 -279 303 -314 330 -590 465 -274 134 -413
231 -822 572 -417 347 -609 476 -870 583 -277 112 -535 166 -1158 240 -524 62
-661 89 -803 156 -252 117 -457 362 -588 699 -81 211 -145 478 -181 755 -30
235 -22 911 13 1148 l6 37 -185 0 -185 0 4 -37z m1029 -2998 c55 -8 182 -30
283 -50 101 -19 250 -42 330 -50 408 -43 718 -113 1049 -236 206 -77 315 -126
688 -314 187 -94 428 -209 535 -255 451 -193 619 -299 865 -545 180 -179 417
-482 678 -866 331 -486 428 -825 506 -1769 35 -421 44 -648 45 -1100 0 -933
-79 -1719 -234 -2340 -239 -956 -641 -1606 -1295 -2090 -257 -191 -832 -544
-1090 -671 -355 -173 -642 -238 -1010 -226 -491 16 -1017 174 -1432 431 -443
274 -797 672 -1159 1302 -53 93 -202 373 -331 623 -441 855 -546 1021 -1019
1621 -366 464 -541 725 -679 1013 -114 238 -183 460 -221 712 -26 168 -26 608
-1 815 129 1049 505 1942 1141 2715 125 152 555 581 663 662 99 74 164 106
352 173 157 57 207 83 361 194 176 126 360 211 540 250 86 19 309 19 435 1z"/>
<path d="M9189 24569 c-105 -26 -219 -86 -393 -204 -178 -121 -254 -161 -409
-214 -201 -69 -230 -88 -454 -300 -430 -404 -742 -826 -999 -1350 -261 -532
-420 -1119 -464 -1716 -46 -626 62 -1024 423 -1565 103 -154 178 -255 408
-550 522 -671 609 -808 996 -1565 107 -209 218 -423 246 -475 165 -311 368
-632 518 -821 101 -128 283 -315 404 -417 301 -253 697 -426 1178 -514 103
-19 158 -22 357 -23 220 0 242 2 345 27 236 56 416 141 825 388 549 330 758
484 989 726 391 409 663 989 820 1744 203 981 235 2425 80 3625 -58 448 -142
689 -357 1016 -122 185 -367 521 -483 659 -130 156 -319 336 -432 411 -105 70
-312 173 -571 284 -98 42 -332 153 -520 247 -403 202 -466 230 -657 296 -278
96 -554 155 -883 191 -103 12 -285 39 -405 62 -119 22 -259 42 -311 45 -52 2
-113 6 -136 8 -23 2 -74 -5 -115 -15z m1117 -364 c486 -51 973 -204 1529 -480
507 -252 867 -489 1121 -740 175 -174 311 -354 525 -695 317 -508 349 -607
381 -1175 17 -307 17 -1286 0 -1545 -45 -677 -120 -1258 -238 -1850 -180 -904
-449 -1361 -1002 -1703 -176 -109 -608 -329 -839 -428 -228 -97 -461 -166
-663 -195 -167 -24 -439 -15 -609 21 -334 70 -657 224 -953 455 -118 92 -377
354 -489 495 -267 335 -423 594 -799 1325 -282 548 -334 638 -642 1105 -306
464 -437 707 -527 981 -82 247 -111 439 -111 729 0 448 92 862 341 1531 264
711 543 1200 869 1525 371 369 900 598 1505 652 116 10 469 6 601 -8z"/>
<path d="M9760 23819 c-485 -35 -932 -215 -1227 -494 -312 -293 -550 -701
-818 -1400 -146 -382 -246 -724 -296 -1015 -21 -119 -23 -168 -23 -410 0 -249
2 -285 22 -380 37 -166 96 -334 171 -485 90 -180 142 -267 371 -615 277 -423
381 -601 627 -1075 371 -714 488 -920 671 -1175 144 -201 353 -427 521 -562
186 -150 462 -307 636 -361 181 -56 269 -70 450 -70 200 0 294 17 525 93 290
95 875 383 1125 554 99 68 250 211 312 296 191 264 313 595 422 1145 95 479
168 1060 212 1675 17 241 23 1071 10 1345 -25 546 -43 671 -111 814 -78 163
-352 602 -482 775 -82 107 -271 301 -378 386 -296 235 -832 530 -1280 705
-531 207 -997 288 -1460 254z m780 -314 c380 -41 626 -105 890 -231 365 -175
679 -453 1086 -959 539 -671 744 -1076 785 -1550 14 -165 4 -285 -76 -970 -36
-302 -74 -629 -86 -725 -87 -743 -174 -1135 -349 -1575 -200 -501 -346 -714
-610 -887 -87 -58 -315 -171 -515 -256 -388 -165 -580 -212 -872 -212 -260 0
-474 50 -718 169 -203 99 -367 215 -534 376 -212 204 -371 428 -524 734 -87
175 -131 275 -322 746 -94 231 -210 474 -294 615 -35 58 -125 195 -200 305
-223 323 -304 469 -375 674 -57 163 -78 289 -83 508 -8 286 19 499 108 853
198 788 474 1363 856 1781 174 190 342 320 553 428 199 101 413 164 641 190
112 13 459 5 639 -14z"/>
<path d="M9945 23123 c-227 -21 -468 -109 -670 -247 -407 -276 -786 -923
-1001 -1706 -92 -335 -134 -600 -134 -844 0 -378 66 -546 411 -1046 254 -370
332 -522 585 -1147 140 -348 295 -666 402 -828 251 -377 603 -642 977 -735
361 -90 682 -19 1285 286 285 144 347 208 498 510 189 378 315 802 391 1319
32 217 199 1637 212 1797 38 501 -101 826 -656 1533 -571 728 -968 993 -1615
1079 -225 30 -530 43 -685 29z m660 -408 c341 -62 696 -266 1135 -651 372
-325 638 -690 754 -1034 70 -209 81 -284 81 -575 0 -232 -3 -281 -28 -450 -84
-577 -234 -1387 -328 -1773 -164 -671 -421 -951 -1026 -1117 -384 -106 -677
-83 -998 76 -163 81 -287 171 -431 314 -189 187 -317 372 -454 657 -91 190
-156 359 -285 738 -132 386 -160 462 -267 715 -149 350 -206 528 -244 770 -25
151 -24 447 0 605 83 540 334 1021 696 1338 263 230 541 353 915 406 68 10
394 -3 480 -19z"/>
<path d="M10180 22339 c-436 -33 -842 -338 -1087 -814 -196 -381 -252 -865
-148 -1269 38 -149 67 -228 190 -516 105 -246 154 -377 284 -763 151 -444 217
-605 332 -805 107 -186 208 -312 353 -442 133 -119 261 -194 416 -246 80 -27
95 -28 250 -28 149 0 175 3 264 27 145 41 300 101 391 153 201 116 308 292
399 664 131 532 328 1645 356 2010 29 367 -40 635 -240 940 -85 129 -164 224
-295 356 -181 181 -429 384 -624 509 -290 185 -527 248 -841 224z m156 -294
c406 -71 912 -403 1147 -753 189 -282 265 -620 238 -1069 -25 -416 -129 -1422
-161 -1561 -41 -171 -124 -322 -232 -416 -141 -124 -409 -213 -742 -246 -211
-22 -362 9 -499 100 -202 135 -284 285 -530 965 -257 712 -344 1041 -378 1429
-37 426 74 850 303 1161 71 96 231 253 301 294 163 96 358 130 553 96z"/>
<path d="M10075 21646 c-95 -30 -204 -126 -294 -259 -56 -83 -139 -268 -165
-369 -39 -151 -49 -255 -43 -428 14 -366 136 -809 457 -1660 106 -282 173
-410 252 -479 72 -63 146 -73 337 -45 299 43 435 101 508 217 41 65 61 176 98
542 19 193 46 458 60 590 62 611 54 875 -34 1129 -87 247 -316 469 -684 661
-199 104 -371 139 -492 101z m464 -452 c93 -46 183 -134 244 -239 57 -97 121
-288 147 -441 27 -152 36 -410 21 -579 -6 -71 -16 -222 -21 -335 -5 -113 -15
-236 -21 -273 -15 -95 -66 -192 -134 -256 -76 -72 -131 -96 -225 -96 -94 0
-166 31 -245 106 -180 170 -280 480 -386 1199 -61 412 -58 565 15 707 117 231
376 320 605 207z"/>
<path d="M10302 20825 c-41 -52 -39 -129 14 -510 53 -379 121 -682 185 -820
13 -27 15 -17 25 125 7 85 17 218 24 295 35 397 -31 779 -157 896 -43 41 -67
44 -91 14z"/>
<path d="M9306 27978 c-9 -43 -27 -293 -35 -500 -19 -453 28 -840 144 -1193
95 -291 226 -477 389 -555 91 -43 204 -67 427 -89 403 -41 1039 -154 1302
-231 420 -123 704 -293 1282 -769 382 -316 423 -343 690 -478 238 -120 338
-188 488 -333 186 -179 478 -510 639 -725 328 -438 536 -865 654 -1340 73
-298 99 -521 91 -785 -8 -252 -22 -356 -132 -985 -99 -562 -104 -768 -38
-1465 30 -320 37 -715 14 -885 -50 -382 -173 -720 -487 -1340 -379 -748 -919
-1471 -1378 -1847 -425 -349 -871 -534 -1461 -607 -297 -37 -428 -43 -1210
-51 -459 -5 -806 -13 -843 -19 -345 -58 -513 -175 -621 -436 -94 -226 -187
-847 -300 -2015 -86 -886 -116 -1262 -146 -1815 -85 -1610 -19 -2773 216
-3815 74 -331 128 -461 233 -565 104 -103 228 -158 801 -352 564 -190 778
-284 1018 -443 500 -332 825 -855 991 -1595 35 -155 79 -421 126 -770 72 -527
125 -802 201 -1041 113 -352 283 -642 499 -847 l91 -87 356 0 357 0 -30 32
c-82 88 -218 247 -323 378 -474 591 -710 1101 -776 1676 -8 71 -21 253 -30
404 -23 421 -42 561 -100 775 -150 545 -515 1045 -999 1366 -143 95 -320 186
-612 315 -279 122 -449 209 -577 293 -452 299 -791 756 -941 1269 -66 225 -84
391 -96 862 -9 393 -16 465 -75 845 -66 430 -77 575 -64 839 11 229 26 336
134 986 193 1158 247 1548 295 2135 38 456 76 652 159 820 82 165 188 272 336
340 190 88 411 99 855 41 725 -94 1322 -99 1725 -15 365 76 841 327 1091 574
149 147 205 262 364 743 127 386 183 524 268 666 106 176 185 274 470 583 107
117 229 255 269 305 292 363 463 776 542 1308 51 342 61 645 47 1450 -11 684
-5 886 43 1400 51 539 51 732 0 1020 -70 399 -205 754 -551 1452 -306 618
-465 842 -749 1054 -125 92 -219 149 -459 274 -481 251 -577 325 -1055 821
-235 243 -391 358 -624 459 -247 107 -477 159 -1051 235 -551 73 -686 110
-886 240 -295 191 -519 552 -618 997 -71 315 -89 698 -48 996 l9 62 -148 0
c-146 0 -149 0 -153 -22z"/>
<path d="M10005 27988 c-26 -82 -41 -442 -26 -633 45 -565 231 -947 541 -1109
138 -72 321 -112 640 -141 589 -53 1052 -174 1382 -361 232 -131 367 -244 682
-568 366 -377 412 -411 856 -641 140 -72 297 -158 349 -190 340 -210 618 -537
881 -1035 89 -170 309 -623 395 -815 297 -662 403 -1162 366 -1725 -7 -96 -23
-292 -36 -435 -43 -459 -48 -601 -41 -1325 7 -695 0 -1000 -30 -1305 -59 -607
-219 -1103 -484 -1504 -106 -161 -188 -261 -426 -517 -251 -272 -343 -384
-422 -518 -93 -156 -144 -279 -267 -651 -120 -364 -185 -518 -281 -662 -72
-108 -199 -235 -344 -345 -448 -338 -876 -511 -1445 -585 -170 -22 -686 -24
-915 -5 -285 25 -567 53 -715 72 -227 29 -303 33 -389 21 -201 -28 -291 -120
-351 -356 -28 -109 -41 -221 -55 -465 -29 -487 -156 -1418 -320 -2330 -92
-511 -113 -690 -113 -965 0 -211 7 -280 63 -635 64 -402 70 -467 76 -830 3
-184 9 -387 15 -450 47 -527 327 -1022 759 -1345 164 -122 281 -184 691 -365
322 -142 440 -204 606 -316 604 -407 1027 -1032 1182 -1746 31 -146 48 -307
66 -628 9 -162 23 -353 31 -424 44 -397 179 -747 439 -1146 173 -266 389 -526
752 -908 l98 -103 112 3 112 3 -75 85 c-487 548 -829 1057 -1035 1537 -128
300 -162 491 -174 998 -10 395 -30 554 -111 885 -53 214 -215 761 -269 906
-196 524 -474 755 -1375 1144 -734 317 -1037 525 -1272 875 -116 173 -204 385
-247 596 -37 182 -102 680 -133 1029 -20 224 -17 837 5 1025 34 285 72 456
177 805 171 568 186 674 200 1415 12 648 25 759 111 933 71 145 168 223 361
291 226 79 512 104 1333 116 572 9 796 26 1060 81 422 89 817 309 1116 620
148 155 231 298 373 649 143 351 248 539 409 732 97 117 207 212 431 376 380
277 514 405 678 647 295 435 458 1006 520 1820 17 222 16 1019 -1 1540 -17
498 -11 1038 14 1245 9 77 34 237 56 355 54 293 69 428 69 605 0 252 -39 423
-144 640 -65 135 -100 194 -281 480 -170 270 -190 315 -339 786 -86 271 -184
435 -368 616 -184 181 -377 308 -823 543 -381 201 -510 280 -735 451 -168 128
-307 248 -565 494 -439 416 -626 560 -888 685 -182 87 -327 130 -767 230 -488
110 -799 258 -1026 484 -228 229 -306 432 -334 866 -6 91 -8 220 -4 288 l7
122 -192 0 c-144 0 -193 -3 -196 -12z"/>
<path d="M10785 27853 c-27 -531 68 -787 364 -978 181 -117 345 -172 854 -284
369 -82 541 -139 742 -245 278 -147 501 -321 940 -736 499 -471 685 -607 1198
-876 254 -134 382 -207 527 -303 353 -234 594 -487 737 -776 53 -107 82 -187
144 -395 83 -283 108 -337 299 -640 277 -438 378 -655 442 -950 20 -94 23
-132 23 -360 0 -273 -6 -329 -66 -635 -73 -377 -85 -592 -70 -1232 7 -258 16
-646 21 -863 10 -432 1 -868 -25 -1165 -89 -1020 -387 -1760 -921 -2290 -109
-109 -197 -180 -484 -392 -84 -62 -191 -153 -255 -218 -174 -173 -254 -306
-404 -673 -105 -256 -155 -364 -214 -465 -299 -506 -908 -908 -1582 -1041
-293 -58 -488 -73 -1080 -86 -484 -10 -561 -13 -845 -36 -338 -26 -433 -48
-504 -117 -32 -30 -49 -57 -60 -97 -21 -67 -35 -335 -36 -650 -1 -253 -14
-585 -30 -735 -19 -172 -76 -427 -178 -790 -55 -192 -109 -397 -120 -455 -98
-491 -95 -1001 8 -1850 37 -297 53 -397 86 -517 96 -357 300 -592 720 -826
124 -69 204 -107 534 -249 439 -189 660 -301 867 -440 322 -215 524 -456 673
-803 124 -287 325 -964 395 -1324 40 -209 53 -360 59 -701 8 -441 31 -587 131
-833 82 -200 178 -370 390 -692 252 -382 476 -659 814 -1007 l124 -128 205 0
204 0 -103 107 c-653 684 -1149 1571 -1373 2455 -96 379 -134 699 -171 1448
-17 348 -37 555 -66 708 -75 397 -198 644 -438 883 -148 148 -272 234 -492
343 -188 94 -319 140 -658 231 -413 111 -555 164 -719 271 -363 236 -620 615
-697 1029 -31 162 -31 477 -1 875 53 693 96 1128 187 1856 65 530 97 703 166
903 76 223 205 415 347 515 176 125 342 170 686 187 113 5 237 14 275 20 117
17 264 73 533 203 141 68 305 142 364 165 444 172 791 116 921 -148 30 -62 32
-72 31 -171 -1 -137 -25 -211 -155 -480 -133 -277 -150 -327 -156 -466 -6
-132 16 -258 77 -444 52 -159 116 -298 291 -627 337 -636 398 -814 579 -1707
102 -505 139 -659 210 -866 116 -344 255 -574 499 -824 213 -217 353 -327 837
-653 170 -115 352 -240 404 -278 498 -359 823 -706 1000 -1068 106 -219 139
-336 211 -752 53 -306 80 -408 189 -691 168 -438 188 -538 225 -1104 20 -307
39 -484 76 -710 56 -347 142 -699 255 -1042 l55 -168 55 0 55 0 -6 118 c-17
313 -39 515 -129 1202 -19 146 -51 438 -71 650 -77 835 -139 1264 -261 1827
-89 412 -156 626 -264 851 -201 416 -427 626 -1155 1072 -137 84 -308 192
-380 240 -635 426 -935 818 -1154 1505 -56 174 -136 502 -216 885 -82 391
-142 628 -210 835 -72 221 -112 311 -305 690 -188 368 -242 490 -305 680 -68
204 -89 329 -89 525 -1 188 12 265 74 452 50 151 117 288 285 583 273 479 311
580 405 1085 86 468 161 687 298 879 149 208 306 338 718 592 393 243 494 318
669 501 318 332 490 723 559 1273 56 439 66 1200 26 1965 -6 107 -19 364 -30
570 -32 607 -40 844 -40 1225 0 498 12 697 80 1385 54 543 63 691 64 1020 1
334 -7 444 -50 675 -65 358 -185 661 -374 948 -167 254 -294 399 -780 892
-212 214 -436 449 -499 520 -474 541 -778 1080 -906 1607 -46 191 -59 308 -59
536 l0 212 -82 0 c-69 0 -83 -3 -89 -17 -3 -10 -9 -110 -12 -223 -20 -696 158
-1310 546 -1890 169 -253 212 -366 190 -500 -16 -101 -46 -165 -106 -230 -129
-140 -310 -159 -468 -50 -26 18 -142 128 -259 244 -575 576 -1210 1089 -1576
1275 -171 87 -240 107 -721 200 -311 61 -492 127 -671 243 -291 190 -432 458
-440 838 l-2 110 -162 0 -162 0 -7 -147z m5073 -2829 c79 -33 132 -110 132
-193 0 -87 -37 -146 -115 -182 -165 -77 -352 111 -276 276 45 98 158 141 259
99z m507 -560 c64 -30 309 -301 416 -461 124 -183 222 -475 198 -590 -16 -80
-110 -147 -205 -147 -100 0 -168 75 -194 215 -19 99 -50 174 -111 270 -75 115
-113 162 -253 308 -59 63 -115 129 -122 147 -8 18 -14 56 -14 84 0 150 147
240 285 174z"/>
<path d="M11510 27938 c2 -305 107 -481 365 -608 145 -72 205 -87 703 -185
495 -96 765 -250 1472 -834 236 -195 423 -364 669 -606 123 -121 216 -206 205
-190 -10 17 -50 77 -90 135 -416 612 -636 1372 -610 2115 3 105 9 200 12 213
l6 22 -137 0 -138 0 7 -92 c4 -50 21 -161 37 -247 49 -253 35 -361 -62 -466
-60 -65 -127 -97 -214 -103 -94 -6 -147 16 -321 128 -276 179 -338 201 -659
230 -436 40 -589 88 -740 231 -78 74 -134 161 -166 256 l-21 63 -159 0 -159 0
0 -62z"/>
<path d="M12276 27979 c29 -32 121 -75 201 -93 39 -9 167 -25 285 -36 117 -11
249 -27 294 -35 148 -28 296 -88 463 -188 52 -32 96 -55 99 -53 2 3 -3 46 -12
98 -9 51 -22 146 -28 211 l-12 117 -655 0 -654 0 19 -21z"/>
<path d="M15206 27948 c-11 -96 -6 -314 10 -440 61 -477 286 -929 714 -1436
137 -162 261 -295 655 -699 335 -344 479 -500 606 -659 316 -395 526 -830 614
-1268 34 -174 53 -334 66 -576 17 -309 3 -596 -66 -1335 -92 -995 -97 -1391
-30 -2650 43 -810 46 -888 52 -1395 6 -527 -1 -729 -38 -1025 -74 -597 -258
-1070 -553 -1424 -96 -115 -286 -294 -421 -397 -152 -115 -261 -188 -503 -336
-373 -228 -517 -360 -622 -568 -75 -149 -113 -287 -175 -620 -106 -571 -157
-705 -474 -1243 -277 -470 -333 -736 -236 -1111 42 -160 101 -295 306 -701
109 -214 218 -440 243 -502 104 -254 193 -567 281 -988 152 -734 219 -984 331
-1254 144 -345 391 -656 708 -895 108 -81 283 -196 580 -381 328 -203 413
-260 581 -385 432 -323 704 -718 870 -1265 113 -372 217 -880 290 -1420 29
-214 85 -720 145 -1305 22 -217 58 -539 80 -715 52 -428 69 -599 77 -792 l6
-163 199 0 198 0 0 73 c0 112 -25 322 -74 625 -102 624 -105 758 -39 1392 22
211 27 304 27 540 1 408 -3 434 -245 1445 -88 369 -174 738 -190 820 -50 260
-95 384 -174 480 -38 47 -199 163 -630 455 -343 232 -509 352 -680 490 -797
644 -1307 1327 -1548 2075 -19 61 -61 198 -92 305 -103 352 -162 484 -400 890
-238 406 -348 657 -396 901 -58 301 -26 516 155 1061 162 488 295 819 456
1138 463 916 1174 1677 2000 2138 254 142 296 168 362 231 80 74 121 151 139
255 8 47 10 163 6 370 -6 306 -17 454 -77 991 -60 538 -71 683 -77 1005 -5
324 -1 432 47 1065 43 568 46 793 22 1415 -34 846 -37 1103 -18 1596 42 1125
7 1576 -161 2079 -52 154 -172 406 -253 530 -136 207 -239 324 -680 770 -385
389 -478 492 -617 679 -431 579 -730 1303 -827 2006 -9 63 -19 130 -22 148
l-5 32 -248 0 -248 0 -7 -52z"/>
<path d="M16114 27968 c3 -18 11 -69 17 -113 82 -599 366 -1287 728 -1768 152
-202 274 -336 756 -827 132 -135 278 -290 324 -345 421 -506 627 -987 710
-1655 46 -368 52 -726 25 -1535 -18 -554 -15 -999 12 -1495 11 -201 17 -479
18 -770 0 -476 1 -470 -60 -1095 -8 -88 -18 -300 -21 -472 -8 -418 1 -549 96
-1388 55 -484 64 -642 58 -960 -5 -293 -14 -355 -68 -495 -85 -220 -228 -350
-614 -560 -199 -108 -354 -208 -518 -332 -619 -472 -1144 -1150 -1482 -1913
-173 -391 -415 -1116 -449 -1347 -20 -132 -20 -202 -1 -312 38 -216 139 -443
365 -821 273 -455 305 -530 479 -1127 98 -336 203 -574 369 -839 394 -629 950
-1134 2055 -1863 498 -329 534 -387 687 -1090 32 -149 108 -469 168 -711 157
-627 213 -916 243 -1239 17 -184 6 -555 -26 -876 -32 -317 -43 -704 -26 -867
6 -61 31 -238 55 -394 50 -320 72 -494 82 -651 l6 -108 145 0 144 0 -6 143
c-3 78 -26 869 -50 1757 -25 888 -52 1847 -61 2130 -20 636 -16 950 14 1065
75 290 203 442 597 710 651 441 1068 994 1818 2410 239 453 390 829 477 1189
68 283 75 346 75 666 -1 381 -18 494 -176 1164 -78 331 -110 486 -224 1066
-171 874 -336 1305 -639 1668 -295 354 -731 594 -1366 752 -85 22 -265 62
-400 89 -135 28 -301 66 -370 85 -445 123 -686 328 -785 669 -40 139 -46 212
-55 732 -5 281 -16 776 -24 1100 -58 2199 -57 3278 4 4630 28 609 88 1183 149
1423 131 511 388 813 783 917 111 29 167 38 403 65 355 41 571 102 835 236
216 110 370 225 545 405 194 201 326 396 522 772 177 341 253 465 386 624 84
101 170 180 417 384 338 280 455 428 570 718 36 90 95 297 113 399 l7 32 -193
0 -193 0 -23 -71 c-32 -100 -128 -287 -203 -396 -149 -216 -330 -405 -688
-718 -412 -360 -583 -557 -700 -810 -21 -44 -68 -163 -105 -265 -135 -371
-225 -531 -378 -676 -177 -167 -368 -248 -862 -365 -137 -33 -466 -113 -730
-179 -264 -65 -518 -124 -564 -131 -114 -16 -278 -7 -361 21 -84 28 -195 88
-273 147 -85 63 -405 386 -559 563 -861 987 -1566 2086 -1780 2773 l-33 107
-98 0 -98 0 5 -32z m3636 -13439 c436 -31 817 -135 1201 -330 444 -225 848
-574 1152 -998 303 -420 506 -944 571 -1476 48 -390 47 -969 -4 -1750 -71
-1091 -222 -1656 -598 -2235 -284 -438 -954 -1202 -1237 -1412 -333 -246 -649
-331 -977 -263 -179 37 -476 159 -913 375 -416 205 -752 408 -997 601 -136
108 -396 370 -485 489 -165 221 -296 462 -453 835 -206 485 -231 537 -473 980
-348 634 -457 946 -486 1379 -35 514 110 1086 410 1624 208 372 471 710 1003
1291 281 307 514 492 781 621 424 205 990 306 1505 269z"/>
<path d="M19315 14129 c-209 -15 -471 -68 -685 -140 -187 -62 -404 -184 -560
-314 -212 -178 -728 -750 -964 -1069 -358 -482 -549 -902 -637 -1391 -26 -145
-32 -490 -10 -615 57 -330 141 -538 445 -1092 217 -398 245 -456 451 -943 188
-444 334 -700 512 -900 268 -300 604 -537 1163 -819 297 -150 637 -307 747
-345 250 -86 409 -80 618 23 218 108 392 267 786 721 392 451 564 692 728
1015 217 429 305 861 366 1800 39 606 44 1272 11 1572 -39 353 -127 655 -280
954 -172 338 -379 610 -645 849 -575 514 -1267 749 -2046 694z m477 -315 c502
-64 947 -292 1338 -684 710 -711 1023 -1770 884 -2990 -66 -577 -262 -1309
-500 -1867 -331 -775 -846 -1225 -1470 -1283 -326 -31 -747 85 -1187 327 -443
244 -736 529 -1005 976 -228 380 -579 1060 -705 1367 -224 542 -320 965 -321
1420 -1 450 81 789 287 1195 356 698 990 1230 1737 1456 110 33 311 75 420 88
128 14 389 12 522 -5z"/>
<path d="M19245 13415 c-243 -39 -480 -118 -695 -231 -723 -382 -1231 -1096
-1321 -1859 -17 -142 -6 -466 21 -625 52 -308 154 -634 309 -985 34 -77 136
-284 225 -460 409 -803 572 -1055 831 -1287 270 -242 732 -483 1072 -558 390
-87 730 31 1051 365 265 275 469 704 677 1425 206 718 276 1362 210 1946 -46
408 -183 837 -375 1170 -340 590 -815 962 -1385 1084 -132 29 -482 37 -620 15z
m426 -301 c389 -66 817 -324 1100 -662 513 -615 703 -1457 539 -2392 -91 -518
-349 -1216 -575 -1554 -251 -377 -593 -623 -964 -692 -110 -21 -294 -20 -406
1 -429 80 -824 439 -1138 1035 -119 227 -249 527 -452 1045 -226 578 -288 794
-315 1098 -35 383 100 892 328 1232 93 139 264 310 406 403 127 84 297 172
532 276 93 41 203 90 244 109 112 51 214 86 299 101 105 19 288 19 402 0z"/>
<path d="M19301 12715 c-57 -16 -88 -29 -367 -153 -388 -172 -542 -261 -671
-390 -176 -174 -319 -463 -384 -772 -18 -85 -22 -139 -22 -280 0 -266 32 -404
202 -851 326 -864 500 -1242 712 -1549 100 -146 304 -347 418 -414 103 -60
154 -80 262 -102 320 -65 690 132 934 495 248 371 483 1045 562 1611 25 179
25 610 0 770 -56 363 -174 674 -358 951 -163 245 -424 472 -679 593 -162 76
-253 99 -415 103 -101 2 -155 -2 -194 -12z m319 -291 c237 -44 445 -156 620
-333 405 -407 551 -1085 405 -1878 -59 -319 -173 -690 -275 -899 -165 -336
-419 -565 -696 -630 -94 -21 -245 -19 -350 6 -380 90 -655 368 -859 869 -130
319 -276 903 -321 1276 -21 176 -15 509 11 625 64 287 222 479 602 731 300
199 426 246 659 248 73 1 155 -5 204 -15z"/>
<path d="M19270 12022 c-124 -42 -445 -255 -566 -376 -145 -146 -176 -235
-176 -501 -1 -325 88 -780 243 -1250 112 -338 206 -512 353 -653 63 -60 104
-90 171 -123 l88 -44 117 0 c112 0 118 1 183 34 216 110 382 406 513 918 81
317 109 548 101 832 -8 296 -51 483 -163 701 -94 184 -188 289 -341 379 -116
68 -209 94 -348 98 -96 2 -131 -1 -175 -15z m159 -277 c262 -62 375 -239 412
-645 17 -189 18 -670 1 -790 -45 -316 -112 -509 -215 -618 -78 -82 -133 -107
-237 -107 -116 0 -177 29 -275 129 -144 146 -225 377 -254 731 -19 217 -24
543 -12 665 49 481 258 711 580 635z"/>
<path d="M19300 11318 c-10 -24 -27 -81 -36 -128 -36 -171 -18 -759 28 -965
20 -89 60 -185 77 -185 11 0 46 129 67 242 22 122 29 421 15 668 -14 242 -31
336 -68 380 -36 43 -60 39 -83 -12z"/>
<path d="M16756 27898 c116 -334 506 -1006 919 -1583 316 -443 676 -872 1055
-1259 162 -165 248 -236 320 -261 54 -19 169 -19 257 -1 217 46 1487 363 1586
396 313 105 408 217 577 680 45 124 108 279 140 345 135 279 321 497 735 863
367 324 495 453 614 612 53 71 181 285 181 302 0 4 -114 8 -253 8 l-254 0 -17
-62 c-49 -178 -177 -380 -350 -554 -135 -135 -195 -182 -476 -374 -233 -159
-309 -219 -413 -323 -123 -124 -166 -197 -302 -515 -112 -261 -157 -334 -280
-457 -129 -130 -183 -158 -446 -225 -187 -48 -201 -54 -400 -155 -260 -132
-359 -166 -494 -172 -115 -6 -198 10 -299 56 -141 64 -235 150 -511 466 -454
522 -679 807 -910 1155 -252 378 -437 746 -543 1077 l-27 82 -222 1 -222 0 35
-102z"/>
<path d="M17580 27997 c0 -16 94 -236 148 -350 252 -522 629 -1040 1325 -1819
198 -222 260 -268 365 -268 79 0 144 24 337 125 205 107 310 148 483 186 241
54 298 99 411 326 27 54 70 150 96 213 102 248 184 383 320 528 129 137 229
215 645 503 249 173 390 321 484 507 l26 52 -259 0 -260 0 -43 -81 c-52 -98
-148 -220 -225 -286 -124 -106 -221 -160 -468 -258 -201 -80 -312 -140 -381
-207 -75 -72 -119 -151 -214 -389 -79 -197 -147 -312 -246 -413 -90 -92 -178
-150 -277 -181 -175 -56 -356 -18 -524 109 -109 83 -204 198 -482 589 -202
283 -234 322 -484 581 -236 244 -308 329 -384 449 l-56 87 -168 0 c-93 0 -169
-1 -169 -3z"/>
<path d="M18426 27968 c16 -18 119 -125 229 -238 228 -233 304 -324 511 -617
256 -361 367 -494 446 -534 142 -73 280 63 413 406 122 316 230 461 448 599
68 44 137 75 342 158 83 33 183 78 223 100 76 42 192 131 192 148 0 6 -155 10
-414 10 -406 0 -415 0 -421 -20 -11 -35 -166 -260 -280 -405 -136 -175 -223
-261 -300 -300 -53 -26 -71 -30 -145 -30 -103 0 -155 21 -230 91 -69 65 -122
139 -300 422 l-153 242 -295 0 -296 0 30 -32z"/>
<path d="M19496 27943 c82 -129 176 -273 179 -273 10 0 255 311 255 323 0 4
-106 7 -235 7 l-236 0 37 -57z"/>
<path d="M24322 27847 c-42 -204 -110 -413 -186 -573 -132 -275 -259 -423
-621 -728 -275 -231 -415 -381 -532 -571 -27 -44 -112 -204 -190 -355 -153
-301 -218 -411 -327 -558 -331 -442 -828 -785 -1351 -931 -162 -45 -287 -68
-529 -96 -240 -29 -339 -50 -436 -96 -134 -63 -221 -152 -300 -309 -131 -261
-181 -656 -240 -1895 -36 -766 -46 -2267 -21 -3300 42 -1800 68 -2663 81
-2730 31 -150 138 -278 300 -358 124 -61 210 -84 569 -156 581 -117 903 -217
1231 -381 538 -270 928 -697 1165 -1279 131 -323 190 -551 350 -1356 57 -286
140 -670 185 -853 155 -639 184 -831 185 -1212 0 -269 -10 -380 -51 -610 -101
-556 -330 -1108 -799 -1925 -510 -890 -781 -1281 -1130 -1631 -167 -168 -309
-284 -590 -484 -291 -207 -382 -308 -415 -465 -21 -96 -16 -399 25 -1715 8
-256 30 -1048 50 -1760 19 -712 38 -1346 41 -1407 l6 -113 210 0 210 0 -6 58
c-3 31 -8 95 -11 142 -3 47 -28 382 -55 745 -47 629 -60 827 -95 1420 -9 143
-23 366 -32 495 -25 345 -25 1040 0 1205 58 390 174 681 375 941 40 52 165
181 293 304 325 312 427 418 503 522 100 139 193 337 279 593 176 521 264 670
697 1175 443 517 557 704 715 1174 246 731 316 1295 220 1773 -42 209 -91 344
-245 678 -51 110 -112 248 -136 307 -118 292 -239 740 -369 1358 -166 792
-240 1091 -340 1380 -89 253 -221 439 -420 587 -106 80 -357 226 -554 324
-348 173 -616 272 -1103 408 -375 105 -496 152 -633 244 -161 110 -265 252
-319 439 -42 144 -50 255 -40 523 14 365 10 800 -9 1050 -40 523 -62 1429 -53
2180 8 717 25 1175 66 1855 11 173 22 362 25 420 23 421 57 643 125 816 116
293 364 495 777 633 66 22 207 63 314 91 821 215 1347 529 1691 1010 124 175
189 311 332 695 195 522 323 734 622 1030 344 339 475 512 609 798 76 163 154
415 180 585 l7 42 -134 0 -135 0 -31 -153z"/>
<path d="M25015 27948 c-36 -274 -140 -597 -280 -865 -139 -267 -277 -446
-565 -733 -352 -351 -408 -440 -604 -967 -101 -273 -141 -367 -208 -493 -250
-471 -669 -867 -1173 -1110 -241 -116 -453 -191 -935 -330 -434 -125 -531
-167 -654 -281 -74 -69 -119 -141 -157 -251 -38 -112 -56 -250 -69 -518 -5
-124 -17 -324 -25 -445 -51 -766 -69 -1345 -69 -2245 0 -857 10 -1228 50
-1875 27 -425 27 -411 8 -1076 -5 -180 -4 -230 10 -299 54 -266 212 -372 756
-510 783 -198 1523 -557 1909 -924 181 -174 325 -429 430 -763 59 -185 115
-427 246 -1053 136 -652 222 -1005 306 -1266 77 -238 110 -322 259 -649 223
-489 283 -741 282 -1185 0 -414 -76 -836 -237 -1325 -211 -640 -310 -815 -800
-1400 -120 -143 -244 -294 -275 -335 -170 -224 -275 -432 -396 -790 -166 -494
-259 -643 -601 -966 -443 -420 -532 -516 -634 -686 -91 -152 -157 -361 -190
-608 -20 -145 -16 -573 9 -940 12 -173 31 -486 42 -695 33 -623 49 -873 90
-1420 21 -286 44 -592 50 -680 6 -88 13 -184 16 -212 l5 -53 153 0 153 0 8
437 c14 876 -31 1908 -115 2643 -44 383 -53 534 -47 735 11 358 83 599 256
857 85 126 163 220 381 453 354 379 457 529 530 765 101 329 121 375 221 510
34 47 155 180 268 295 276 282 427 465 606 735 244 369 474 827 705 1400 128
319 357 940 386 1048 35 127 44 326 20 422 -24 98 -130 303 -271 525 -423 662
-720 1372 -849 2025 -14 69 -48 278 -76 465 -102 677 -157 892 -305 1190 -111
222 -249 405 -425 563 -232 208 -398 306 -1190 712 -804 411 -987 526 -1129
703 -162 205 -228 445 -246 897 -19 478 -109 2386 -126 2675 -26 423 -37 1168
-20 1370 39 476 149 833 343 1118 75 109 242 285 353 372 204 159 460 300 890
488 345 151 404 179 560 268 182 103 335 217 461 343 231 231 338 427 589
1071 169 437 255 616 396 825 102 150 209 272 347 393 162 143 223 214 281
325 44 87 186 464 408 1087 41 116 81 227 89 248 l13 37 -104 0 -103 0 -7 -52z"/>
<path d="M25645 27983 c-4 -10 -108 -299 -232 -643 -248 -690 -290 -795 -365
-926 -79 -138 -143 -216 -320 -389 -320 -313 -427 -485 -643 -1030 -170 -430
-195 -491 -276 -655 -138 -281 -263 -465 -434 -635 -235 -235 -497 -391 -1075
-640 -524 -226 -781 -375 -971 -564 -58 -58 -130 -142 -159 -185 -174 -261
-264 -608 -285 -1101 -7 -166 -4 -232 80 -2055 36 -778 70 -1541 75 -1695 11
-308 26 -436 65 -551 67 -200 188 -312 503 -465 181 -88 1095 -572 1287 -681
887 -504 1226 -1023 1405 -2148 72 -454 95 -586 135 -765 98 -441 206 -756
395 -1150 108 -226 241 -465 400 -720 263 -421 323 -580 323 -845 -1 -226 -35
-355 -244 -910 -371 -989 -631 -1537 -969 -2044 -184 -275 -351 -479 -563
-686 -330 -323 -361 -369 -456 -694 -90 -301 -210 -494 -514 -825 -73 -78
-172 -186 -221 -240 -239 -261 -343 -437 -399 -675 -18 -78 -21 -123 -21 -311
0 -121 5 -276 12 -345 7 -69 24 -231 37 -360 77 -741 109 -1426 108 -2362 l0
-688 152 0 152 0 6 453 c7 566 30 904 97 1448 73 586 68 694 -60 1209 -80 323
-95 420 -95 620 0 225 30 352 128 543 82 163 176 286 418 547 303 328 344 385
478 662 130 267 199 365 465 663 189 211 249 283 374 450 356 476 677 1055
1047 1890 263 594 438 928 614 1174 254 354 584 641 855 744 73 28 92 31 196
31 110 1 118 0 181 -31 36 -18 101 -63 145 -101 107 -93 380 -288 512 -366 9
-6 12 62 12 323 l0 331 -262 131 c-283 140 -326 154 -430 138 -81 -13 -177
-65 -413 -224 -341 -229 -450 -273 -649 -262 -244 13 -459 148 -624 392 -95
141 -163 294 -282 636 -87 248 -123 327 -225 489 -147 234 -258 492 -299 695
-24 116 -35 226 -51 500 -22 366 -20 358 -191 901 -305 972 -503 1346 -930
1765 -212 207 -437 376 -699 525 -254 144 -455 228 -750 314 -237 69 -308 95
-418 152 -113 58 -228 173 -279 278 -72 150 -86 232 -103 588 -16 312 -28 433
-75 731 -92 581 -96 691 -46 1331 50 630 53 795 25 1318 -13 245 -2 409 40
576 117 464 410 721 1131 996 390 148 523 203 680 281 476 237 747 512 988
1003 91 183 167 372 310 766 169 465 236 626 348 838 126 239 227 392 427 651
208 270 290 412 366 636 22 66 108 370 191 675 83 305 153 563 156 573 5 16
-6 17 -139 17 -129 0 -146 -2 -152 -17z"/>
<path d="M26196 27418 c-87 -321 -185 -663 -217 -762 -101 -309 -214 -510
-469 -836 -319 -408 -423 -613 -702 -1375 -160 -439 -224 -597 -324 -800 -256
-522 -601 -877 -1101 -1132 -167 -86 -314 -148 -668 -283 -503 -192 -666 -279
-816 -437 -118 -123 -171 -235 -196 -407 -15 -100 -15 -140 -2 -411 23 -498
15 -823 -37 -1435 -37 -430 -31 -623 32 -1050 79 -537 84 -581 94 -855 11
-287 23 -370 65 -441 53 -90 137 -138 314 -180 815 -194 1665 -759 2128 -1414
252 -356 429 -764 668 -1530 164 -528 179 -598 195 -925 14 -279 26 -392 55
-511 38 -159 101 -302 219 -502 142 -240 194 -354 301 -655 149 -424 250 -588
417 -677 54 -30 72 -34 133 -34 85 0 152 30 290 130 346 251 515 339 700 365
149 20 293 -16 555 -140 l165 -79 3 249 c1 137 1 361 0 498 l-3 250 -160 -116
c-350 -252 -531 -326 -795 -326 -198 0 -359 48 -536 159 -240 151 -406 345
-554 649 -94 192 -123 273 -530 1474 -483 1425 -489 1441 -637 1733 -155 306
-304 508 -568 774 -345 347 -534 485 -775 567 -160 55 -279 79 -505 102 -285
30 -414 84 -570 240 -105 106 -170 208 -219 346 -57 159 -70 234 -69 414 0
145 5 183 44 400 l44 240 0 1025 c0 1091 1 1111 51 1358 49 245 135 458 236
581 160 196 475 330 819 348 101 5 125 3 185 -15 85 -26 134 -68 172 -148 24
-54 27 -69 27 -174 0 -63 -6 -209 -14 -324 -21 -307 -7 -481 50 -656 12 -36
66 -157 120 -270 164 -346 194 -455 208 -761 10 -207 28 -283 98 -409 60 -107
580 -1006 661 -1140 151 -251 279 -417 463 -596 305 -296 563 -407 949 -407
189 0 320 20 496 78 382 125 743 420 1021 835 72 107 178 296 240 428 l53 114
-1 601 0 602 -35 -130 c-190 -711 -524 -1308 -998 -1780 -214 -214 -343 -303
-485 -335 -86 -20 -219 -8 -331 29 -99 33 -392 177 -565 276 -671 385 -1024
843 -1299 1683 -95 292 -239 878 -291 1188 -65 382 -51 726 45 1093 40 153 95
278 243 549 135 248 140 260 223 472 65 168 90 219 151 315 123 190 321 330
549 387 131 33 395 33 542 0 349 -78 648 -243 1097 -603 273 -219 449 -375
615 -545 235 -241 388 -457 491 -696 l49 -113 0 311 c0 305 0 311 -21 330 -12
10 -81 93 -154 184 -372 465 -707 778 -1140 1067 -318 211 -674 393 -1006 513
-185 67 -250 102 -319 170 -73 72 -102 133 -108 231 -6 98 9 184 58 329 93
277 192 460 486 900 242 361 314 479 395 640 94 186 159 386 219 670 24 110
200 1078 200 1096 0 2 -58 4 -128 4 l-128 0 -158 -582z"/>
<path d="M26931 27528 c-135 -766 -187 -998 -284 -1248 -93 -240 -182 -398
-472 -835 -342 -515 -432 -683 -501 -933 -13 -48 -24 -93 -24 -100 0 -15 26
-27 205 -93 769 -285 1497 -785 2041 -1402 l104 -117 0 250 0 250 -77 39
c-176 88 -336 209 -663 500 -331 295 -497 412 -803 563 -195 97 -252 140 -295
223 -23 43 -27 62 -27 140 0 169 62 271 338 553 205 210 267 291 352 462 130
259 221 604 309 1160 51 323 106 849 106 1011 l0 49 -113 0 -113 0 -83 -472z"/>
<path d="M27640 27956 c0 -61 -27 -391 -45 -561 -71 -638 -180 -1195 -302
-1530 -125 -346 -255 -549 -518 -810 -136 -136 -210 -218 -217 -242 -2 -6 51
-38 117 -71 302 -150 520 -307 893 -644 181 -163 282 -247 373 -309 l59 -40 0
240 0 239 -164 85 c-262 136 -383 226 -470 355 -71 104 -91 167 -90 292 0 138
16 178 145 350 232 310 415 619 545 923 l34 79 0 844 0 844 -180 0 -180 0 0
-44z"/>
<path d="M2081 27789 c-118 -32 -298 -119 -576 -279 -142 -81 -196 -108 -315
-152 -185 -70 -220 -105 -220 -221 0 -169 54 -329 232 -690 76 -154 141 -278
144 -275 3 3 20 64 39 136 102 393 278 668 604 940 155 129 204 181 238 249
25 52 28 68 28 158 0 160 -19 175 -174 134z"/>
<path d="M27938 25347 c-31 -46 -100 -142 -153 -213 -54 -71 -102 -139 -108
-151 -30 -67 78 -179 263 -273 l60 -30 0 375 c0 206 -2 375 -3 375 -2 0 -29
-38 -59 -83z"/>
<path d="M25280 23119 c-209 -56 -288 -156 -450 -566 -52 -132 -107 -245 -201
-415 -142 -256 -178 -338 -213 -491 -72 -311 -81 -615 -25 -905 136 -707 297
-1259 468 -1602 268 -536 554 -797 1245 -1136 150 -74 184 -87 239 -91 57 -5
69 -2 111 22 75 44 309 272 439 428 196 235 419 618 540 927 122 312 207 653
253 1010 20 164 30 593 15 732 -45 447 -202 745 -594 1124 -130 127 -469 416
-636 543 -272 207 -553 360 -755 411 -149 38 -315 41 -436 9z m605 -609 c109
-34 215 -94 405 -230 260 -186 359 -268 525 -434 167 -167 256 -285 339 -446
100 -194 147 -354 168 -570 37 -399 -112 -990 -411 -1627 -245 -524 -444 -714
-761 -730 -254 -13 -462 77 -666 289 -157 164 -302 385 -470 716 -239 473
-287 688 -254 1147 79 1079 234 1564 575 1790 91 60 131 79 230 106 89 25 219
20 320 -11z"/>
<path d="M25605 22111 c-174 -82 -284 -314 -364 -761 -44 -246 -91 -750 -91
-976 0 -214 36 -340 189 -650 144 -294 301 -548 415 -671 115 -124 229 -183
353 -183 78 0 118 16 179 72 64 59 112 133 209 322 157 304 284 639 360 946
60 245 68 308 68 500 0 157 -3 185 -26 275 -88 330 -316 596 -827 964 -268
193 -345 220 -465 162z m546 -701 c35 -11 88 -35 116 -55 183 -123 353 -505
353 -789 0 -293 -81 -647 -192 -844 -60 -106 -175 -222 -259 -261 -229 -107
-464 -20 -580 213 -55 112 -76 200 -100 431 -24 229 -28 510 -10 630 39 253
123 438 258 567 124 118 265 155 414 108z"/>
<path d="M26012 21013 c-31 -27 -89 -128 -106 -187 -42 -146 -50 -407 -21
-681 24 -231 52 -325 95 -325 25 0 92 76 123 140 55 114 104 346 114 540 5
115 3 133 -21 224 -29 109 -91 238 -135 280 -27 26 -28 26 -49 9z"/>
<path d="M23165 21594 c-161 -29 -278 -76 -363 -144 -79 -63 -170 -285 -207
-505 -30 -184 -36 -439 -29 -1300 7 -920 8 -898 -53 -1245 -46 -261 -51 -427
-15 -560 50 -185 169 -323 312 -364 30 -8 120 -22 200 -31 338 -38 552 -95
780 -210 178 -89 332 -206 572 -432 406 -383 659 -728 851 -1163 127 -286 175
-421 681 -1915 150 -445 292 -859 315 -920 131 -347 302 -586 511 -714 103
-62 188 -91 295 -98 161 -10 293 45 559 236 202 144 293 204 366 238 l59 28 0
141 1 142 -117 -71 c-282 -169 -523 -257 -705 -257 -163 0 -281 51 -403 175
-144 144 -195 271 -340 835 -150 584 -181 662 -412 1040 -203 333 -250 457
-309 820 -37 233 -69 361 -110 443 -15 28 -66 113 -114 187 -154 238 -190 320
-190 432 0 178 171 288 361 232 67 -20 141 -58 332 -167 200 -116 250 -132
397 -131 95 0 131 5 205 28 310 94 852 434 1297 814 l108 92 0 243 -1 242 -27
-35 c-239 -306 -455 -515 -692 -669 -272 -176 -612 -290 -959 -321 -341 -31
-724 57 -1001 229 -296 184 -589 493 -832 877 -41 65 -161 268 -266 449 -104
182 -243 420 -307 530 -243 418 -295 569 -295 872 0 183 -31 291 -160 563
-110 231 -133 287 -165 397 -67 231 -80 541 -39 926 4 31 3 57 -2 56 -5 0 -45
-7 -89 -15z m-100 -1308 c47 -25 74 -69 114 -191 69 -209 91 -404 91 -814 0
-364 21 -512 95 -666 50 -104 110 -167 440 -470 165 -151 310 -291 322 -312
54 -91 12 -232 -81 -274 -57 -26 -133 -25 -184 4 -51 28 -613 546 -687 633
-155 183 -233 351 -277 594 -17 96 -21 180 -28 520 -9 444 -17 515 -72 675
-35 101 -40 173 -15 221 21 41 80 92 115 100 15 3 32 7 37 9 21 8 92 -8 130
-29z m1410 -2855 c51 -24 81 -56 100 -110 40 -114 -13 -249 -111 -281 -144
-48 -274 47 -274 199 1 159 145 257 285 192z"/>
<path d="M0 19536 l0 -206 33 -20 c66 -41 235 -120 332 -155 241 -88 571 -165
1025 -239 267 -44 1346 -221 1660 -272 249 -40 383 -79 524 -153 156 -81 273
-211 316 -349 25 -79 27 -218 4 -306 -37 -145 -108 -254 -320 -489 -150 -166
-196 -229 -282 -377 -156 -272 -212 -474 -257 -925 -39 -389 -68 -537 -151
-777 -94 -272 -209 -504 -627 -1269 -456 -837 -622 -1122 -738 -1275 -88 -117
-240 -262 -354 -340 -263 -179 -665 -354 -1115 -486 l-45 -13 -3 -202 c-2
-180 -1 -203 13 -203 34 0 346 72 480 111 484 140 803 337 1042 644 59 76 136
210 266 460 191 368 253 464 506 785 458 580 582 845 847 1819 171 629 229
817 331 1076 157 400 317 657 615 989 390 435 472 547 522 715 21 70 21 202 0
272 -42 143 -167 274 -346 363 -207 103 -339 127 -819 151 -471 23 -560 36
-1002 146 -320 79 -425 98 -742 134 -371 41 -557 76 -775 142 -269 81 -615
244 -836 394 -114 77 -104 91 -104 -145z"/>
<path d="M0 18747 c0 -87 4 -128 13 -135 6 -5 75 -35 152 -65 386 -152 835
-265 1237 -312 70 -8 239 -19 375 -25 311 -13 423 -25 532 -56 248 -72 416
-241 467 -470 22 -101 15 -277 -16 -384 -27 -97 -106 -261 -207 -430 -190
-319 -229 -436 -323 -974 -78 -448 -116 -595 -217 -851 -152 -384 -528 -1021
-888 -1503 -286 -384 -558 -578 -1000 -712 l-120 -37 -3 -246 c-1 -136 1 -247
6 -247 13 0 292 96 377 129 143 57 438 208 545 279 114 76 231 188 298 288
129 193 876 1543 1095 1981 105 208 155 327 206 487 56 177 78 294 106 578 42
419 72 571 151 785 110 299 253 525 519 818 133 147 189 228 205 297 11 42 10
53 -10 92 -36 76 -121 126 -290 170 -52 14 -583 107 -1180 206 -597 100 -1159
197 -1249 216 -228 49 -444 113 -608 179 -76 31 -146 59 -155 62 -17 5 -18 -5
-18 -120z"/>
<path d="M2 17974 l3 -207 235 -68 c129 -37 270 -74 312 -83 90 -19 225 -20
353 -5 297 36 523 -7 685 -130 101 -77 158 -168 186 -303 31 -145 -2 -290
-119 -525 -111 -222 -137 -331 -168 -692 -25 -299 -43 -432 -74 -550 -69 -257
-166 -411 -439 -701 -158 -167 -196 -221 -307 -431 -107 -203 -164 -284 -284
-405 -101 -103 -223 -191 -330 -240 l-55 -25 0 -200 0 -199 27 6 c111 27 282
106 408 189 165 108 274 231 498 558 450 659 676 1074 785 1443 43 145 75 293
127 594 92 535 151 710 357 1060 158 269 188 345 188 475 -1 119 -44 183 -155
224 -80 30 -160 39 -445 51 -279 11 -443 27 -680 66 -346 57 -703 152 -1013
270 -49 19 -91 34 -93 34 -2 0 -3 -93 -2 -206z"/>
<path d="M0 17015 l0 -335 62 0 c35 0 127 10 205 22 122 19 153 20 215 11 111
-16 180 -47 247 -108 190 -176 199 -449 31 -940 -22 -66 -74 -187 -114 -270
-151 -308 -321 -491 -586 -632 l-55 -29 -3 -332 c-1 -215 1 -332 8 -332 20 0
152 135 194 199 24 36 82 140 130 230 120 228 148 265 411 549 260 280 301
388 345 912 36 433 73 588 200 848 112 229 124 292 65 347 -73 69 -187 83
-464 56 -223 -23 -383 -2 -707 89 -96 28 -176 50 -179 50 -3 0 -5 -151 -5
-335z"/>
<path d="M27987 16723 c-15 -23 -295 -228 -477 -348 -293 -195 -538 -323 -750
-394 -279 -94 -516 -90 -762 14 -43 18 -78 31 -78 29 0 -3 16 -36 36 -75 54
-109 101 -260 124 -409 76 -478 93 -525 307 -870 115 -184 197 -348 261 -520
61 -164 91 -266 177 -608 114 -453 171 -600 259 -664 87 -63 239 -27 500 119
115 64 310 194 374 248 l42 37 0 139 c0 76 -2 139 -4 139 -2 0 -37 -16 -77
-35 -264 -124 -505 -90 -694 100 -154 154 -207 306 -236 675 -6 80 -17 179
-26 220 -46 229 -152 443 -308 620 -85 96 -122 157 -140 228 -27 103 1 201 78
280 80 82 164 118 360 153 217 38 381 108 582 247 90 62 259 203 383 319 l83
78 -3 145 c-2 80 -6 140 -11 133z"/>
<path d="M280 16304 c-41 -8 -120 -18 -175 -22 l-100 -7 -3 -537 c-1 -296 2
-538 6 -538 15 0 148 144 189 205 173 257 335 797 267 893 -18 26 -65 28 -184
6z"/>
<path d="M27915 15834 c-293 -237 -617 -390 -907 -429 l-48 -6 54 -67 c212
-265 335 -576 366 -932 27 -306 45 -392 100 -468 45 -62 74 -77 146 -76 108 3
200 58 316 193 l58 66 0 145 0 145 -74 -3 c-210 -11 -376 94 -441 278 -53 151
-34 415 43 570 52 107 203 237 395 340 l77 42 0 134 c0 74 -1 134 -2 133 -2 0
-39 -30 -83 -65z"/>
<path d="M27946 15131 c-27 -22 -56 -51 -63 -66 -17 -31 -37 -208 -28 -243 6
-24 9 -24 71 -19 36 2 67 7 70 9 2 3 3 84 2 181 l-3 176 -49 -38z"/>
<path d="M13575 11884 c-110 -24 -233 -75 -512 -208 -296 -142 -415 -189 -563
-221 -121 -27 -171 -32 -446 -45 -284 -14 -368 -42 -479 -161 -109 -118 -185
-321 -239 -639 -61 -355 -175 -1392 -225 -2045 -39 -498 -43 -597 -38 -798 4
-178 8 -213 31 -297 53 -191 155 -369 297 -515 192 -199 350 -277 784 -390
262 -68 395 -108 535 -164 621 -243 1028 -616 1234 -1128 137 -341 186 -659
216 -1403 24 -575 55 -824 152 -1205 87 -344 196 -637 359 -965 297 -596 675
-1105 1154 -1551 l160 -149 158 0 157 0 -15 37 c-25 60 -121 229 -192 338 -84
128 -195 278 -398 535 -456 578 -609 834 -734 1223 -73 231 -105 418 -157 941
-54 543 -70 635 -214 1201 -129 505 -212 909 -226 1090 -21 272 185 456 420
375 74 -25 104 -43 256 -155 69 -51 346 -251 615 -445 747 -539 862 -629 1094
-855 370 -361 573 -698 710 -1174 56 -194 177 -769 547 -2583 l108 -528 129 0
c113 0 128 2 123 16 -24 62 -106 342 -146 499 -116 448 -172 815 -210 1370
-37 536 -58 647 -194 989 -130 326 -149 392 -217 776 -67 376 -103 505 -184
658 -107 202 -256 389 -446 564 -197 181 -338 287 -764 575 -508 343 -658 458
-879 673 -409 399 -597 741 -761 1386 -24 93 -80 352 -125 575 -168 837 -214
976 -513 1539 -164 309 -231 448 -299 620 -95 242 -137 423 -145 620 -9 231
23 350 192 700 109 226 137 302 116 323 -18 18 -147 18 -226 1z m-900 -748
c216 -73 415 -262 535 -510 62 -127 90 -225 146 -506 82 -416 95 -447 324
-775 162 -231 229 -377 296 -641 35 -139 51 -223 245 -1309 66 -374 130 -729
141 -790 22 -127 20 -211 -9 -276 -81 -183 -294 -228 -540 -114 -104 48 -177
103 -347 259 -361 333 -646 503 -1122 669 -208 73 -280 106 -382 174 -152 101
-247 250 -282 441 -12 71 -135 1167 -151 1352 -16 187 -7 492 20 643 28 160
53 253 116 442 30 88 66 212 80 275 33 151 59 229 107 321 89 175 279 321 473
365 94 22 252 12 350 -20z"/>
<path d="M12349 10745 c-58 -30 -131 -101 -158 -153 -11 -22 -36 -111 -56
-198 -19 -87 -62 -237 -94 -333 -90 -267 -112 -385 -118 -622 -6 -222 -2 -277
67 -924 80 -751 84 -769 165 -843 57 -54 128 -88 310 -152 556 -194 834 -359
1268 -751 82 -74 167 -145 188 -158 l40 -24 -5 24 c-3 13 -78 431 -166 929
-166 933 -196 1081 -250 1235 -43 121 -88 200 -224 395 -206 294 -263 434
-346 848 -61 301 -70 332 -128 450 -58 117 -160 226 -257 272 -82 39 -167 41
-236 5z m292 -1135 c74 -14 187 -71 247 -126 142 -127 271 -388 351 -710 45
-180 121 -710 121 -850 0 -206 -172 -343 -348 -276 -102 39 -223 145 -329 289
-66 89 -290 457 -346 568 -72 144 -158 445 -173 602 -21 229 112 447 305 499
58 16 103 17 172 4z"/>
<path d="M12564 9194 c-4 -14 -4 -51 -1 -83 7 -63 66 -274 101 -363 21 -52
226 -409 249 -433 20 -21 -42 305 -89 467 -56 197 -159 389 -226 424 -26 14
-28 13 -34 -12z"/>
<path d="M1225 10606 c-22 -8 -119 -52 -215 -99 -286 -139 -560 -239 -858
-312 l-152 -38 0 -130 0 -130 108 6 c130 8 221 29 434 103 239 82 353 85 504
12 194 -94 334 -317 449 -719 65 -224 95 -392 180 -1014 70 -506 139 -780 260
-1029 144 -298 446 -701 795 -1059 141 -145 222 -212 331 -275 125 -72 164
-83 320 -91 128 -6 138 -8 172 -34 90 -68 138 -182 145 -338 9 -222 -58 -388
-385 -957 -304 -531 -456 -762 -819 -1247 -448 -599 -597 -845 -704 -1165
-109 -326 -146 -609 -137 -1039 7 -332 28 -520 98 -888 l31 -163 155 0 155 0
-6 28 c-10 51 -36 256 -51 412 -36 369 -38 788 -4 1073 69 599 267 1097 593
1502 95 117 190 221 472 514 321 333 439 484 539 686 57 116 84 202 135 427
84 369 138 519 300 818 209 386 263 508 290 649 8 42 7 57 -2 63 -7 4 -67 8
-134 8 -242 0 -557 41 -800 105 -779 203 -1216 663 -1453 1531 -75 271 -115
502 -191 1112 -89 699 -145 984 -260 1299 -43 118 -130 298 -169 351 -34 47
-55 51 -126 28z"/>
<path d="M27015 9989 c-132 -75 -226 -149 -350 -273 -134 -134 -244 -280 -366
-484 -124 -208 -231 -423 -449 -907 -356 -790 -579 -1212 -873 -1655 -196
-295 -391 -545 -639 -817 -228 -251 -240 -268 -396 -578 -149 -297 -213 -385
-522 -720 -193 -210 -231 -254 -295 -350 -70 -105 -110 -191 -136 -295 -19
-73 -21 -103 -16 -225 5 -150 17 -213 105 -570 83 -334 87 -363 87 -675 0
-255 -3 -298 -37 -585 -74 -617 -88 -821 -95 -1397 l-6 -458 143 0 143 0 -6
37 c-17 106 -28 323 -22 438 13 273 49 513 145 970 129 619 144 726 145 1040
0 279 -1 286 -76 597 -77 323 -92 427 -86 593 10 269 91 470 289 719 37 46
163 182 280 303 305 313 316 326 453 577 148 273 177 309 490 621 302 299 352
361 495 600 114 192 210 389 710 1465 259 558 491 1052 515 1097 57 107 122
191 197 254 234 195 529 184 703 -27 84 -101 234 -324 345 -514 40 -69 82
-138 92 -155 17 -29 18 -20 18 391 l0 421 -48 41 c-27 22 -150 109 -273 193
-276 188 -355 245 -441 320 -86 76 -103 77 -223 8z"/>
<path d="M640 9620 c-225 -78 -343 -104 -535 -118 l-100 -7 0 -147 0 -148 165
-3 c147 -3 174 -7 247 -30 190 -63 320 -202 371 -397 11 -41 32 -145 47 -230
104 -592 328 -1152 672 -1674 152 -231 263 -370 514 -642 336 -363 461 -541
534 -758 115 -344 67 -638 -162 -986 -38 -58 -142 -196 -232 -308 -366 -459
-563 -758 -776 -1177 -124 -244 -186 -391 -269 -634 -121 -355 -194 -691 -226
-1040 -14 -151 -14 -559 0 -719 13 -144 49 -361 83 -502 l23 -95 190 -3 191
-2 -23 118 c-67 344 -104 708 -104 1027 0 748 165 1270 606 1912 46 66 187
259 314 428 127 169 284 387 350 485 180 268 453 732 678 1150 55 103 102 231
102 278 0 29 -1 29 -77 42 -355 57 -651 290 -1164 915 -257 313 -454 633 -563
918 -104 269 -150 487 -231 1083 -48 353 -80 546 -121 714 -63 257 -156 478
-235 560 -53 55 -85 53 -269 -10z"/>
<path d="M27129 9030 c-45 -24 -78 -62 -123 -143 -19 -34 -235 -494 -481
-1022 -528 -1135 -569 -1222 -656 -1385 -193 -362 -363 -590 -621 -831 -287
-267 -325 -314 -453 -549 -147 -273 -238 -389 -563 -723 -346 -356 -421 -488
-422 -743 0 -117 5 -149 71 -433 84 -363 93 -432 93 -701 0 -334 -25 -509
-173 -1226 -69 -336 -96 -502 -112 -699 -13 -153 -6 -398 14 -505 l12 -65 213
-3 214 -2 -9 102 c-12 151 -9 583 6 728 6 69 30 274 51 455 97 814 101 1024
24 1548 -41 280 -56 582 -35 729 44 310 171 556 424 824 112 118 253 243 537
474 237 192 488 435 616 595 182 228 348 496 503 809 92 186 107 225 201 524
186 598 269 788 416 951 150 167 407 159 596 -18 70 -65 115 -134 158 -239 41
-101 63 -196 134 -592 95 -518 141 -708 210 -861 l25 -54 0 823 1 823 -55 139
c-102 257 -247 552 -400 810 -84 141 -265 415 -300 453 -31 32 -65 34 -116 7z"/>
<path d="M12 8792 c-9 -6 -12 -130 -10 -581 l3 -572 70 -28 c146 -57 322 -183
437 -313 101 -114 160 -191 395 -518 121 -168 265 -366 320 -440 200 -268 305
-450 362 -622 47 -144 54 -201 48 -366 -11 -300 -93 -503 -406 -1017 -203
-332 -234 -388 -375 -676 -222 -454 -386 -906 -510 -1404 -162 -653 -225
-1221 -213 -1912 3 -178 9 -327 12 -333 4 -6 89 -10 224 -10 l218 0 -23 99
c-28 125 -60 346 -75 520 -15 177 -6 682 15 856 72 580 235 1116 507 1665 221
448 454 801 848 1290 288 357 373 532 357 737 -8 111 -34 186 -106 311 -76
134 -132 203 -369 461 -218 237 -280 310 -404 476 -461 615 -761 1311 -898
2075 -38 214 -52 251 -111 282 -37 19 -61 23 -173 26 -72 1 -136 -1 -143 -6z"/>
<path d="M27127 7408 c-85 -133 -152 -304 -282 -723 -122 -390 -185 -543 -333
-807 -202 -360 -382 -614 -618 -873 -117 -128 -248 -246 -533 -478 -457 -374
-609 -537 -716 -770 -98 -214 -104 -405 -30 -928 67 -470 68 -724 5 -1279 -16
-140 -40 -352 -54 -470 -39 -338 -49 -531 -42 -765 4 -116 10 -232 14 -260 l7
-50 790 -2 790 -3 85 167 c200 393 396 703 695 1099 448 591 526 696 609 818
183 265 367 594 450 802 l36 91 0 960 0 960 -40 141 c-57 201 -102 314 -238
597 -190 394 -230 527 -342 1151 -94 517 -119 603 -190 654 l-30 21 -33 -53z
m146 -1415 c116 -55 192 -155 291 -384 102 -237 160 -439 208 -731 20 -117 22
-170 22 -433 0 -262 -3 -317 -22 -434 -54 -327 -141 -600 -283 -883 -146 -291
-275 -463 -599 -794 -250 -255 -313 -333 -428 -522 -119 -199 -197 -373 -401
-902 -118 -303 -251 -537 -390 -683 -92 -97 -169 -149 -255 -172 -152 -41
-315 27 -389 163 -48 88 -60 167 -59 372 2 363 42 2018 53 2175 25 390 83 637
213 910 134 282 295 506 672 936 420 480 546 662 695 1004 54 124 124 231 191
289 140 122 332 158 481 89z"/>
<path d="M27046 5588 c-26 -27 -57 -77 -81 -133 -172 -389 -313 -597 -701
-1040 -252 -287 -327 -377 -418 -498 -257 -345 -376 -632 -415 -1002 -18 -167
-30 -501 -41 -1115 -6 -322 -15 -738 -20 -925 -5 -187 -10 -353 -10 -369 l0
-29 25 23 c32 30 120 163 173 260 52 97 95 199 237 560 177 448 306 696 487
938 40 53 175 202 300 330 259 265 315 330 421 492 178 272 286 538 352 867
36 183 45 282 45 501 0 280 -22 451 -91 697 -54 192 -174 473 -207 483 -7 2
-32 -16 -56 -40z m-309 -1413 c187 -92 261 -324 198 -625 -51 -245 -155 -437
-344 -633 -110 -114 -203 -179 -303 -214 -137 -48 -292 -19 -381 71 -82 81
-102 166 -88 358 12 148 29 221 95 390 87 226 176 371 305 498 174 172 365
229 518 155z"/>
<path d="M26489 3724 c-73 -77 -133 -172 -184 -293 -49 -115 -87 -245 -83
-284 l3 -32 81 80 c128 128 214 291 244 466 6 36 10 81 8 98 l-3 33 -66 -68z"/>
<path d="M0 6895 l0 -305 28 -6 c231 -50 402 -162 524 -343 60 -91 192 -358
241 -491 58 -157 72 -236 71 -395 -1 -116 -6 -157 -27 -238 -67 -252 -173
-424 -480 -777 -179 -206 -268 -322 -320 -418 l-37 -70 2 -658 c3 -646 3 -658
21 -599 54 185 188 576 256 745 170 425 334 752 579 1152 251 411 319 545 363
714 31 121 31 251 0 354 -50 163 -93 231 -545 860 -328 456 -379 522 -476 624
-63 66 -173 156 -191 156 -5 0 -9 -133 -9 -305z"/>
<path d="M0 5365 c0 -448 3 -815 8 -814 10 1 186 207 252 295 75 101 150 235
179 319 38 110 41 247 7 367 -35 126 -208 474 -270 545 -42 47 -130 103 -163
103 -11 0 -13 -152 -13 -815z"/>
<path d="M14790 5260 c0 -53 100 -507 190 -865 155 -614 180 -752 230 -1290
38 -400 60 -547 115 -761 87 -336 241 -609 600 -1070 422 -540 525 -684 644
-899 52 -93 120 -240 160 -347 l11 -28 489 0 489 0 -15 67 c-7 38 -128 626
-268 1308 -276 1343 -324 1559 -392 1765 -154 470 -452 826 -1078 1290 -93 69
-369 270 -613 446 -243 175 -469 339 -502 362 -55 40 -60 42 -60 22z m1075
-1179 c193 -97 389 -298 601 -616 137 -205 333 -528 394 -650 101 -201 137
-329 165 -580 29 -260 94 -1293 84 -1330 -31 -112 -178 -172 -285 -117 -107
55 -254 199 -353 347 -82 123 -134 227 -251 510 -103 248 -150 342 -309 605
-259 429 -303 567 -417 1305 -50 327 -50 356 -8 443 66 134 211 166 379 83z"/>
<path d="M15900 3538 c0 -26 51 -316 71 -408 58 -263 115 -397 284 -670 126
-204 203 -357 315 -625 51 -121 94 -222 97 -225 7 -6 -2 148 -23 420 -24 320
-55 449 -146 620 -61 115 -330 546 -426 685 -78 112 -172 223 -172 203z"/>
<path d="M6940 4345 c-324 -65 -547 -290 -704 -710 -24 -66 -83 -243 -131
-394 -107 -338 -159 -478 -239 -646 -111 -231 -196 -358 -511 -765 -376 -485
-519 -737 -653 -1150 -49 -151 -102 -352 -137 -515 -14 -66 -27 -130 -30 -142
l-5 -23 150 0 c113 0 150 3 150 13 1 35 32 244 51 336 30 151 109 383 174 513
99 199 201 336 430 578 317 336 386 447 665 1080 181 411 339 666 534 862 416
420 899 509 1545 286 119 -41 817 -333 1361 -570 207 -90 337 -173 456 -292
97 -98 151 -175 215 -310 70 -147 113 -301 184 -661 73 -367 89 -437 152 -630
108 -335 263 -648 474 -960 48 -72 109 -156 134 -188 l45 -57 201 0 c110 0
199 3 197 8 -1 4 -40 67 -86 140 -309 494 -524 972 -631 1397 -57 228 -86 477
-101 866 -14 370 -44 523 -132 674 -54 91 -183 223 -278 284 -248 159 -441
220 -995 315 -374 64 -433 76 -580 117 -202 57 -396 131 -720 276 -354 159
-561 230 -777 268 -101 18 -318 18 -408 0z"/>
<path d="M7440 3376 c-175 -38 -332 -129 -466 -268 -191 -199 -315 -410 -535
-913 -220 -503 -326 -666 -684 -1050 -87 -94 -181 -201 -210 -240 -167 -223
-258 -475 -310 -857 l-6 -48 184 0 184 0 13 43 c26 89 122 294 205 439 48 84
176 287 284 452 230 350 271 419 456 776 269 519 405 714 618 885 253 205 536
301 801 274 178 -18 327 -62 606 -181 478 -203 730 -368 912 -596 143 -180
204 -334 303 -762 26 -113 63 -259 82 -325 69 -240 204 -541 385 -862 l81
-143 204 0 c161 0 203 3 197 13 -4 6 -29 44 -55 83 -186 278 -363 651 -477
1004 -65 201 -102 354 -152 630 -107 593 -199 771 -477 927 -91 50 -223 109
-818 363 -516 220 -731 302 -902 341 -116 26 -334 34 -423 15z"/>
<path d="M7805 2470 c-145 -20 -292 -99 -430 -232 -160 -153 -232 -262 -450
-688 -178 -346 -241 -453 -505 -855 -108 -165 -226 -349 -260 -410 -58 -100
-140 -264 -140 -279 0 -3 119 -6 265 -6 l265 0 30 48 c65 101 203 398 295 632
224 570 289 708 433 909 277 387 682 542 1074 411 235 -79 432 -221 582 -420
191 -254 275 -457 507 -1232 l104 -348 152 0 152 0 -98 195 c-191 378 -282
641 -396 1140 -72 315 -148 472 -297 610 -125 116 -338 237 -663 377 -299 129
-467 169 -620 148z"/>
<path d="M27925 1982 c-109 -167 -258 -371 -514 -707 -367 -479 -527 -710
-668 -955 -58 -100 -163 -304 -163 -315 0 -3 71 -5 158 -5 l157 0 64 128 c139
278 319 566 488 777 140 176 345 375 527 510 l27 20 -3 327 -3 326 -70 -106z"/>
<path d="M7996 1634 c-91 -22 -182 -78 -266 -163 -134 -135 -246 -330 -374
-653 -36 -93 -96 -243 -133 -335 -36 -93 -99 -239 -139 -326 l-72 -157 208 0
c207 0 208 0 213 23 3 12 11 108 17 212 23 385 69 570 186 746 161 242 458
354 667 251 125 -62 205 -182 286 -427 69 -211 97 -363 137 -752 l5 -53 214 0
c167 0 213 3 210 13 -2 6 -34 111 -70 232 -213 709 -254 818 -382 1015 -130
199 -311 335 -499 375 -84 18 -131 18 -208 -1z"/>
<path d="M27890 803 c-165 -173 -356 -445 -508 -725 l-43 -78 331 0 330 0 0
455 c0 250 -2 455 -4 455 -2 0 -50 -48 -106 -107z"/>
<path d="M8041 840 c-23 -17 -60 -58 -82 -92 -69 -108 -92 -212 -109 -508 -6
-96 -13 -190 -16 -207 l-6 -33 252 0 252 0 -7 68 c-25 268 -57 441 -116 616
-65 195 -86 215 -168 156z"/>
</g>
</svg>
