<?xml version="1.0" standalone="no"?>
<!DOCTYPE svg PUBLIC "-//W3C//DTD SVG 20010904//EN"
 "http://www.w3.org/TR/2001/REC-SVG-20010904/DTD/svg10.dtd">
<svg version="1.0" xmlns="http://www.w3.org/2000/svg"
 width="2048.000000pt" height="2048.000000pt" viewBox="0 0 2048.000000 2048.000000"
 preserveAspectRatio="xMidYMid meet">

<g transform="translate(0.000000,2048.000000) scale(0.100000,-0.100000)"
fill="#000000" stroke="none">
<path d="M215 19363 c4 -641 2 -1327 -4 -1608 -9 -441 -12 -507 -35 -665 -38
-256 -50 -716 -42 -1563 l6 -678 -34 -172 c-52 -265 -59 -318 -54 -419 5 -83
12 -111 67 -260 108 -296 141 -439 141 -615 0 -116 -15 -199 -61 -328 l-31
-90 -10 -390 c-11 -427 -12 -858 -3 -1060 3 -71 10 -224 16 -340 18 -351 32
-5174 16 -5873 -4 -194 -12 -457 -18 -585 -15 -332 4 -977 48 -1662 4 -60 7
-454 8 -875 0 -564 4 -804 14 -915 20 -218 3 -669 -39 -1035 -5 -47 -10 -118
-10 -157 l0 -73 29 0 28 0 6 93 c29 411 37 853 28 1457 -4 216 0 341 13 515
20 250 18 638 -3 810 -77 608 -91 770 -91 1035 0 159 5 233 20 330 46 278 49
348 56 1054 4 375 2 1128 -5 1676 -19 1687 -22 2218 -12 2684 8 353 7 548 -5
910 -17 536 -30 1165 -40 1871 -7 542 -11 493 47 695 18 62 22 102 22 235 1
177 0 183 -88 540 -63 254 -85 388 -85 515 0 76 6 111 42 232 l42 143 7 1065
c6 1036 7 1068 28 1180 55 296 73 900 50 1725 -8 275 -14 773 -14 1108 l1 607
-29 0 -28 0 6 -1117z"/>
<path d="M476 19638 c5 -768 7 -853 25 -953 34 -197 40 -267 39 -483 0 -203
-12 -363 -45 -582 -22 -153 -24 -247 -35 -1435 -12 -1380 -14 -1473 -46 -1625
-38 -186 -40 -280 -11 -455 41 -244 51 -358 52 -580 0 -149 -5 -243 -17 -325
-22 -146 -42 -967 -28 -1165 60 -852 61 -985 65 -4425 l3 -3165 -22 -125 c-25
-149 -28 -401 -8 -865 29 -681 33 -816 33 -1305 0 -283 -5 -654 -10 -825 -6
-170 -11 -538 -11 -817 l0 -508 31 0 32 0 -6 90 c-23 317 -17 997 13 1430 37
549 35 1360 -7 2055 -25 430 -23 535 16 750 49 266 51 312 35 680 -7 182 -18
488 -23 680 -6 193 -14 476 -18 630 -4 154 -7 1218 -5 2365 3 2092 0 2415 -33
3042 -8 152 -13 283 -10 290 2 7 9 290 15 628 6 338 15 633 21 655 5 22 12
108 16 190 4 123 0 197 -22 410 -24 228 -27 286 -22 470 3 116 8 561 11 990 2
429 7 836 10 905 4 69 13 331 22 583 8 251 17 463 19 470 6 15 30 156 56 317
35 221 49 390 49 595 0 220 -14 347 -56 508 -15 56 -30 139 -35 185 -10 99
-26 647 -36 1180 l-6 382 -29 0 -28 0 6 -842z"/>
<path d="M713 19833 c4 -523 8 -684 23 -833 25 -259 26 -1230 2 -1655 -40
-687 -50 -1694 -34 -3650 7 -944 6 -1143 -8 -1405 -16 -315 -12 -526 15 -805
8 -76 13 -372 14 -805 1 -377 5 -696 8 -709 4 -13 7 -119 8 -235 2 -176 -3
-250 -26 -451 -24 -200 -28 -277 -28 -465 10 -2507 22 -3535 41 -3564 4 -6 7
-481 7 -1056 1 -1082 2 -1141 45 -1532 38 -343 16 -637 -75 -1013 -88 -360
-95 -661 -34 -1360 27 -315 23 -295 65 -295 l35 0 -6 73 c-3 39 -15 189 -27
332 -18 207 -22 329 -22 600 1 325 2 346 28 475 36 187 93 577 107 741 18 219
7 476 -31 719 -39 243 -39 224 -27 1345 5 424 5 957 0 1185 -5 240 -4 550 1
735 14 475 12 622 -9 755 -14 89 -17 155 -14 295 5 247 5 1655 -1 3810 -3 996
-3 2269 0 2830 3 561 2 1112 -2 1225 -4 113 -3 250 2 305 16 182 19 371 27
1465 11 1493 10 1905 -4 2192 -7 138 -13 501 -13 823 l0 575 -36 0 -36 0 5
-647z"/>
<path d="M1135 20223 c18 -598 20 -720 12 -1046 -7 -281 -14 -400 -43 -667
-51 -477 -55 -778 -13 -968 14 -65 59 -510 65 -657 5 -97 2 -166 -11 -270 -17
-129 -18 -270 -20 -1805 -1 -916 -5 -1692 -8 -1725 -31 -296 -41 -1338 -18
-1805 26 -511 64 -928 123 -1349 29 -209 31 -231 20 -320 -35 -290 -44 -361
-67 -521 -46 -322 -48 -373 -46 -1039 1 -495 5 -654 16 -725 45 -285 45 -677
0 -1291 -21 -286 -21 -1163 1 -1375 22 -226 23 -414 1 -535 -30 -166 -33 -287
-25 -988 4 -369 3 -897 -1 -1172 -4 -275 -8 -830 -10 -1233 l-2 -732 28 0 28
0 2 578 c2 317 7 710 13 872 6 162 13 619 15 1015 3 396 8 1082 12 1525 8 818
8 904 3 1850 -4 742 17 2756 30 2920 5 74 24 268 41 430 51 489 50 732 -6
1020 -41 206 -46 285 -55 770 -4 256 -13 605 -19 775 -21 626 -22 913 -4 1154
21 282 24 1271 6 1981 -9 335 -10 565 -3 780 5 168 13 665 16 1105 6 715 5
810 -9 890 -40 221 -43 447 -13 855 9 120 11 408 8 1063 l-4 897 -36 0 -35 0
8 -257z"/>
<path d="M1686 20358 c8 -200 23 -353 49 -523 24 -154 25 -183 29 -805 3 -355
10 -748 16 -875 6 -126 15 -318 20 -425 25 -499 33 -1052 20 -1340 -19 -451
-33 -1084 -34 -1610 -1 -485 -1 -485 -29 -629 -38 -204 -35 -399 18 -891 32
-302 35 -441 29 -1428 -7 -1281 -12 -1403 -59 -1632 -75 -366 -79 -445 -36
-712 112 -693 147 -1132 120 -1523 -16 -236 -17 -511 0 -911 14 -355 15 -1442
1 -1839 -17 -506 -30 -806 -40 -946 -7 -92 -6 -226 1 -410 6 -151 8 -362 5
-469 -4 -107 -9 -274 -11 -370 -3 -96 -10 -283 -15 -415 -35 -863 -39 -1180
-16 -1292 8 -37 31 -113 51 -168 128 -354 144 -426 126 -573 -6 -45 -14 -192
-17 -327 l-7 -245 33 0 32 0 -7 55 c-3 31 -5 100 -3 153 11 358 0 483 -83 892
-72 355 -80 420 -88 750 -8 310 -6 486 9 1020 6 179 17 570 25 870 17 624 32
1010 46 1125 12 106 19 1919 9 2290 -12 461 -13 544 -5 827 9 309 1 458 -50
926 -78 706 -82 882 -27 1208 45 268 51 342 57 762 3 211 10 494 16 630 6 136
12 504 13 817 l1 570 -33 290 c-21 185 -35 364 -39 495 -5 183 -3 215 15 300
38 176 45 316 37 710 -11 468 -11 524 4 1265 14 657 10 1725 -8 2290 -6 176
-17 559 -26 850 -20 734 -24 815 -40 941 -8 61 -18 186 -21 277 l-7 167 -43 0
-44 0 6 -122z"/>
<path d="M2014 20423 c14 -130 13 -362 0 -583 -8 -129 -13 -293 -10 -365 34
-808 46 -1446 45 -2372 0 -942 -12 -1496 -33 -1678 -21 -176 -20 -452 3 -802
31 -467 33 -537 20 -713 -15 -188 -14 -448 2 -795 7 -148 11 -720 11 -1490 0
-1082 -2 -1263 -16 -1345 -52 -317 -49 -748 11 -1480 11 -147 17 -346 18 -700
1 -272 7 -607 13 -745 6 -137 14 -360 17 -495 3 -135 8 -344 11 -465 4 -173 1
-244 -11 -335 -13 -91 -19 -250 -25 -755 -5 -375 -15 -731 -24 -860 -27 -389
-41 -1467 -29 -2230 l11 -680 41 -275 c58 -388 68 -536 51 -740 -11 -131 -11
-190 -1 -304 17 -208 19 -216 47 -216 29 0 30 3 10 248 -8 97 -17 274 -21 392
-7 258 -19 434 -45 675 -38 351 -52 612 -57 1126 -7 612 2 898 61 2049 8 157
17 589 20 960 4 371 8 689 11 705 2 17 9 177 15 356 10 333 6 478 -25 959 -9
134 -14 378 -14 605 0 209 -5 443 -10 520 -62 847 -67 1083 -26 1390 l28 210
-2 1265 c-2 793 -8 1386 -16 1590 -7 186 -10 439 -7 590 10 437 6 741 -13
1010 -22 318 -23 690 -2 860 24 194 26 234 34 735 19 1140 6 2166 -33 2710
-21 280 -25 465 -13 610 25 321 27 429 13 668 -7 133 -13 243 -14 245 0 1 -12
2 -26 2 -26 0 -26 -1 -20 -57z"/>
<path d="M2513 20406 c-15 -90 -39 -166 -106 -321 l-52 -120 -7 -260 c-3 -143
-14 -357 -22 -475 -37 -501 -32 -1175 14 -1990 46 -810 55 -1247 54 -2465 -1
-1288 -27 -2605 -56 -2860 -13 -107 -14 -214 -12 -1355 1 -228 0 -518 0 -645
-1 -126 5 -396 12 -600 6 -203 14 -674 17 -1045 2 -371 9 -758 14 -860 6 -102
12 -696 13 -1320 l3 -1135 -24 -115 c-24 -114 -24 -117 -18 -580 6 -455 41
-1272 71 -1655 52 -650 57 -1975 9 -2532 l-6 -73 35 0 36 0 8 247 c4 137 8
525 9 863 0 518 -3 641 -17 781 -24 220 -23 509 1 509 8 0 179 -138 268 -216
33 -30 63 -54 66 -54 3 0 -9 32 -26 72 -26 58 -52 93 -133 178 -142 149 -151
167 -174 347 -21 166 -75 749 -90 978 -17 264 -11 518 25 950 57 699 58 742
46 1960 -12 1119 -13 1175 -33 1380 -12 117 -15 477 -16 1845 0 316 1 674 2
795 0 121 -4 364 -11 540 -8 217 -9 368 -3 470 10 166 25 619 34 1050 4 154
12 433 18 620 15 468 15 2618 0 2990 -7 160 -15 391 -18 515 -3 124 -12 350
-19 504 -30 587 -40 1114 -27 1458 7 178 17 364 22 413 6 50 11 241 13 425 l2
335 52 105 c58 117 90 226 100 343 l6 77 -34 0 -34 0 -12 -74z"/>
<path d="M2687 20473 c-4 -3 -7 -25 -7 -47 0 -23 -12 -104 -27 -181 -25 -137
-26 -154 -34 -740 -5 -330 -13 -676 -18 -770 -9 -165 -7 -889 4 -1070 3 -49
10 -238 15 -420 10 -318 15 -462 25 -665 15 -322 27 -1574 21 -2255 -4 -423
-11 -1384 -16 -2135 -5 -751 -13 -1453 -19 -1560 -38 -735 -38 -891 0 -2290 9
-353 13 -407 34 -511 52 -251 69 -416 69 -689 0 -266 -12 -401 -54 -594 -25
-113 -26 -250 -2 -393 14 -87 17 -169 17 -423 -1 -351 -11 -474 -85 -1010 -77
-557 -95 -715 -110 -982 -11 -180 -4 -453 10 -427 4 8 22 86 39 174 18 88 37
174 41 190 14 45 67 413 95 650 54 468 80 1041 72 1592 -7 448 2 578 60 855
37 176 38 190 38 378 -1 214 2 194 -89 544 -40 154 -48 201 -57 335 -13 200
-11 1275 2 1806 6 226 13 914 14 1531 2 616 8 1251 14 1410 6 159 11 784 11
1389 0 1498 -16 2414 -61 3430 -23 500 -21 956 3 1140 8 62 12 310 13 790 0
500 4 713 12 746 7 25 15 82 19 127 l7 82 -25 0 c-14 0 -28 -3 -31 -7z"/>
<path d="M2964 19953 c-12 -703 -9 -1915 7 -3378 17 -1445 16 -6599 0 -6957
-13 -286 -14 -1421 -2 -1588 21 -273 31 -833 28 -1610 -4 -872 -6 -909 -62
-1340 -48 -364 -147 -904 -246 -1340 -54 -236 -57 -263 -19 -170 32 77 70 197
209 645 205 664 277 1042 288 1515 6 253 -4 415 -38 635 -32 202 -38 265 -45
495 -9 297 13 654 72 1180 8 74 19 234 24 355 12 290 12 6911 0 8030 -6 479
-13 1587 -16 2463 l-7 1592 -24 0 -23 0 -2 -272 c-1 -150 -4 -291 -7 -313 -6
-58 -3 -3300 3 -3365 4 -30 11 -1502 17 -3270 9 -2762 8 -3614 -6 -3815 -2
-22 -6 -276 -9 -565 -4 -289 -14 -661 -22 -827 -22 -441 -32 -794 -28 -998 7
-296 25 -606 40 -674 34 -151 46 -266 51 -487 6 -267 -5 -420 -48 -672 -40
-234 -166 -734 -168 -670 -1 9 8 77 18 150 25 169 48 434 62 708 6 138 11 918
11 2170 3 6998 2 8819 -5 9085 -4 165 -10 1091 -14 2058 -5 1369 -9 1757 -18
1757 -10 0 -15 -125 -21 -527z"/>
<path d="M3525 18773 c11 -3182 14 -10921 4 -11393 -10 -455 -1 -844 22 -1000
17 -107 22 -541 10 -700 -13 -162 -56 -518 -72 -595 -46 -218 -117 -354 -346
-663 -167 -224 -242 -357 -342 -605 -104 -257 -151 -467 -151 -678 0 -132 10
-206 40 -304 48 -156 90 -221 186 -286 41 -27 74 -48 74 -45 0 2 -16 28 -36
57 -72 106 -133 271 -160 434 -63 376 120 881 368 1016 60 32 68 34 163 34 92
0 105 -3 165 -31 116 -56 195 -158 248 -317 58 -174 67 -251 66 -557 -1 -308
-18 -494 -94 -990 -131 -856 -144 -980 -144 -1380 -1 -310 3 -363 46 -632 l22
-138 43 0 c42 0 43 1 43 33 -1 17 -7 68 -15 112 -53 284 -70 528 -62 895 8
359 30 604 103 1140 105 773 96 681 91 945 -9 427 -74 666 -224 825 -89 95
-196 140 -327 140 -118 0 -278 -139 -393 -339 -49 -85 -49 -60 0 54 77 181
169 312 428 617 193 226 248 351 301 683 21 128 23 173 22 505 0 229 -7 461
-17 622 -27 409 -21 954 15 1348 16 164 15 1934 0 4375 -6 900 -8 2681 -5
4005 3 1312 2 2865 -2 3453 l-7 1067 -35 0 -35 0 7 -1707z"/>
<path d="M3850 20258 c0 -123 -4 -486 -10 -808 -9 -563 -24 -3453 -23 -4465 1
-269 1 -983 2 -1585 1 -960 -1 -1139 -18 -1450 -21 -386 -21 -844 -2 -1345 27
-665 21 -786 -55 -1165 -53 -262 -43 -562 32 -1030 19 -118 46 -281 59 -361
55 -341 61 -610 25 -1124 -12 -165 -25 -394 -30 -510 -14 -339 14 -1260 56
-1885 19 -279 29 -1288 17 -1631 l-9 -246 -57 -113 c-79 -157 -78 -171 13
-355 76 -154 118 -272 152 -428 19 -88 22 -132 22 -322 0 -203 -2 -230 -27
-348 -16 -70 -43 -178 -62 -240 -31 -103 -35 -135 -54 -397 -11 -157 -22 -322
-24 -367 l-4 -83 49 0 c30 0 50 5 53 13 6 19 23 274 36 539 8 171 16 259 30
310 16 64 18 67 14 25 -5 -49 -31 -610 -38 -789 l-3 -98 52 0 51 0 7 92 c3 50
5 398 5 772 -1 631 -3 671 -15 538 -7 -79 -15 -160 -17 -179 -11 -77 -17 -38
-17 103 0 238 -28 427 -143 951 -37 172 -37 175 23 333 28 71 32 92 30 173 0
51 2 353 6 672 5 416 3 683 -7 945 -11 301 -15 1467 -7 2080 1 41 -2 120 -7
175 -5 74 -3 133 9 225 35 263 44 592 26 903 -13 213 -47 601 -60 682 -28 175
-33 415 -16 750 9 182 22 357 27 390 14 78 3 533 -15 640 -7 44 -32 170 -54
280 -48 235 -67 438 -53 565 5 47 21 170 35 273 15 104 30 252 35 330 18 262
24 1432 27 4482 1 1667 5 3317 9 3668 l8 637 -42 0 -41 0 0 -222z"/>
<path d="M3984 18338 c-10 -2753 -10 -3211 1 -3788 24 -1148 -4 -2166 -82
-3040 -10 -116 -17 -294 -17 -475 -1 -315 3 -349 74 -655 66 -285 72 -328 77
-525 4 -160 2 -212 -16 -328 -12 -76 -27 -209 -33 -295 -16 -208 -15 -934 0
-1137 46 -596 59 -1315 29 -1625 -14 -141 -16 -286 -13 -980 2 -448 9 -876 15
-950 6 -76 10 -445 11 -845 0 -390 5 -804 10 -919 10 -199 10 -213 -11 -303
-30 -130 -23 -277 25 -505 20 -93 39 -198 43 -235 10 -96 18 -44 21 137 1 80
7 251 13 380 6 129 9 375 8 545 -2 171 3 450 11 622 19 445 1 864 -60 1348
-15 126 -20 220 -20 440 0 299 22 1051 41 1430 11 215 6 1409 -7 1520 -2 22
-4 407 -5 855 0 1038 -3 1105 -65 1405 -55 270 -56 297 -30 825 17 348 28 685
47 1385 14 487 17 2404 9 5355 -3 1020 -1 2000 4 2178 l8 322 -40 0 -39 0 -9
-2142z"/>
<path d="M4304 19883 c3 -329 10 -755 15 -948 5 -193 5 -501 0 -685 -4 -184
-8 -690 -9 -1125 0 -669 2 -802 15 -870 34 -175 36 -564 5 -880 -5 -56 -7
-274 -5 -490 3 -215 7 -564 9 -777 5 -373 -9 -1644 -19 -1818 -2 -47 -7 -170
-10 -275 -4 -104 -17 -284 -31 -400 -39 -328 -54 -535 -54 -735 0 -200 7 -255
61 -455 l33 -120 7 -915 c3 -503 9 -962 13 -1020 12 -192 36 -1151 36 -1450 0
-413 -17 -987 -37 -1300 -21 -311 -23 -670 -5 -1005 7 -132 15 -478 18 -770 4
-472 14 -829 30 -1085 3 -47 6 -170 6 -275 1 -183 -1 -196 -35 -350 -67 -305
-87 -465 -88 -704 0 -184 17 -327 58 -485 25 -98 26 -103 19 -330 -4 -127 -4
-318 0 -424 l7 -192 47 0 46 0 -3 113 c-3 61 -8 270 -13 462 -7 283 -12 377
-30 490 -19 115 -23 182 -23 375 -1 257 17 426 69 645 42 176 48 366 46 1500
-1 527 -22 834 -88 1320 -25 178 -27 267 -15 510 34 710 41 1201 42 3015 0
1169 -3 1749 -11 1800 -5 41 -21 131 -35 200 -48 243 -55 308 -55 515 0 194 6
320 49 1035 48 806 52 1029 28 1740 -6 206 -11 605 -10 885 3 541 -1 490 64
1085 6 58 12 206 12 330 0 185 -3 247 -21 350 -12 69 -28 193 -36 275 -9 83
-21 197 -27 254 -12 116 -7 411 11 561 8 68 9 337 3 950 -4 470 -7 1128 -6
1463 l2 607 -46 0 -46 0 7 -597z"/>
<path d="M4744 19586 c2 -492 7 -899 10 -905 4 -5 1 -70 -5 -143 -21 -257 -31
-3264 -12 -3658 17 -357 20 -1460 5 -1730 -16 -268 -17 -1156 -2 -1263 6 -43
17 -95 25 -116 29 -84 60 -490 52 -685 -3 -77 -13 -217 -22 -311 -15 -154 -16
-241 -6 -905 9 -526 9 -881 2 -1250 -6 -283 -11 -830 -11 -1215 -1 -788 -9
-1068 -42 -1365 -20 -185 -22 -252 -22 -690 0 -491 2 -527 54 -1265 11 -148
26 -427 35 -620 20 -435 26 -510 58 -660 36 -167 49 -359 37 -553 -13 -194
-19 -249 -78 -642 l-47 -315 1 -425 c1 -373 10 -614 31 -813 4 -39 10 -57 19
-57 11 0 13 12 7 57 -12 90 -8 1208 4 1278 20 116 72 481 82 580 25 239 34
609 21 832 -6 120 -16 326 -20 458 -7 190 -14 270 -35 385 -25 138 -27 170
-35 620 -10 532 -18 658 -62 910 -49 279 -44 492 23 865 83 473 104 745 75
1015 -8 85 -25 297 -37 470 -23 346 -22 574 7 995 60 900 60 928 -16 1470 -19
133 -21 177 -15 395 3 135 10 288 15 340 40 391 30 937 -20 1144 -24 98 -33
515 -20 985 6 255 14 473 18 485 3 11 5 300 4 641 -2 582 -10 843 -33 1080
-16 169 -22 1042 -10 1350 24 556 30 747 38 1175 8 455 8 1849 0 2030 -3 58
-6 288 -6 513 l-1 407 -35 0 -34 0 3 -894z"/>
<path d="M4980 20363 c0 -64 10 -198 22 -297 25 -210 25 -237 17 -1421 -6
-706 -29 -1793 -43 -1945 -2 -25 -20 -139 -40 -255 -54 -315 -68 -463 -68
-700 0 -233 13 -354 61 -544 37 -148 38 -149 58 -756 19 -585 22 -1618 6
-1890 -13 -210 -5 -424 29 -763 38 -379 30 -889 -19 -1262 -10 -73 -17 -197
-17 -300 -1 -166 2 -187 41 -390 63 -324 73 -394 73 -530 0 -128 -22 -503 -40
-690 -23 -238 -40 -556 -40 -749 0 -188 20 -466 34 -490 10 -15 64 -261 81
-368 53 -318 13 -622 -107 -828 -28 -49 -49 -104 -69 -185 -57 -231 -62 -448
-15 -675 47 -228 66 -491 66 -907 0 -313 12 -523 41 -713 26 -167 35 -481 20
-690 -6 -88 -18 -252 -26 -365 -67 -941 -80 -1233 -71 -1720 5 -358 12 -498
36 -765 16 -174 12 -165 68 -165 l47 0 -6 103 c-13 188 -29 559 -34 807 -3
135 -13 360 -22 500 -37 601 -16 1113 62 1470 45 210 45 677 -1 1125 -24 238
-27 317 -29 665 -3 441 -7 479 -75 755 -32 128 -40 178 -40 251 0 106 16 233
35 284 139 368 175 545 175 862 0 228 -24 423 -79 646 -41 166 -35 565 16
1137 31 340 39 641 24 804 -7 64 -30 256 -53 426 -49 363 -53 532 -23 870 21
225 21 288 5 1280 -5 374 -15 1246 -20 1937 -8 1037 -12 1269 -24 1320 -65
283 -69 612 -11 1042 31 230 33 347 41 1778 3 625 9 1163 14 1195 5 32 18 110
30 173 28 149 28 274 1 430 -31 183 -51 380 -51 508 l0 112 -40 0 -40 0 0
-117z"/>
<path d="M5234 20453 c3 -16 8 -48 11 -73 4 -25 36 -161 71 -303 109 -441 116
-547 52 -767 l-42 -145 -6 -1080 c-6 -1060 -6 -1082 -28 -1195 -12 -63 -27
-178 -32 -255 -14 -186 -28 -715 -23 -890 18 -752 24 -981 30 -1045 3 -41 5
-307 3 -590 -7 -1084 -4 -1877 8 -2190 7 -179 19 -507 27 -730 23 -637 25
-698 31 -820 7 -160 7 -1330 0 -1415 -13 -150 -28 -954 -31 -1635 -3 -820 -15
-1030 -76 -1400 -23 -138 -24 -205 -4 -370 24 -207 54 -608 66 -900 7 -177 9
-531 6 -995 -5 -686 -6 -723 -25 -780 -62 -186 -102 -440 -109 -691 -6 -228 9
-409 57 -654 34 -177 39 -248 42 -555 1 -245 8 -421 28 -740 14 -236 14 -235
52 -235 l31 0 -7 103 c-3 56 -9 377 -12 712 l-6 610 -39 252 c-75 482 -74 685
7 933 39 118 48 485 35 1355 -11 711 -26 1105 -61 1590 -17 246 -18 285 -5
445 16 206 32 533 40 820 8 325 21 1009 22 1195 1 158 13 299 48 535 29 205
29 348 -5 1630 -5 201 -14 597 -20 880 -6 283 -16 610 -21 725 -22 461 -45
4300 -28 4740 5 127 16 262 29 340 33 208 43 606 36 1483 -5 658 -3 784 9 845
52 254 67 344 72 442 6 122 16 85 -106 423 -47 128 -87 282 -97 365 -5 40 -11
57 -21 57 -11 0 -13 -8 -9 -27z"/>
<path d="M5563 20412 c4 -37 27 -187 52 -332 24 -146 49 -312 54 -370 9 -94 9
-84 5 90 -3 136 -13 264 -34 425 -16 127 -30 236 -30 243 0 6 -12 12 -26 12
l-27 0 6 -68z"/>
<path d="M5880 18793 c0 -929 -5 -1967 -10 -2308 -8 -467 -7 -725 2 -1045 17
-557 17 -1418 0 -1665 -29 -421 -24 -1904 8 -2415 62 -985 74 -1961 32 -2725
-13 -243 -17 -495 -17 -1165 0 -802 4 -1327 24 -3455 11 -1068 6 -2622 -8
-2844 -29 -446 -32 -550 -25 -854 l7 -317 37 0 37 0 0 268 c-1 147 5 402 12
567 20 482 26 1537 11 2029 -11 362 -11 516 1 980 15 599 15 1699 -2 2540 -10
529 -13 1953 -4 2146 8 172 24 681 30 970 10 403 -15 1229 -51 1715 -10 139
-18 493 -25 1160 -9 943 -6 1144 22 1550 8 115 8 340 0 800 -9 565 -13 667
-35 871 -48 454 -45 620 19 933 81 398 86 544 37 1016 -52 496 -66 956 -66
2088 0 813 0 847 -18 847 -17 0 -18 -61 -18 -1687z"/>
<path d="M6083 19433 c6 -1044 12 -1342 43 -2073 9 -212 14 -441 11 -510 -6
-116 -14 -181 -67 -525 -36 -241 -44 -411 -26 -575 39 -363 46 -438 56 -640
12 -265 12 -1115 0 -1265 -6 -60 -14 -391 -20 -735 -5 -344 -12 -670 -16 -725
-9 -148 13 -605 42 -874 22 -199 25 -264 20 -411 -16 -472 -17 -873 -3 -1125
10 -169 13 -358 10 -540 -6 -320 -6 -5694 0 -5770 6 -75 8 -2355 3 -2390 -14
-83 -30 -993 -21 -1147 l7 -128 46 0 45 0 -7 3113 c-3 1711 -9 3200 -12 3307
-3 107 -7 1383 -9 2835 -2 1452 -6 2681 -9 2730 -3 50 -11 332 -17 628 -10
447 -10 586 2 825 9 178 13 462 12 747 -1 253 -5 1773 -9 3378 l-6 2917 -41 0
-40 0 6 -1047z"/>
<path d="M6750 19858 c0 -343 -2 -681 -5 -753 -2 -71 -7 -283 -10 -470 -3
-187 -12 -520 -20 -740 -8 -220 -17 -483 -20 -585 -3 -102 -7 -239 -9 -305 -4
-108 -3 -113 5 -50 5 39 23 152 40 253 42 259 52 375 44 537 -9 181 -9 1631 0
2253 7 442 6 482 -9 482 -15 0 -16 -53 -16 -622z"/>
<path d="M7064 18937 c0 -1605 0 -1595 -44 -1907 -30 -216 -34 -352 -34 -1330
-1 -691 -4 -935 -13 -965 -28 -91 -66 -327 -70 -430 -4 -108 -3 -112 37 -225
148 -413 173 -522 168 -730 -4 -136 -6 -152 -41 -250 -54 -158 -54 -155 -63
-905 -5 -457 -3 -605 11 -875 15 -268 19 -581 24 -1790 10 -2441 7 -4154 -7
-4535 -13 -340 -17 -930 -7 -1100 3 -49 12 -234 20 -410 8 -176 18 -358 22
-405 4 -47 8 -443 8 -880 1 -520 5 -831 13 -900 23 -211 14 -535 -28 -985 -11
-115 -20 -233 -20 -262 0 -52 1 -53 29 -53 28 0 29 1 35 68 26 281 37 913 27
1502 -3 178 1 308 18 535 29 393 25 493 -44 1065 -66 546 -71 866 -20 1150 39
219 48 693 40 2040 -4 602 -9 1111 -11 1130 -3 28 -2 1325 1 2580 0 186 -15
862 -20 870 -2 3 -6 154 -10 335 -3 182 -10 517 -15 745 -6 228 -10 530 -10
671 0 234 2 263 21 325 40 127 49 178 55 294 8 147 -9 260 -81 552 -67 269
-95 433 -95 553 0 76 7 111 42 230 l41 140 8 570 c3 314 7 791 8 1060 1 270 5
515 10 545 5 30 17 95 25 144 9 49 23 208 32 355 18 301 15 1112 -6 1721 -8
205 -10 522 -7 818 l6 482 -27 0 -27 0 -1 -1543z"/>
<path d="M7326 19643 c5 -823 6 -841 30 -983 53 -326 53 -582 -1 -985 -13 -99
-27 -234 -30 -300 -3 -66 -10 -680 -16 -1365 -5 -685 -12 -1266 -15 -1292 -2
-26 -13 -89 -24 -141 -31 -150 -43 -284 -31 -363 5 -38 19 -130 30 -204 46
-308 53 -647 16 -835 -25 -128 -33 -1048 -12 -1345 46 -653 49 -807 54 -4025
3 -1677 6 -3117 6 -3200 1 -117 -4 -180 -23 -290 -33 -192 -33 -310 0 -1090
24 -557 32 -1160 21 -1520 -14 -443 -27 -1642 -17 -1678 5 -21 13 -27 33 -27
l26 0 -7 118 c-21 338 -13 949 21 1462 13 213 17 406 17 855 0 546 -10 852
-44 1422 -10 171 -3 271 34 473 44 247 48 310 37 558 -6 125 -15 376 -21 557
-5 182 -12 389 -15 460 -20 509 -27 1431 -19 2495 14 1893 6 2678 -30 3335 -9
152 -10 296 -5 425 4 107 10 386 14 620 4 298 11 461 22 544 19 146 14 350
-17 641 -18 163 -21 235 -16 390 3 105 7 525 10 935 2 410 6 786 10 835 3 50
8 200 11 335 14 610 24 783 60 1000 48 288 62 400 75 596 18 257 -5 501 -65
715 -21 74 -26 120 -35 350 -16 411 -30 964 -30 1171 l0 188 -30 0 -30 0 6
-837z"/>
<path d="M7563 19848 c4 -456 10 -689 21 -833 35 -427 37 -1045 6 -1600 -14
-260 -27 -711 -41 -1470 -10 -499 -10 -771 -1 -1235 16 -767 16 -2135 0 -2380
-16 -264 -13 -505 12 -820 15 -193 21 -342 19 -500 -5 -459 -4 -735 5 -1115 8
-389 8 -391 -20 -630 -32 -279 -35 -455 -19 -1085 11 -438 12 -620 5 -1040 -8
-454 12 -1783 28 -1850 3 -14 6 -504 7 -1090 1 -1017 2 -1076 23 -1302 12
-130 27 -270 32 -310 31 -238 -4 -623 -85 -943 -86 -339 -94 -628 -35 -1335
28 -325 24 -310 66 -310 40 0 38 -10 24 160 -5 63 -17 207 -26 320 -22 259
-25 754 -6 890 8 52 22 136 32 185 55 262 102 683 102 920 1 158 -4 210 -37
430 -30 202 -37 278 -37 395 0 113 10 2427 14 3385 1 94 -4 204 -11 245 -20
131 -29 4650 -15 7930 1 327 7 969 12 1425 21 1684 24 2455 13 2630 -18 294
-21 405 -21 993 l0 572 -36 0 -36 0 5 -632z"/>
<path d="M7984 20258 c4 -123 11 -329 16 -458 11 -345 -12 -1030 -44 -1309
-50 -429 -56 -674 -21 -901 13 -86 26 -196 56 -470 21 -195 22 -378 4 -525
-15 -122 -17 -247 -16 -995 1 -470 4 -938 7 -1040 8 -243 -12 -1318 -32 -1730
-12 -255 -14 -456 -9 -930 6 -620 14 -856 40 -1180 20 -242 59 -594 90 -805
27 -183 30 -258 15 -350 -6 -33 -19 -139 -30 -235 -11 -96 -27 -213 -35 -260
-39 -238 -45 -379 -45 -1023 0 -570 2 -617 22 -770 32 -233 32 -740 0 -1192
-21 -284 -23 -377 -20 -825 3 -385 8 -558 23 -728 l19 -223 -25 -162 -24 -162
0 -990 c0 -544 -4 -1441 -9 -1992 l-9 -1003 29 0 29 0 2 538 c1 295 9 744 17
997 9 297 15 814 15 1455 1 547 6 1227 12 1510 6 342 7 701 1 1070 -6 305 -8
602 -7 660 9 296 16 875 19 1570 4 816 7 894 57 1365 51 483 50 758 -6 1043
-44 227 -48 300 -49 1042 -1 460 -7 774 -15 905 -17 248 -18 730 -4 930 8 102
10 382 6 880 -9 1029 -9 1747 1 2750 8 781 7 879 -8 961 -37 209 -39 515 -6
878 5 55 6 497 3 1012 l-6 914 -35 0 -35 0 7 -222z"/>
<path d="M8318 20113 c-2 -203 -3 -1630 -3 -3173 0 -2107 -4 -2929 -14 -3305
-21 -775 -20 -851 17 -1020 58 -262 67 -358 67 -715 0 -202 -5 -370 -13 -445
-14 -125 -65 -488 -83 -587 -7 -44 -6 -98 7 -225 22 -223 27 -944 9 -1328 -38
-821 -37 -776 -15 -955 17 -140 20 -229 21 -595 l2 -430 -26 -88 c-57 -192
-72 -319 -72 -597 0 -287 11 -390 72 -680 l37 -175 1 -610 c0 -432 -4 -680
-15 -850 -21 -334 -17 -680 13 -1105 39 -550 40 -570 18 -990 -40 -760 -61
-1420 -61 -1912 l0 -328 38 0 39 0 7 423 c3 232 11 548 16 702 28 854 32 1089
27 1555 -3 326 -11 572 -21 695 -19 236 -19 514 0 705 10 100 18 407 26 995
l11 850 -26 130 c-44 224 -52 308 -52 555 1 242 12 355 56 568 17 84 19 137
19 488 0 239 -6 503 -16 672 -22 380 -22 886 0 1247 13 223 17 403 15 775 -3
554 -6 532 91 856 115 382 136 497 127 694 -8 170 -31 258 -156 595 -22 61
-53 157 -68 215 l-28 105 0 1280 c0 704 5 1874 10 2600 12 1549 12 2299 0
3153 l-8 622 -34 0 -33 0 -2 -367z"/>
<path d="M8469 19698 c0 -716 -4 -1873 -14 -4283 -2 -495 -6 -913 -9 -930 -3
-16 -6 -364 -6 -772 0 -714 0 -745 20 -838 24 -106 71 -241 150 -420 127 -290
164 -419 163 -570 -1 -150 -30 -261 -149 -564 -147 -373 -145 -363 -149 -901
-3 -356 -9 -520 -31 -820 -31 -431 -35 -918 -12 -1265 8 -124 13 -387 13 -690
0 -449 -2 -498 -20 -590 -17 -84 -20 -138 -19 -340 0 -212 4 -260 28 -415 35
-215 44 -509 48 -1450 3 -535 0 -658 -15 -854 -17 -203 -18 -261 -8 -500 6
-149 16 -341 22 -426 12 -164 7 -718 -11 -1210 -28 -773 -40 -1151 -46 -1487
l-7 -373 38 0 38 0 -6 52 c-3 29 1 175 8 323 32 621 35 922 30 3525 -3 1438
-4 2721 -2 2850 3 368 0 1430 -6 1800 -3 232 -1 421 10 615 9 178 16 531 17
970 l3 690 26 125 c34 162 84 311 208 622 l101 253 -4 90 c-4 66 -14 122 -41
212 -42 136 -51 160 -148 362 -88 182 -134 298 -155 386 -14 63 -15 146 -10
795 3 399 10 1357 15 2130 6 773 15 1745 21 2160 5 415 8 1023 6 1350 -3 327
-5 724 -5 883 l-1 287 -45 0 -45 0 -1 -782z"/>
<path d="M8754 20263 c-13 -319 -9 -727 10 -981 21 -287 21 -680 0 -822 -31
-213 -49 -1012 -48 -2055 1 -681 19 -1294 45 -1545 12 -120 12 -417 -1 -535
-17 -156 -22 -423 -12 -615 13 -238 59 -678 78 -755 25 -100 105 -249 249
-465 199 -298 248 -406 247 -540 -1 -118 -26 -161 -221 -389 -179 -210 -279
-347 -286 -393 -2 -12 -22 -72 -45 -133 -59 -158 -66 -215 -46 -355 29 -198
109 -415 201 -540 41 -55 141 -152 175 -169 l25 -12 -25 22 c-14 12 -32 26
-40 33 -42 30 -104 122 -148 216 -46 98 -65 150 -56 150 2 0 13 -18 24 -39 11
-22 25 -43 31 -47 8 -4 8 -1 1 13 -6 10 -29 73 -52 138 -33 96 -43 139 -48
215 -8 133 -8 217 0 270 6 36 5 40 -3 20 -6 -14 -13 -63 -17 -110 -6 -74 -7
-79 -12 -40 -15 129 38 271 136 367 78 76 111 87 37 13 -70 -72 -87 -101 -102
-186 -19 -103 -13 -129 12 -53 12 36 29 76 38 90 26 38 100 119 109 119 5 0
-7 -30 -26 -66 -19 -36 -34 -75 -34 -87 0 -13 11 3 24 36 28 67 61 120 100
158 28 28 229 134 310 165 27 10 45 19 40 21 -5 2 -70 -17 -143 -42 -213 -71
-179 -46 94 70 61 25 139 62 174 82 65 36 151 107 151 125 0 5 11 34 25 65 72
157 74 361 5 626 -24 93 -100 315 -165 482 -64 166 -121 331 -139 407 -46 186
-45 112 -45 2293 0 1175 -6 2322 -12 2670 -7 380 -9 727 -3 920 9 341 10 643
3 1102 l-4 303 -37 0 -38 0 -2 -137 c-1 -76 -2 -313 -3 -528 -1 -214 -7 -493
-14 -620 -16 -294 -7 -656 31 -1210 9 -130 12 -426 9 -1065 -9 -1823 -4 -3384
10 -3487 30 -215 89 -412 224 -748 42 -104 94 -239 116 -298 138 -382 126
-623 -38 -785 -65 -65 -176 -127 -240 -135 -40 -5 -59 5 -30 16 9 4 9 6 -1 6
-7 1 -30 -8 -51 -19 -21 -10 -72 -27 -112 -36 -40 -9 -93 -25 -118 -36 -24
-10 -46 -16 -49 -14 -8 9 197 137 316 197 130 66 157 93 168 167 6 37 1 64
-25 143 -45 139 -110 259 -269 501 -275 419 -291 457 -366 863 -42 221 -50
355 -40 655 11 339 10 705 -5 1145 -32 932 -22 3115 15 3395 32 236 29 534 -7
1005 -15 193 -14 568 0 695 8 66 10 147 6 218 -7 108 -8 112 -30 112 -22 0
-22 -1 -31 -217z m19 -9595 c3 -21 2 -38 -3 -38 -11 0 -20 27 -20 63 0 41 16
23 23 -25z"/>
<path d="M9025 20411 c13 -133 9 -372 -8 -441 -38 -155 -40 -198 -42 -1110 -2
-552 -7 -993 -15 -1150 -14 -283 -9 -1502 10 -2050 5 -168 17 -595 25 -950 10
-419 21 -689 31 -770 8 -69 19 -240 24 -380 13 -366 39 -488 148 -702 68 -132
132 -241 138 -235 2 2 -7 29 -20 59 -14 31 -34 93 -45 139 -11 46 -34 136 -51
199 -33 124 -70 418 -90 707 -10 161 -36 385 -46 413 -13 34 -23 399 -25 910
-1 300 -6 633 -10 740 -4 107 -15 364 -24 570 -18 425 -20 1177 -4 1380 6 74
12 243 14 375 2 132 7 321 12 420 4 99 7 389 8 645 0 459 0 466 25 575 23 99
25 131 25 330 0 121 -4 259 -8 308 l-9 87 -35 0 -35 0 7 -69z"/>
<path d="M9504 20253 c4 -126 9 -1724 12 -3553 3 -1995 8 -3358 14 -3408 10
-88 59 -307 67 -299 2 3 -4 42 -13 88 -16 78 -18 201 -20 1609 -2 839 -6 2004
-10 2590 -15 2287 -18 2783 -18 2988 0 203 -1 212 -20 212 -19 0 -19 -7 -12
-227z"/>
<path d="M9750 20208 c0 -567 -23 -1896 -40 -2308 -5 -129 -12 -298 -15 -375
-7 -199 -14 -619 -9 -565 2 25 15 108 29 185 54 308 54 296 49 1237 -3 480 -1
1149 3 1486 6 487 5 612 -4 612 -10 0 -13 -61 -13 -272z"/>
<path d="M10060 19038 c-1 -794 -5 -1531 -10 -1638 -6 -116 -20 -264 -36 -365
l-27 -170 -3 -1029 c-2 -665 -6 -1045 -13 -1075 -48 -211 -74 -384 -74 -481 0
-103 1 -108 58 -260 121 -328 149 -448 149 -640 1 -142 -12 -211 -59 -328 -30
-74 -33 -114 -42 -502 -14 -585 -10 -937 17 -1505 11 -214 25 -2905 25 -4470
-1 -610 -6 -1113 -15 -1405 -19 -574 -17 -1219 4 -1585 33 -586 39 -837 34
-1466 -3 -345 -1 -653 3 -685 36 -259 31 -601 -16 -1119 -31 -340 -32 -315 5
-315 23 0 31 5 34 22 20 89 31 493 32 1158 1 485 6 785 13 860 19 189 25 495
12 652 -7 79 -30 292 -51 473 -71 606 -74 838 -14 1195 l28 165 0 1245 c0
1641 -11 4967 -17 5005 -13 81 -50 2019 -40 2135 2 30 15 91 28 135 36 120 46
196 46 324 0 138 -15 230 -81 490 -69 278 -91 400 -93 532 -2 118 6 158 67
349 20 64 21 87 27 1140 6 1056 6 1077 28 1180 49 235 71 878 52 1545 -6 231
-14 470 -17 530 -9 167 -9 1030 0 1198 l8 147 -31 0 -31 0 0 -1442z"/>
<path d="M10322 19618 c4 -842 4 -865 25 -959 59 -262 52 -754 -16 -1114 -11
-57 -19 -501 -26 -1465 -10 -1245 -13 -1367 -42 -1505 -34 -161 -40 -316 -19
-437 43 -250 69 -562 60 -723 -3 -49 -13 -153 -24 -230 -30 -230 -36 -966 -10
-1375 43 -689 43 -678 49 -3675 8 -4154 10 -3707 -19 -3855 -29 -149 -30 -282
-6 -810 40 -885 43 -1328 15 -2518 -6 -282 -8 -602 -4 -728 l7 -224 29 0 30 0
-8 68 c-4 37 -8 312 -7 612 0 415 5 605 18 795 35 500 32 1494 -7 2125 -19
310 -15 543 11 680 52 273 54 301 48 555 -4 132 -9 274 -11 315 -8 128 -26
696 -34 1100 -8 368 -10 508 -14 1460 -1 228 2 966 7 1640 8 1227 4 1642 -26
2200 -15 276 -15 437 -5 1120 7 407 12 555 24 620 22 124 19 373 -7 610 -15
127 -23 254 -22 365 0 528 22 1946 36 2415 l17 545 39 235 c53 315 70 461 77
670 8 242 -15 461 -66 640 -11 36 -22 83 -25 105 -9 55 -36 959 -36 1181 0 99
-3 236 -7 302 -6 120 -6 122 -30 122 l-24 0 3 -862z"/>
<path d="M10555 20438 c-10 -71 14 -1299 30 -1498 32 -408 30 -1006 -5 -1620
-5 -91 -12 -289 -15 -440 -3 -151 -9 -320 -13 -375 -3 -55 -8 -1054 -10 -2220
-1 -1166 -3 -2226 -4 -2355 -1 -156 5 -301 17 -430 14 -158 19 -332 23 -915 7
-1158 8 -1118 -18 -1310 -21 -152 -24 -212 -25 -560 -1 -214 3 -565 8 -779 6
-232 6 -482 1 -620 -15 -387 2 -1459 37 -2306 8 -192 8 -412 0 -800 -15 -715
-3 -1115 46 -1535 37 -313 8 -712 -72 -1010 -88 -325 -99 -695 -40 -1342 14
-154 25 -290 25 -302 0 -17 6 -21 35 -21 35 0 35 1 35 43 0 42 -18 297 -41
577 -16 195 -16 591 0 715 7 55 23 154 36 220 25 127 66 407 87 590 6 61 12
207 12 325 0 215 -4 255 -51 535 -13 77 -17 165 -17 385 0 344 0 2159 1 2565
0 160 2 439 4 620 4 289 2 341 -14 419 -17 82 -17 115 -7 435 10 343 8 1775
-7 3601 -4 470 -6 1001 -5 1180 7 1909 15 3323 23 3880 6 371 12 907 13 1190
2 283 6 715 9 960 4 310 1 518 -8 685 -8 151 -14 485 -14 898 l-1 657 -34 0
c-33 0 -35 -2 -41 -42z"/>
<path d="M10975 20373 c35 -684 30 -1369 -15 -1783 -16 -146 -34 -325 -41
-398 -15 -171 -7 -527 14 -642 52 -283 83 -817 55 -955 -9 -45 -12 -448 -13
-1655 0 -877 -4 -1644 -8 -1705 -40 -629 -44 -1676 -7 -2250 24 -378 66 -774
121 -1152 l21 -143 -21 -147 c-11 -82 -23 -177 -26 -213 -4 -36 -15 -120 -26
-188 -51 -317 -54 -386 -52 -1077 1 -550 4 -668 18 -765 12 -81 18 -213 22
-450 4 -284 2 -388 -18 -685 -21 -299 -24 -424 -23 -855 1 -387 5 -547 17
-683 23 -237 21 -369 -4 -524 -20 -124 -21 -168 -24 -1428 -2 -715 -6 -1609
-10 -1987 l-7 -688 31 0 31 0 0 438 c0 240 7 680 15 977 22 850 26 1258 31
3225 6 2568 13 3730 24 3970 5 113 28 387 50 609 22 221 40 442 40 489 0 126
-26 376 -55 526 -39 208 -57 448 -49 681 3 110 1 306 -5 435 -30 653 -35 1350
-12 1665 18 256 19 1044 2 1760 -11 437 -12 655 -3 935 5 201 11 712 11 1137
1 695 -1 781 -16 865 -14 75 -18 148 -17 378 0 157 5 337 12 400 8 80 12 399
12 1053 l0 937 -41 0 -40 0 6 -107z"/>
<path d="M11623 20373 c-4 -60 -8 -2365 -8 -5123 0 -3820 3 -5177 13 -5695 11
-565 11 -748 0 -1085 -9 -269 -13 -852 -14 -1740 0 -734 -1 -1681 -3 -2105 -2
-640 0 -789 13 -880 39 -288 45 -737 13 -1050 -8 -80 -10 -194 -6 -340 24
-829 20 -1876 -8 -2267 l-6 -88 45 0 45 0 7 183 c8 228 5 1028 -5 1322 -4 121
-13 342 -20 490 -21 492 -20 584 6 725 63 335 60 647 -9 1049 -22 125 -23 150
-15 311 4 96 13 234 18 305 6 72 15 382 21 690 6 308 13 589 16 625 16 191 5
426 -36 790 -36 314 -40 369 -40 528 -1 129 4 186 27 317 l28 160 -3 975 c-1
536 -7 1637 -13 2445 -6 809 -7 1666 -2 1905 11 640 8 2469 -5 2965 -7 237
-19 616 -28 843 -18 470 -16 518 41 882 19 124 40 273 46 332 13 126 7 344
-15 518 -32 261 -38 402 -43 985 -4 481 -2 648 11 840 22 324 24 295 -23 295
l-39 0 -9 -107z"/>
<path d="M11856 20468 c-17 -57 -31 -586 -31 -1133 l0 -630 34 -330 c29 -290
32 -354 28 -530 -4 -180 -8 -218 -40 -375 -49 -236 -64 -332 -77 -483 -12
-136 -11 -143 35 -622 13 -137 30 -374 37 -525 18 -380 17 -2209 -1 -3060 -18
-847 -19 -2113 -2 -2590 11 -315 11 -382 -2 -488 -13 -104 -13 -186 -5 -510
12 -454 5 -1504 -13 -2087 -12 -398 -12 -416 9 -625 41 -398 44 -497 32 -875
-6 -194 -15 -422 -20 -506 -6 -85 -15 -273 -20 -419 -5 -146 -12 -337 -16
-425 -6 -157 -6 -164 30 -335 102 -501 109 -941 21 -1370 -18 -89 -24 -142
-20 -185 3 -33 15 -258 27 -500 23 -473 31 -1328 15 -1683 l-8 -182 36 0 36 0
-5 588 c-3 323 -10 706 -16 852 -5 146 -12 432 -16 635 l-7 370 27 120 c97
440 106 873 31 1367 -9 53 -18 104 -21 112 -12 30 7 36 42 13 23 -14 45 -43
64 -82 25 -51 30 -56 30 -32 0 47 -47 224 -95 352 -88 238 -120 399 -112 565
4 101 10 129 45 230 37 107 41 127 51 286 22 344 16 504 -37 974 -26 234 -27
264 -25 685 1 242 4 465 7 495 14 145 19 1408 7 1676 -11 226 -11 309 0 434
17 202 17 787 1 1300 -21 679 -27 3509 -11 5110 16 1559 17 2317 5 3195 -6
408 -5 638 3 745 6 85 14 230 17 323 l7 167 -37 0 c-21 0 -38 -5 -40 -12z"/>
<path d="M12160 20128 c-1 -545 -18 -1595 -35 -2088 -8 -245 -20 -571 -25
-725 -10 -279 -11 -408 -3 -350 2 17 20 127 39 245 l36 215 3 1470 c1 809 6
1496 10 1528 6 49 5 57 -9 57 -14 0 -16 -35 -16 -352z"/>
<path d="M12471 18973 c1 -1563 -1 -1622 -42 -1908 -32 -218 -38 -434 -37
-1375 1 -768 -1 -884 -15 -950 -56 -260 -69 -350 -70 -450 l0 -105 78 -215
c90 -250 123 -384 132 -532 7 -132 -6 -224 -54 -361 l-36 -102 -10 -345 c-15
-503 -13 -1027 7 -1415 13 -276 18 -652 23 -1995 7 -1626 7 -2107 2 -2485 -2
-233 19 -376 74 -495 88 -189 85 -398 -10 -590 -30 -60 -58 -96 -141 -178 -57
-57 -132 -124 -165 -149 -157 -115 -251 -382 -218 -619 37 -271 134 -451 279
-520 112 -54 183 -32 303 93 85 88 121 163 123 254 1 58 -2 70 -28 103 -16 21
-57 59 -92 84 -51 36 -66 54 -75 84 -22 82 60 178 166 194 48 7 109 -15 160
-58 44 -37 144 -180 172 -246 20 -47 23 -51 19 -22 -17 99 -137 289 -207 325
-82 43 -211 37 -289 -13 -72 -47 -106 -155 -80 -262 10 -44 24 -62 90 -128 98
-98 113 -134 80 -209 -45 -105 -111 -139 -248 -128 -132 10 -214 54 -271 143
-84 133 -117 470 -61 632 30 88 75 161 116 188 42 27 43 17 4 -45 -49 -79 -82
-226 -84 -373 -1 -143 9 -189 57 -252 30 -40 143 -138 157 -138 4 0 10 60 13
133 7 148 27 268 53 324 21 43 115 139 182 184 26 18 60 43 76 56 131 108 248
51 366 -179 54 -104 79 -131 35 -37 -14 30 -25 63 -25 74 0 36 -58 143 -100
185 -23 23 -66 53 -95 66 -148 68 -274 27 -392 -128 -46 -60 -138 -253 -178
-375 -15 -46 -30 -83 -35 -83 -4 0 -22 32 -40 71 -74 162 -44 344 86 522 28
39 50 55 118 86 224 104 388 262 483 469 104 225 122 528 48 837 -13 55 -26
125 -30 155 -3 30 -18 136 -33 235 l-27 180 3 1696 c4 1714 -3 2225 -34 2799
-8 157 -12 333 -9 410 4 74 10 369 15 655 6 327 14 539 21 570 19 82 15 369
-9 590 -31 296 -36 400 -23 547 6 76 13 484 15 948 7 1109 31 1814 71 2032 77
425 104 796 75 1038 -13 107 -47 280 -66 332 -23 67 -35 343 -49 1128 -3 168
-8 360 -11 428 -6 121 -6 122 -31 122 l-24 0 3 -857 c4 -837 4 -860 25 -955
54 -238 57 -605 7 -953 -32 -230 -42 -474 -43 -1110 -1 -247 -6 -780 -12
-1182 -10 -723 -10 -734 -35 -850 -38 -183 -41 -297 -10 -488 40 -253 50 -366
49 -575 0 -135 -6 -224 -17 -290 -13 -72 -19 -212 -27 -585 -9 -421 -8 -522 5
-715 52 -737 59 -1116 54 -2720 -8 -2100 3 -2466 77 -2700 44 -140 59 -232 58
-370 -2 -181 -42 -328 -128 -465 -71 -114 -211 -238 -342 -304 -67 -34 -69
-25 -5 28 147 123 228 275 253 479 16 124 2 289 -37 452 -31 134 -50 260 -63
430 -18 223 -33 1730 -28 2765 3 534 1 1067 -3 1185 -24 646 -41 1488 -41
2015 l-1 250 32 105 c72 241 62 402 -55 865 -53 207 -78 360 -79 480 -1 91 12
155 68 325 20 64 21 82 27 1135 5 1044 6 1073 27 1180 43 216 56 464 56 1055
0 300 -6 709 -13 910 -16 420 -20 1012 -8 1278 l8 182 -30 0 -30 0 0 -1507z"/>
<path d="M12969 20443 c-1 -21 0 -270 0 -553 2 -492 9 -733 31 -975 27 -304
22 -1114 -10 -1625 -5 -80 -12 -269 -15 -420 -3 -151 -8 -329 -12 -395 -4 -66
-9 -1069 -11 -2230 -1 -1160 -3 -2200 -4 -2310 0 -118 7 -291 17 -420 19 -221
22 -394 18 -990 -1 -176 2 -408 7 -515 15 -322 12 -450 -17 -702 -31 -265 -31
-263 -21 -1733 5 -718 8 -837 24 -960 27 -206 25 -508 -4 -632 -45 -198 -149
-388 -265 -484 -35 -29 -2 -23 67 13 122 65 212 187 250 340 29 121 34 277 25
793 -5 275 -11 1407 -14 2515 -3 1108 -9 2260 -14 2560 -4 300 -5 700 -1 890
4 190 7 896 7 1570 1 674 4 1297 7 1385 9 245 31 2329 31 2895 -1 195 -6 446
-13 558 -7 121 -12 459 -12 833 l0 629 -35 0 c-34 0 -35 -2 -36 -37z"/>
<path d="M13390 20378 c0 -57 5 -272 11 -478 17 -540 2 -1046 -42 -1415 -28
-239 -32 -302 -33 -545 -1 -241 2 -292 21 -410 56 -335 81 -785 52 -935 -11
-57 -14 -382 -14 -1695 0 -894 -4 -1679 -8 -1745 -33 -540 -39 -776 -34 -1270
9 -794 48 -1339 138 -1965 29 -199 31 -222 20 -305 -6 -49 -21 -162 -32 -250
-11 -88 -31 -236 -44 -330 -40 -272 -49 -573 -36 -1190 6 -291 15 -573 21
-625 6 -55 9 -225 7 -400 l-3 -305 -42 -155 c-89 -333 -118 -547 -109 -804 6
-177 26 -295 75 -436 16 -47 32 -114 36 -150 38 -409 46 -512 46 -624 0 -71
-7 -166 -15 -210 -28 -154 -32 -304 -25 -971 4 -368 6 -778 3 -910 -11 -655
-21 -1911 -16 -2072 6 -180 6 -183 28 -183 l22 0 7 702 c4 387 9 719 11 738 2
19 6 226 9 460 4 234 9 466 11 515 3 50 5 664 5 1365 l0 1275 -25 125 c-74
363 -74 761 0 1120 24 116 27 153 35 525 5 220 11 729 14 1130 5 767 6 794 61
1305 36 339 41 498 21 700 -8 91 -24 208 -35 260 -43 208 -61 451 -54 740 3
113 1 302 -6 420 -28 542 -35 1343 -13 1620 23 310 26 835 7 1575 -16 618 -17
761 -5 1220 7 286 13 815 14 1175 1 593 -1 664 -17 750 -27 143 -32 420 -13
691 13 184 16 402 16 1148 l0 921 -35 0 -35 0 0 -102z"/>
<path d="M13727 20393 c-2 -49 -4 -1436 -5 -3083 -2 -2867 -7 -3479 -34 -4305
-17 -527 -12 -2107 8 -2310 37 -383 40 -763 9 -1460 -28 -624 -29 -718 -9
-855 13 -99 18 -218 21 -568 l5 -442 -27 -103 c-62 -241 -70 -298 -70 -517 0
-171 5 -250 33 -475 18 -148 42 -319 52 -380 18 -101 35 -395 34 -555 -3 -268
-25 -1019 -34 -1120 -15 -197 -12 -510 10 -820 48 -677 49 -719 20 -1290 -10
-217 -22 -485 -25 -595 -4 -110 -8 -213 -11 -230 -2 -16 -7 -312 -11 -657 l-6
-628 36 0 37 0 0 128 c0 190 18 838 36 1347 23 623 23 1553 1 1815 -28 327
-31 532 -13 735 29 327 37 630 34 1325 l-4 685 -34 120 -34 120 1 255 c1 282
11 399 51 600 27 134 27 139 26 545 0 226 -7 533 -14 682 -14 288 -11 681 11
1463 8 311 8 494 0 730 -6 173 -16 592 -21 930 -6 338 -15 725 -20 860 -6 135
-8 290 -5 345 2 55 8 780 11 1610 4 831 10 1767 14 2080 4 314 5 1232 2 2040
-3 809 -5 1604 -6 1768 l-1 297 -32 0 -32 0 -4 -87z"/>
<path d="M13877 20193 c-3 -159 -6 -871 -6 -1583 -2 -2303 -10 -3837 -22
-4195 -16 -482 0 -2994 23 -3572 14 -350 6 -789 -23 -1353 -23 -451 -27 -989
-10 -1205 6 -77 11 -360 11 -630 1 -413 -1 -502 -15 -565 -45 -210 -41 -493
11 -815 24 -148 27 -197 35 -660 17 -895 16 -1249 -5 -1564 -18 -258 -18 -313
-7 -595 6 -171 16 -354 21 -406 16 -166 12 -459 -20 -1360 -24 -682 -30 -889
-36 -1277 l-7 -413 30 0 30 0 6 213 c4 116 11 286 17 377 18 320 32 1274 26
1770 -4 272 -6 1652 -4 3065 1 1414 1 2617 1 2675 0 58 -8 201 -17 319 -22
287 -20 462 9 1086 26 555 32 1035 16 1278 -10 142 -14 241 -29 635 -13 362
-8 1019 18 2727 6 336 10 894 10 1240 0 347 5 884 10 1195 20 1260 27 2469 20
3357 l-5 543 -41 0 -41 0 -6 -287z"/>
<path d="M14211 17402 c-6 -4184 -6 -5712 -1 -6872 5 -900 3 -1012 -15 -1295
-24 -388 -23 -602 4 -860 l21 -200 0 -4087 0 -4088 30 0 c23 0 30 4 30 20 0
11 7 142 16 292 20 334 14 915 -10 1133 -18 163 -22 603 -8 930 10 211 17
2263 17 4675 0 1166 -2 1308 -17 1425 -30 223 -32 313 -12 545 16 182 18 307
17 825 -5 1607 -3 9775 3 10178 l6 457 -39 0 -38 0 -4 -3078z"/>
<path d="M14636 20378 c-7 -122 -12 -4861 -8 -7798 2 -1545 6 -2099 15 -2170
18 -146 12 -705 -13 -1145 -15 -272 -20 -438 -16 -585 3 -113 9 -988 12 -1945
5 -1424 4 -1763 -8 -1865 -8 -77 -13 -236 -12 -415 0 -301 9 -413 56 -700 31
-187 29 -311 -7 -450 l-29 -110 -1 -720 c0 -404 6 -915 14 -1165 8 -245 14
-640 15 -877 l1 -433 31 0 31 0 7 133 c9 178 -11 1080 -30 1342 -21 300 -29
930 -15 1330 10 300 14 355 36 460 48 224 46 306 -20 750 -19 127 -39 286 -46
355 -14 147 -6 354 17 455 14 59 18 178 24 770 20 1937 22 2452 11 2615 -33
473 -33 493 -22 776 6 155 17 378 24 495 17 295 16 785 -2 919 -18 133 -20
1297 -3 1780 8 230 10 723 4 1690 -4 751 -7 2545 -7 3988 l0 2622 -27 0 -26 0
-6 -102z"/>
<path d="M14794 20423 c-6 -53 -8 -5970 -2 -8588 l3 -1210 25 -140 c23 -129
25 -163 25 -450 -1 -260 -4 -340 -23 -495 -13 -102 -28 -225 -33 -275 -14
-124 -14 -875 0 -1000 22 -193 24 -333 11 -675 -8 -214 -13 -783 -14 -1500
l-2 -1155 -23 -85 c-18 -67 -24 -121 -28 -260 -5 -168 -3 -184 32 -390 75
-437 78 -465 79 -660 0 -161 -3 -197 -23 -280 -38 -156 -40 -179 -47 -590 -6
-377 5 -869 36 -1655 5 -132 10 -414 10 -627 l1 -388 21 0 21 0 -7 618 c-7
632 -10 721 -26 877 -26 245 -33 599 -21 1005 16 515 24 633 50 750 56 254 34
604 -66 1015 -13 53 -17 117 -18 260 0 167 3 206 27 325 l27 135 5 815 c3 448
9 1159 12 1580 4 552 3 797 -6 880 -6 63 -14 304 -17 535 l-5 420 26 164 c81
492 82 858 5 1171 -27 105 -28 270 -15 1845 6 762 5 1565 -3 2615 -9 1154 -10
1970 -1 3425 6 1051 13 1940 16 1978 6 66 5 67 -19 67 -23 0 -26 -5 -33 -57z"/>
<path d="M15116 20408 c-3 -40 -8 -206 -12 -368 -3 -162 -8 -320 -10 -350 -3
-30 -7 -431 -9 -890 -1 -459 -7 -952 -13 -1095 -13 -367 -15 -2214 -3 -2740
13 -532 17 -643 39 -1080 23 -469 22 -866 -3 -1110 -18 -168 -20 -249 -17
-690 2 -423 0 -511 -13 -565 -36 -152 -28 -394 22 -710 20 -126 28 -554 14
-745 -5 -82 -20 -274 -32 -425 -24 -316 -23 -606 6 -1090 14 -237 16 -396 11
-940 -3 -360 -8 -1125 -11 -1700 -5 -934 -7 -1054 -23 -1130 -23 -116 -23
-427 1 -555 50 -272 54 -463 26 -1210 -17 -454 -16 -730 4 -936 19 -189 22
-450 6 -530 -7 -37 -8 -290 -3 -801 l7 -748 38 0 37 0 -1 683 c-2 555 1 696
12 757 26 136 18 366 -24 695 -45 349 -52 594 -21 750 13 66 18 132 17 245 -1
85 6 222 15 305 18 169 20 417 5 580 -29 290 -32 351 -27 495 4 85 10 637 16
1225 5 589 12 1383 15 1765 6 582 4 734 -9 933 -41 600 -44 1043 -11 1472 9
110 16 317 16 460 0 269 -7 350 -52 595 -16 84 -21 156 -22 270 0 135 3 171
28 280 28 124 28 128 35 585 4 253 13 516 19 585 12 126 18 899 7 1015 -3 33
-8 150 -11 260 -3 110 -14 364 -23 565 -14 302 -16 576 -15 1585 0 671 3 1238
7 1260 3 22 8 418 11 880 6 850 14 1182 40 1690 8 154 15 340 15 413 l0 132
-49 0 -49 0 -6 -72z"/>
<path d="M15377 19983 c-4 -277 -3 -619 3 -770 6 -173 6 -338 0 -450 -14 -268
-19 -426 -25 -783 -3 -179 -10 -471 -16 -650 -11 -356 -15 -2353 -5 -2490 3
-47 11 -292 17 -545 6 -253 13 -473 15 -490 2 -16 7 -248 11 -515 4 -345 2
-535 -7 -660 -7 -96 -15 -330 -19 -520 l-7 -345 -32 -67 c-62 -130 -77 -204
-77 -393 0 -162 1 -174 28 -245 87 -234 112 -373 97 -549 -12 -134 -14 -145
-68 -361 -43 -171 -47 -194 -46 -305 1 -91 10 -170 38 -325 40 -228 48 -331
68 -870 15 -426 15 -1191 -1 -3305 -14 -1931 -21 -2314 -45 -2445 -14 -76 -17
-130 -13 -270 5 -192 25 -313 96 -612 55 -225 56 -248 32 -413 -58 -379 -58
-391 -67 -1097 l-6 -508 30 0 29 0 6 433 c9 621 19 804 53 957 40 188 38 333
-11 590 -111 586 -122 732 -78 985 18 102 16 -36 34 2175 17 2000 16 2782 -5
3495 -17 570 -20 628 -51 890 -45 383 -24 578 86 797 48 95 50 145 14 310 -31
143 -40 173 -110 393 -87 273 -86 336 11 614 l54 155 0 170 c0 94 7 272 16
396 24 340 23 1372 -1 1610 -6 54 -22 463 -32 840 -22 772 6 3443 39 3730 7
61 12 423 13 1018 l1 922 -31 0 -32 0 -6 -497z"/>
<path d="M15704 20258 c-13 -319 -10 -660 7 -903 20 -299 19 -816 -3 -965 -9
-63 -19 -207 -22 -320 -3 -113 -9 -340 -13 -505 -10 -388 -10 -1747 0 -1980
13 -318 27 -587 37 -705 14 -171 12 -377 -7 -640 -14 -204 -15 -269 -5 -500
21 -455 25 -905 12 -1240 -6 -173 -15 -443 -19 -600 -7 -283 -7 -285 -35 -350
-55 -126 -55 -123 -5 -513 41 -330 44 -367 43 -587 0 -202 -3 -250 -22 -340
-21 -100 -21 -115 -12 -320 6 -118 15 -251 20 -295 17 -134 13 -668 -6 -771
-29 -165 -55 -418 -55 -529 -1 -116 12 -185 57 -320 26 -77 27 -93 37 -395 8
-235 7 -432 -3 -775 -7 -253 -17 -836 -21 -1295 -4 -459 -13 -1085 -21 -1390
-16 -706 -15 -1138 6 -1460 17 -275 17 -278 42 -570 12 -147 15 -234 8 -355
-4 -88 -8 -326 -10 -530 -1 -203 -7 -435 -13 -515 -6 -80 -11 -245 -11 -367
l0 -223 25 0 25 0 1 168 c0 92 4 219 10 282 5 63 11 324 14 580 3 256 8 535
12 621 7 195 -10 542 -48 984 -43 480 -47 710 -19 940 20 170 22 241 31 1320
5 627 14 1217 19 1310 6 94 11 445 12 780 l0 610 -25 95 c-63 232 -87 412 -87
638 0 183 17 321 57 470 34 125 38 209 23 532 -22 479 -26 708 -13 810 19 148
27 526 14 670 -6 69 -23 198 -38 286 -27 160 -27 162 -10 260 9 55 25 126 36
159 23 69 32 224 52 858 13 414 9 701 -15 1047 -19 276 -20 397 -5 705 10 202
9 325 -5 770 -36 1079 -30 3233 10 3557 27 220 28 480 6 838 -32 488 -34 583
-22 730 20 247 23 326 16 393 -7 61 -10 67 -30 67 -23 0 -23 -1 -32 -222z"/>
<path d="M15978 20267 c4 -170 1 -227 -11 -282 -39 -173 -40 -182 -43 -1165
-1 -531 -6 -976 -9 -990 -13 -51 -17 -1130 -6 -1620 37 -1688 52 -2189 71
-2310 20 -125 23 -422 7 -630 -9 -113 -19 -353 -21 -535 -5 -316 -14 -563 -37
-1040 -17 -362 -24 -1384 -9 -1533 21 -221 27 -958 10 -1347 -11 -253 -11
-763 1 -1175 4 -146 10 -368 13 -495 3 -126 9 -358 13 -515 5 -157 8 -559 7
-895 -1 -807 -22 -1319 -81 -1940 -24 -260 -25 -291 -14 -438 7 -96 28 -250
55 -395 70 -375 70 -378 70 -547 -1 -113 -8 -206 -24 -315 -20 -136 -22 -178
-16 -345 3 -104 9 -419 12 -700 6 -476 2 -635 -22 -967 l-7 -88 26 0 c25 0 25
1 31 92 3 51 8 185 11 298 4 113 10 297 15 410 14 299 12 515 -6 876 -16 321
-16 322 5 465 12 79 25 198 28 264 5 110 2 137 -32 315 -98 520 -116 772 -69
1010 14 75 26 384 38 1027 3 166 14 418 23 560 14 208 18 408 18 1038 0 1118
-23 3390 -38 3655 -6 124 -12 446 -11 715 0 471 6 680 41 1470 8 198 16 475
17 615 1 140 5 260 9 267 17 27 38 232 42 408 4 208 -3 309 -39 580 -32 237
-38 394 -41 1105 -1 365 -8 730 -18 945 -38 805 -40 1369 -6 1780 6 83 8 205
4 300 -4 97 -1 223 6 320 7 91 12 372 13 650 1 485 1 491 26 600 22 98 25 133
25 315 0 113 -4 249 -8 303 l-9 97 -32 0 -33 0 5 -213z"/>
<path d="M16637 19663 c-7 -833 -15 -1219 -42 -1993 -19 -561 -24 -764 -18
-720 2 19 15 98 28 175 55 318 57 350 54 690 -6 470 -1 1980 6 2348 6 271 5
317 -7 317 -13 0 -16 -118 -21 -817z"/>
<path d="M16953 19568 c3 -502 2 -1230 -3 -1618 -9 -685 -10 -710 -35 -870
-36 -235 -48 -677 -42 -1545 3 -379 2 -710 -3 -735 -4 -25 -24 -130 -44 -234
-49 -258 -49 -343 0 -481 141 -396 163 -481 171 -660 6 -146 -8 -245 -52 -352
-14 -34 -29 -100 -34 -149 -12 -111 -27 -718 -24 -1049 1 -245 18 -726 29
-815 7 -58 19 -2883 19 -4405 0 -837 -4 -1293 -15 -1600 -22 -625 -18 -952 20
-1740 5 -110 12 -238 15 -285 9 -123 12 -832 5 -1205 -3 -216 -1 -349 7 -410
32 -249 26 -618 -17 -1075 -11 -113 -20 -235 -20 -272 l0 -68 29 0 28 0 6 98
c30 452 39 964 26 1427 -5 167 -2 281 12 475 30 421 25 651 -21 1030 -56 452
-62 519 -67 795 -5 277 -4 282 27 475 31 193 31 199 41 755 7 402 7 874 -2
1670 -7 611 -12 1724 -12 2475 0 751 -4 1453 -8 1560 -11 275 -28 1086 -36
1675 -6 541 -9 495 48 695 18 61 22 103 23 225 0 165 -11 238 -84 520 -52 199
-78 332 -90 464 -11 122 -9 140 46 326 l38 130 6 1065 6 1065 26 140 c45 238
62 602 55 1205 -3 278 -11 649 -17 825 -7 189 -10 538 -8 853 l5 532 -30 0
-30 0 6 -912z"/>
<path d="M17214 19623 c5 -807 6 -864 25 -954 60 -288 57 -640 -9 -1084 -14
-94 -18 -190 -19 -438 -1 -174 -3 -323 -6 -330 -2 -6 -6 -424 -10 -927 -7
-1092 -9 -1166 -41 -1327 -39 -199 -41 -282 -11 -468 43 -269 51 -351 51 -580
0 -166 -5 -244 -18 -320 -33 -186 -40 -1101 -11 -1405 9 -96 24 -415 34 -720
6 -167 11 -1683 12 -3490 l3 -3195 -23 -130 c-28 -158 -28 -186 0 -845 25
-595 30 -1359 15 -2632 l-9 -778 32 0 32 0 -8 123 c-16 247 -7 997 17 1407 37
624 31 1391 -16 2205 -17 303 -15 351 26 585 43 243 50 332 40 536 -8 159 -17
392 -36 999 -20 630 -23 1152 -18 2910 6 1957 2 2310 -28 2870 -16 281 -16
280 -1 1010 8 376 17 612 25 650 19 95 15 402 -10 630 -32 301 -35 370 -23
495 7 69 13 423 15 890 4 675 23 1543 41 1855 3 55 23 206 45 335 62 375 73
507 67 768 -5 237 -23 373 -67 513 -16 50 -22 112 -30 289 -15 354 -30 921
-30 1176 l0 234 -31 0 -31 0 6 -857z"/>
<path d="M17450 19938 c0 -517 7 -752 30 -1008 28 -308 22 -1172 -10 -1670 -5
-80 -17 -491 -26 -915 -15 -678 -16 -915 -5 -1980 15 -1583 14 -1752 -5 -2082
-17 -298 -15 -440 14 -748 13 -142 16 -303 17 -770 0 -324 4 -734 9 -910 8
-316 8 -323 -20 -570 -33 -284 -31 -112 -22 -1880 6 -1255 11 -1583 35 -2200
14 -376 15 -520 6 -985 -10 -499 -5 -918 12 -1160 12 -165 25 -317 42 -460 31
-278 0 -625 -87 -970 -46 -182 -61 -306 -67 -555 -6 -232 3 -405 45 -880 l17
-190 38 -3 38 -3 -6 58 c-32 331 -49 648 -50 933 0 323 6 404 45 575 10 44 30
163 44 265 68 490 73 695 27 1016 -17 115 -35 247 -41 294 -7 60 -7 297 2 806
9 559 9 883 0 1440 -10 624 -10 756 4 999 15 291 13 401 -13 570 -12 74 -15
153 -12 300 6 290 -3 4129 -10 4595 -3 217 -3 553 0 745 5 267 11 2206 8 2705
0 41 5 179 11 305 7 127 10 345 9 485 -2 140 3 786 10 1435 10 923 10 1212 1
1325 -7 87 -14 443 -17 888 l-5 742 -34 0 -34 0 0 -542z"/>
<path d="M17874 20273 c25 -787 15 -1394 -28 -1753 -53 -445 -58 -736 -17
-985 56 -339 80 -777 52 -960 -12 -74 -14 -363 -14 -1610 1 -1528 -2 -1712
-33 -2300 -14 -259 -16 -411 -10 -795 3 -261 9 -509 11 -550 3 -41 10 -160 15
-265 21 -374 60 -770 111 -1124 34 -241 34 -248 10 -416 -11 -71 -22 -161 -26
-200 -3 -38 -17 -140 -30 -225 -45 -295 -49 -386 -47 -1045 2 -471 6 -647 17
-730 42 -324 43 -632 3 -1195 -18 -258 -21 -382 -19 -800 1 -351 6 -548 17
-675 20 -236 21 -407 1 -520 -29 -162 -33 -312 -26 -935 4 -338 3 -943 -2
-1345 -5 -401 -11 -883 -13 -1070 -2 -187 -1 -438 2 -557 5 -216 5 -218 27
-218 l22 0 7 622 c3 343 11 729 16 858 13 303 34 3172 29 3870 -5 641 -4 725
9 2155 11 1116 15 1234 52 1585 54 507 59 621 39 857 -6 70 -22 187 -36 258
-39 204 -44 270 -53 760 -4 253 -13 597 -19 765 -20 595 -22 951 -6 1170 25
342 29 953 11 1735 -13 550 -14 788 -7 1055 6 190 13 674 17 1075 6 725 4 789
-28 1005 -16 113 -14 515 4 740 11 139 13 360 10 1073 l-4 897 -35 0 -36 0 7
-207z"/>
<path d="M18205 20048 c-3 -238 -5 -1614 -4 -3058 3 -2568 -2 -3247 -31 -4035
-6 -143 -10 -677 -10 -1187 0 -743 3 -952 15 -1055 44 -392 45 -888 5 -1653
-22 -416 -23 -568 -4 -675 14 -83 18 -182 21 -572 4 -424 3 -479 -12 -530
-116 -393 -116 -857 0 -1369 l25 -109 0 -627 c0 -388 -5 -704 -12 -830 -20
-320 -15 -743 12 -1083 32 -388 32 -777 3 -1390 -31 -631 -43 -1047 -43 -1495
l0 -380 40 0 40 0 2 338 c1 185 2 355 3 377 2 22 5 150 9 285 3 135 11 380 18
545 6 165 12 581 12 925 1 520 -2 664 -17 860 -22 274 -25 557 -9 720 25 241
31 478 33 1190 1 503 -2 750 -10 782 -79 338 -81 768 -5 1143 23 114 24 138
24 484 0 214 -7 478 -16 640 -18 298 -15 724 7 1426 11 363 10 531 -10 1300
-33 1316 -35 2086 -10 5315 8 970 9 1918 4 2575 -4 572 -7 1160 -6 1308 l1
267 -34 0 -34 0 -7 -432z"/>
<path d="M18360 20118 c0 -200 -3 -862 -5 -1473 -3 -610 -7 -1751 -10 -2535
-2 -784 -9 -1582 -15 -1775 -12 -380 2 -2692 20 -3320 18 -628 14 -889 -31
-1780 -12 -249 -6 -945 10 -1075 12 -95 13 -856 1 -970 -5 -47 -16 -128 -25
-180 -20 -115 -23 -388 -6 -540 7 -58 23 -177 36 -265 22 -152 24 -200 34
-940 11 -774 8 -973 -20 -1320 -10 -126 -7 -496 6 -650 34 -399 32 -637 -20
-2070 -9 -226 -18 -593 -22 -817 l-6 -408 30 0 30 0 7 173 c3 94 10 240 15
322 22 348 26 789 24 2600 -2 1682 -1 3794 1 4765 1 203 -5 398 -14 520 -20
255 -18 617 6 1065 25 488 25 1165 0 1705 -27 593 -27 839 5 2815 5 341 14
1228 19 1970 5 743 12 1618 17 1945 8 639 10 1395 5 2138 l-3 462 -44 0 -45 0
0 -362z"/>
<path d="M18644 20273 c-13 -318 -11 -714 6 -958 21 -305 20 -765 -2 -915 -20
-137 -25 -247 -35 -815 -18 -998 -6 -2163 28 -2610 19 -251 22 -439 9 -610
-21 -283 -26 -424 -19 -550 26 -460 30 -1184 9 -1545 -6 -107 -13 -301 -16
-430 l-6 -235 -35 -89 c-35 -86 -36 -90 -29 -185 3 -53 13 -145 21 -206 53
-384 59 -453 59 -670 0 -181 -3 -237 -19 -315 -24 -113 -24 -262 -1 -616 11
-174 13 -341 9 -694 -4 -365 -2 -545 12 -840 21 -435 23 -1292 5 -1620 -6
-113 -15 -635 -19 -1160 -5 -525 -15 -1224 -22 -1554 -10 -480 -10 -647 0
-845 16 -333 39 -684 52 -806 5 -55 11 -165 11 -245 2 -225 -20 -1159 -31
-1310 -6 -74 -10 -206 -11 -292 l0 -158 30 0 30 0 0 163 c1 89 5 220 11 292 9
125 24 971 23 1335 0 245 -19 568 -51 890 -22 226 -27 325 -27 560 -1 200 3
303 13 345 19 87 30 607 31 1490 0 418 5 837 10 930 22 376 30 948 20 1365 -5
228 -13 440 -17 470 -4 30 -7 366 -8 745 -1 380 -7 798 -13 930 -16 337 -18
555 -4 660 33 247 24 621 -19 860 -39 210 -36 299 15 462 23 72 26 108 40 463
27 676 31 1017 12 1260 -27 355 -33 556 -23 752 14 245 13 614 -2 1003 -7 176
-15 779 -18 1340 -6 1170 6 1971 34 2162 20 140 23 585 5 778 -26 280 -36 598
-24 777 7 95 12 235 12 311 l0 137 -23 0 -24 0 -9 -207z"/>
<path d="M18917 20263 c4 -179 3 -229 -10 -278 -40 -149 -50 -297 -46 -620 6
-491 0 -1293 -12 -1620 -9 -210 -10 -546 -5 -1115 4 -448 9 -833 11 -855 2
-22 8 -256 14 -520 22 -930 32 -1227 46 -1333 21 -161 28 -390 16 -547 -6 -77
-15 -286 -21 -465 -18 -617 -31 -976 -47 -1340 -20 -466 -21 -1291 -2 -1440
11 -83 14 -342 14 -1220 0 -965 3 -1146 18 -1345 18 -240 20 -546 6 -990 -15
-519 -22 -917 -29 -1815 -7 -810 -11 -958 -25 -1035 -20 -109 -23 -382 -6
-535 7 -58 30 -221 51 -363 49 -315 53 -475 19 -719 -21 -150 -22 -165 -11
-773 10 -646 9 -854 -8 -1092 -5 -78 -10 -165 -10 -192 0 -47 2 -51 24 -51 23
0 24 4 30 83 3 45 12 260 20 477 16 435 14 880 -5 1210 -11 208 -11 221 12
375 37 250 33 378 -19 645 -65 329 -76 428 -76 655 0 149 5 222 18 285 13 65
19 174 26 465 5 209 14 565 20 790 33 1289 38 1850 18 2310 -8 168 -12 734
-13 1495 0 984 -3 1251 -15 1355 -16 153 -17 715 0 1140 6 149 17 455 26 680
9 226 19 563 24 750 5 243 12 364 24 425 47 249 39 654 -20 980 -18 100 -22
233 -29 1070 -3 344 -8 648 -10 675 -28 302 -51 1453 -34 1735 4 85 13 342 18
570 5 228 12 423 16 433 4 9 8 252 9 540 1 517 2 523 26 622 23 93 24 117 23
335 -1 129 -5 267 -10 305 -8 69 -8 70 -40 73 l-31 3 5 -218z"/>
<path d="M19176 20338 c-3 -79 -6 -314 -5 -523 1 -214 -4 -459 -11 -560 -12
-167 -8 -692 5 -885 40 -549 49 -1041 34 -1870 -6 -393 -10 -832 -8 -975 11
-806 -2 -3532 -17 -3557 -3 -4 -5 -312 -5 -685 0 -675 8 -1026 36 -1493 18
-298 18 -428 1 -675 -10 -138 -12 -336 -8 -720 5 -521 -11 -1429 -28 -1635 -5
-58 -14 -220 -20 -360 -13 -301 -17 -332 -64 -513 -60 -237 -71 -325 -71 -577
1 -174 5 -248 19 -325 23 -128 75 -308 126 -438 21 -56 47 -146 57 -200 16
-92 16 -104 0 -205 -32 -207 -40 -363 -34 -711 3 -185 11 -430 17 -546 12
-233 4 -667 -30 -1545 -11 -278 -22 -693 -26 -922 l-7 -418 40 0 41 0 6 237
c6 212 19 540 57 1523 12 314 6 991 -10 1165 -16 166 -13 856 4 1035 8 85 18
216 22 291 6 129 5 139 -21 217 -16 46 -50 124 -76 175 -114 216 -142 445 -94
776 8 57 37 212 64 345 36 184 50 274 55 381 4 77 11 183 16 235 18 192 39
1169 37 1785 0 347 1 702 3 790 2 88 4 378 3 645 0 430 -3 510 -23 705 -32
313 -37 647 -16 1100 9 204 15 474 13 600 -2 127 -1 552 2 945 8 1081 3 5135
-7 5550 -4 206 -4 476 1 620 5 140 8 401 6 580 -2 179 -4 427 -4 553 l-1 227
-36 0 -36 0 -7 -142z"/>
<path d="M19384 20433 c15 -138 18 -903 18 -4833 -1 -3902 -2 -4312 -17 -4485
-21 -246 -22 -532 -2 -770 41 -484 54 -1093 29 -1357 -8 -84 -8 -238 -1 -545
11 -490 -3 -1798 -23 -2083 -17 -239 -17 -1234 0 -1395 6 -66 14 -217 17 -335
3 -118 10 -299 17 -402 10 -165 9 -206 -6 -335 -15 -125 -17 -212 -14 -563 3
-228 11 -577 18 -774 15 -379 8 -693 -25 -1146 -39 -539 -75 -1360 -61 -1396
3 -8 16 -14 29 -14 l24 0 7 293 c8 347 18 572 49 1042 20 312 22 414 18 935
-9 1507 -7 1715 13 1850 26 166 25 289 -1 500 -12 96 -28 243 -34 325 -17 204
-17 903 -1 1565 8 300 15 1072 17 1715 1 644 6 1242 10 1330 8 190 -7 529 -35
775 -25 220 -26 487 -3 831 17 261 19 505 17 1654 -1 314 1 755 5 980 3 226 3
624 0 885 -4 261 -10 1521 -13 2800 -4 1279 -9 2477 -13 2663 -6 321 -7 337
-25 337 -16 0 -18 -6 -14 -47z"/>
<path d="M19626 19508 c-3 -535 -9 -1027 -11 -1093 -7 -159 -24 -641 -35 -995
-9 -283 -11 -492 -3 -435 2 17 17 109 33 205 16 96 32 204 35 240 4 36 7 737
9 1558 1 1109 -1 1492 -10 1492 -8 0 -13 -257 -18 -972z"/>
<path d="M19948 19228 c3 -1506 -5 -1927 -42 -2174 -24 -157 -27 -214 -35
-660 -4 -269 -6 -730 -4 -1024 l5 -535 -43 -215 c-36 -182 -43 -233 -42 -335
0 -119 0 -121 47 -245 171 -451 202 -693 120 -925 -51 -141 -53 -168 -65 -640
-14 -563 -7 -975 26 -1555 3 -52 5 -558 5 -1125 0 -566 5 -1533 11 -2148 11
-1075 1 -2415 -18 -2607 -4 -36 -7 -321 -7 -635 -1 -534 13 -941 41 -1275 4
-47 8 -445 8 -885 1 -593 4 -833 14 -929 18 -172 9 -618 -18 -911 -12 -121
-24 -262 -28 -312 l-6 -93 30 0 c27 0 32 4 36 33 24 136 39 965 29 1562 -3
129 3 278 17 463 32 422 29 519 -39 1087 -70 594 -76 864 -25 1155 41 235 48
611 39 2050 -5 679 -9 1910 -9 2735 -1 825 -4 1559 -8 1630 -19 347 -42 1473
-42 2020 1 233 1 242 27 320 37 110 48 181 48 304 0 134 -18 246 -80 491 -65
263 -90 394 -97 525 -5 100 -3 119 20 200 79 268 70 124 77 1310 l5 1060 27
155 c17 98 31 237 39 380 15 263 18 856 5 1220 -21 633 -24 773 -20 1215 2
259 6 491 10 518 l7 47 -34 0 -34 0 3 -1252z"/>
<path d="M20213 19613 c3 -842 3 -871 24 -968 57 -267 55 -612 -7 -1023 -24
-155 -23 -116 -41 -1866 -6 -588 -15 -1083 -20 -1100 -21 -71 -50 -274 -50
-349 -1 -45 11 -156 25 -247 13 -91 30 -218 37 -283 14 -148 6 -502 -14 -612
-11 -60 -17 -202 -22 -570 -7 -482 -4 -574 30 -1065 23 -339 28 -797 33 -3580
3 -1653 5 -3122 6 -3265 0 -227 -3 -276 -22 -385 -34 -190 -35 -238 -13 -760
37 -858 46 -1357 32 -1910 -19 -798 -24 -1283 -16 -1463 l7 -167 30 0 c23 0
28 4 24 18 -22 82 -23 909 -1 1322 47 854 47 1392 0 2290 -20 388 -19 468 10
635 58 329 58 333 46 670 -6 171 -14 373 -16 450 -3 77 -7 176 -10 220 -3 44
-7 226 -10 405 -3 179 -8 375 -10 435 -12 294 -13 1906 -3 2765 14 1152 1
2000 -40 2635 -4 61 -4 182 -1 270 4 88 10 372 14 630 5 325 11 496 21 554 21
128 17 347 -12 632 -21 213 -25 281 -19 419 3 91 8 460 10 820 3 618 10 980
36 1755 9 273 15 354 35 470 116 651 121 1018 19 1385 -21 75 -25 122 -35 385
-11 314 -30 1063 -30 1223 0 92 0 92 -25 92 l-26 0 4 -867z"/>
<path d="M20444 19858 c4 -370 12 -690 20 -788 12 -155 13 -117 14 623 l2 787
-21 0 -21 0 6 -622z"/>
<path d="M5652 19313 c-15 -86 -17 -575 -2 -803 18 -286 40 -702 42 -790 l1
-85 6 70 c10 103 -5 731 -25 1028 -10 157 -15 335 -12 453 2 107 3 194 3 194
0 0 -6 -30 -13 -67z"/>
<path d="M20467 17313 c-25 -591 -39 -1391 -37 -2053 6 -1491 5 -2854 -4
-3140 -6 -203 -5 -340 3 -440 42 -551 44 -595 31 -880 -9 -226 -9 -343 3 -655
13 -349 14 -70 16 3473 0 2118 -1 3852 -2 3852 -2 0 -7 -71 -10 -157z"/>
<path d="M5680 16976 c0 -18 -13 -114 -30 -212 -45 -269 -52 -371 -44 -609 4
-115 8 -1139 9 -2275 0 -1915 2 -2089 20 -2395 16 -275 19 -467 20 -1145 1
-702 3 -844 19 -1025 19 -217 18 -372 -3 -620 -20 -242 -31 -557 -29 -820 5
-491 3 -539 -32 -676 -84 -335 -78 -680 17 -941 36 -102 41 -192 31 -583 -11
-403 -4 -1225 13 -1625 9 -198 12 -664 11 -1530 -1 -1157 -5 -1383 -32 -1890
-5 -96 -10 -277 -10 -402 l0 -228 30 0 30 0 0 198 c0 201 6 465 15 651 23 489
36 2785 18 3011 -4 47 -7 627 -8 1290 -1 891 -5 1242 -14 1345 -9 99 -11 203
-5 355 4 118 8 571 9 1005 0 491 6 918 15 1128 12 293 12 369 -1 565 -10 162
-14 442 -15 977 0 718 -1 765 -27 1110 -36 476 -45 768 -52 1760 -7 881 5
1982 29 2680 22 637 29 935 22 935 -3 0 -6 -15 -6 -34z"/>
<path d="M6675 15925 c3 -253 10 -530 17 -615 6 -85 12 -280 13 -432 0 -336
16 -347 26 -18 7 230 2 414 -26 900 -9 151 -20 354 -25 450 -6 133 -8 64 -5
-285z"/>
<path d="M16565 15895 c2 -253 10 -530 17 -615 7 -85 13 -276 13 -425 0 -244
1 -265 13 -215 17 74 10 745 -12 1080 -9 135 -21 333 -25 440 -8 157 -9 104
-6 -265z"/>
<path d="M9665 16321 c-3 -5 -1 -12 5 -16 5 -3 10 1 10 9 0 18 -6 21 -15 7z"/>
<path d="M19551 16284 c0 -11 3 -14 6 -6 3 7 2 16 -1 19 -3 4 -6 -2 -5 -13z"/>
<path d="M12076 16098 c7 -448 15 -712 25 -843 6 -77 11 -257 11 -400 0 -253
0 -258 15 -195 12 54 14 129 9 430 -3 201 -12 466 -20 590 -8 124 -18 312 -22
418 -4 105 -10 192 -14 192 -3 0 -5 -87 -4 -192z"/>
<path d="M9667 16267 c-9 -23 0 -548 15 -837 6 -118 14 -352 17 -520 5 -241 8
-294 16 -255 16 82 11 671 -9 990 -9 160 -20 369 -24 465 -4 96 -10 167 -15
157z"/>
<path d="M19555 15915 c3 -192 11 -444 18 -560 6 -115 12 -337 12 -492 0 -256
1 -278 14 -235 20 71 19 669 -2 987 -10 138 -20 333 -24 435 -3 102 -10 192
-15 200 -6 9 -7 -118 -3 -335z"/>
<path d="M9681 14285 c-1 -142 15 -358 44 -587 29 -231 30 -276 9 -406 -15
-90 -15 -105 2 -214 9 -65 21 -118 26 -118 4 0 8 31 8 70 0 38 9 116 20 172
33 168 25 275 -45 687 -20 118 -43 278 -50 355 l-13 141 -1 -100z"/>
<path d="M19571 14245 c-1 -147 14 -338 45 -575 29 -215 28 -296 -5 -415 -10
-38 -21 -90 -25 -115 -3 -25 -11 -475 -17 -1000 -12 -996 -9 -1227 28 -1815 8
-143 16 -406 17 -585 1 -317 0 -328 -26 -463 -34 -168 -35 -252 -7 -458 20
-149 21 -166 8 -529 -9 -266 -10 -553 -4 -990 4 -338 8 -633 10 -655 1 -22 8
-296 15 -610 17 -757 11 -1028 -28 -1335 -46 -357 -54 -483 -42 -688 5 -97 14
-301 20 -452 16 -404 36 -630 76 -865 39 -225 36 -362 -17 -710 -30 -195 -31
-213 -40 -735 -9 -504 -7 -862 7 -1133 6 -107 8 -117 26 -117 19 0 19 7 11
358 -11 468 -8 1014 6 1210 15 199 46 449 77 621 35 190 35 372 0 547 -113
568 -132 1187 -65 2144 37 547 37 775 -6 1800 -26 615 -19 1188 19 1635 13
156 10 245 -18 485 -28 233 -29 302 -6 550 39 439 38 727 -6 1405 -23 345 -29
1054 -15 1700 l13 570 28 95 c49 163 55 215 42 357 -7 69 -32 248 -57 397 -25
149 -49 318 -53 376 l-9 105 -2 -110z"/>
<path d="M12094 14185 c8 -186 28 -395 56 -584 21 -147 18 -210 -21 -360 -19
-69 -21 -126 -30 -636 -14 -744 -6 -1872 14 -2205 24 -396 29 -510 29 -725 1
-183 -2 -216 -32 -385 -35 -202 -36 -271 -5 -470 15 -92 20 -399 9 -465 -8
-44 -8 -1279 0 -1495 3 -102 11 -431 17 -731 13 -682 11 -704 -78 -841 -61
-92 -107 -200 -129 -300 -35 -155 -14 -464 41 -601 36 -90 63 -111 30 -24
-123 327 -93 668 81 927 108 160 134 279 115 528 -7 86 -14 252 -16 367 -2
116 -11 397 -20 625 -20 494 -16 1059 11 1350 23 243 21 425 -5 639 -27 216
-28 335 -4 571 24 253 25 939 0 1283 -40 565 -45 1183 -17 2097 10 302 10 306
41 400 56 171 53 278 -21 715 -21 127 -44 284 -50 349 -6 66 -13 122 -17 125
-3 4 -3 -66 1 -154z"/>
<path d="M16575 14200 c9 -194 33 -443 56 -605 23 -154 22 -180 -17 -347 -24
-105 -24 -122 -35 -780 -14 -877 -7 -1662 19 -2133 40 -708 39 -820 -10 -1070
-27 -134 -28 -274 -3 -435 22 -147 22 -202 8 -735 -12 -438 -9 -786 16 -1815
27 -1120 26 -1188 -23 -1580 -42 -325 -49 -434 -42 -605 3 -88 10 -281 16
-430 17 -462 40 -725 82 -960 34 -186 31 -407 -11 -685 -18 -118 -35 -269 -39
-335 -10 -171 -8 -1591 2 -1642 6 -32 13 -43 27 -43 18 0 19 9 12 213 -5 116
-8 457 -8 757 1 643 15 828 95 1270 29 154 23 348 -15 535 -107 531 -123 1182
-54 2185 19 273 21 359 16 810 -4 278 -13 642 -21 810 -34 691 -30 1262 10
1679 18 186 15 292 -16 551 -24 197 -25 321 -5 537 39 421 39 754 0 1333 -36
544 -40 992 -14 1979 10 384 10 385 39 480 43 139 51 208 40 320 -14 138 -18
165 -56 387 -19 111 -41 263 -49 339 -8 76 -17 140 -21 144 -3 3 -3 -55 1
-129z"/>
<path d="M6695 14125 c3 -110 15 -258 30 -380 41 -311 41 -323 10 -455 -25
-105 -28 -142 -36 -415 -12 -381 -16 -2046 -7 -2185 24 -335 40 -711 42 -965
1 -278 0 -296 -26 -435 -34 -176 -35 -276 -7 -489 19 -146 20 -173 10 -422
-16 -380 -14 -1119 5 -1804 9 -324 17 -819 17 -1100 l2 -510 -32 -240 c-51
-381 -57 -489 -45 -730 7 -115 14 -295 17 -400 12 -366 34 -612 82 -910 23
-143 25 -178 20 -325 -4 -111 -17 -229 -38 -360 -30 -192 -31 -203 -41 -730
-9 -504 -5 -1002 9 -1187 5 -73 8 -83 25 -83 18 0 19 9 11 278 -14 483 -9
1173 11 1377 21 224 40 372 72 543 33 184 33 355 -1 529 -66 341 -94 627 -102
1048 -6 328 5 696 33 1070 22 305 35 692 30 870 -3 88 -8 259 -11 380 -3 121
-10 312 -16 425 -32 675 -30 1323 7 1710 18 193 14 383 -11 555 -28 194 -29
331 -4 590 29 304 31 798 6 1180 -10 138 -22 336 -27 440 -13 252 -13 1075 1
1610 l11 430 28 95 c48 159 54 203 41 338 -12 119 -31 246 -70 477 -12 66 -28
174 -36 240 l-14 120 4 -180z"/>
<path d="M9776 12780 c3 -30 19 -154 35 -275 16 -121 33 -251 38 -290 8 -66 9
-67 10 -20 2 73 -16 247 -45 435 -25 169 -47 254 -38 150z"/>
<path d="M9390 12518 c0 -3 35 -78 79 -167 43 -88 98 -212 121 -276 24 -63 45
-113 47 -111 10 10 -42 187 -76 261 -55 118 -171 317 -171 293z"/>
<path d="M9827 11985 c-12 -120 -35 -215 -67 -278 -25 -51 -27 -57 -9 -41 31
28 76 123 86 180 5 27 6 85 3 129 l-6 80 -7 -70z"/>
<path d="M9636 11865 c-35 -151 -69 -206 -191 -314 -38 -33 -44 -42 -25 -36
139 42 201 88 225 168 16 53 18 130 5 182 l-7 30 -7 -30z"/>
<path d="M9730 11606 c-48 -63 -106 -113 -187 -162 -69 -42 -50 -44 33 -5 82
39 139 92 175 163 16 32 28 58 25 58 -2 0 -22 -24 -46 -54z"/>
<path d="M9528 11360 c-200 -19 -396 -123 -491 -261 -20 -30 -48 -85 -61 -124
-22 -63 -25 -67 -29 -40 -2 17 -3 6 -1 -22 2 -29 1 -53 -4 -53 -13 0 3 -101
27 -162 27 -69 96 -166 137 -192 25 -16 23 -12 -12 25 -51 53 -58 67 -79 149
-42 160 -38 260 16 368 72 147 253 261 456 287 61 8 136 -2 127 -17 -3 -5 2
-8 12 -7 33 5 108 -13 146 -34 47 -26 114 -113 147 -192 23 -53 26 -74 26
-185 0 -106 -6 -154 -38 -315 -54 -267 -94 -387 -189 -565 -22 -42 -30 -64
-18 -50 25 30 133 248 150 305 7 22 16 44 21 49 24 26 -53 -193 -115 -328 -59
-129 -31 -100 33 35 62 128 121 307 121 365 0 18 5 36 10 39 14 9 12 -28 -5
-110 -20 -95 -17 -105 6 -20 26 95 57 283 70 411 16 177 -11 355 -67 430 -13
17 -26 43 -29 56 -11 44 -64 96 -128 127 -73 36 -122 42 -239 31z"/>
<path d="M9445 11306 c-27 -7 -63 -20 -80 -30 -32 -19 -27 -18 52 8 28 9 80
21 115 25 63 8 63 8 13 9 -27 0 -72 -5 -100 -12z"/>
<path d="M9578 11243 c-39 -6 -35 -20 9 -28 82 -15 168 -78 198 -145 10 -22
21 -40 25 -40 9 0 -3 61 -20 104 -15 41 -12 51 9 32 31 -28 80 -130 95 -198
l14 -63 1 46 c2 102 -57 219 -134 264 -46 28 -132 40 -197 28z"/>
<path d="M9184 11190 c-28 -16 -64 -44 -79 -62 -36 -42 -82 -142 -90 -193 -5
-38 -5 -37 16 15 33 83 87 158 157 217 71 60 70 66 -4 23z"/>
<path d="M9475 11096 c-149 -47 -221 -130 -196 -223 18 -62 28 -69 34 -25 11
90 108 180 217 203 64 14 151 0 182 -27 10 -10 21 -14 25 -11 10 11 -48 68
-84 83 -40 17 -124 17 -178 0z"/>
<path d="M9626 10958 c-11 -80 -56 -267 -67 -274 -5 -3 -9 9 -9 26 0 56 -50
120 -94 120 -21 0 -126 -43 -126 -52 0 -11 96 -78 129 -89 17 -6 31 -17 31
-23 0 -28 -47 -82 -90 -103 -62 -32 -118 -29 -225 12 -14 6 -13 2 7 -14 34
-28 101 -51 153 -53 51 -2 102 23 155 75 37 37 41 39 36 17 -13 -48 54 75 115
213 l62 138 -28 29 c-16 17 -32 30 -36 30 -3 0 -10 -24 -13 -52z"/>
<path d="M9750 10988 c0 -2 7 -25 15 -52 8 -27 15 -66 15 -87 0 -21 5 -41 10
-44 15 -9 12 100 -4 139 -11 27 -36 58 -36 44z"/>
<path d="M9733 10800 c0 -30 2 -43 4 -27 2 15 2 39 0 55 -2 15 -4 2 -4 -28z"/>
<path d="M9816 10813 c-3 -10 -10 -48 -17 -85 -11 -67 -30 -98 -21 -35 3 17 2
30 0 27 -14 -14 -198 -414 -196 -422 4 -11 94 115 123 171 10 20 20 29 24 23
4 -6 21 30 39 81 33 94 68 245 59 254 -3 2 -8 -4 -11 -14z"/>
<path d="M8841 10777 c-2 -83 56 -288 96 -341 15 -20 15 -20 8 -1 -30 85 -59
186 -79 275 -18 75 -25 94 -25 67z"/>
<path d="M9015 10748 c15 -49 105 -161 105 -131 0 6 -7 16 -15 23 -9 7 -32 39
-52 71 -38 63 -48 73 -38 37z"/>
<path d="M8692 10700 c0 -19 2 -27 5 -17 2 9 2 25 0 35 -3 9 -5 1 -5 -18z"/>
<path d="M9721 10704 c0 -11 3 -14 6 -6 3 7 2 16 -1 19 -3 4 -6 -2 -5 -13z"/>
<path d="M8700 10629 c0 -13 5 -31 10 -39 7 -11 8 -5 4 20 -8 43 -14 51 -14
19z"/>
<path d="M9617 10468 c-58 -99 -179 -259 -207 -273 -43 -22 -57 -19 -34 8 48
54 49 52 -39 52 -64 0 -91 5 -123 22 -53 28 -125 102 -155 159 -54 100 -35 19
27 -125 13 -29 24 -56 24 -59 0 -4 -27 20 -60 53 -33 33 -60 54 -60 48 0 -22
119 -139 160 -158 46 -21 54 -38 12 -26 -100 29 -194 114 -243 221 -40 85 -49
85 -15 0 76 -187 195 -289 347 -298 70 -4 82 -2 128 23 81 44 132 108 206 255
65 129 83 184 32 98z"/>
<path d="M9184 10456 c11 -9 24 -16 30 -16 12 0 7 5 -24 19 -24 11 -24 11 -6
-3z"/>
<path d="M9822 10373 c-6 -15 -23 -59 -37 -98 -36 -97 -87 -188 -152 -268 -57
-71 -76 -82 -48 -28 8 17 12 31 8 31 -5 0 -56 -49 -114 -110 -166 -172 -213
-182 -366 -78 -24 16 -43 27 -43 24 0 -3 20 -28 45 -56 25 -28 43 -55 40 -60
-3 -5 9 -19 27 -31 18 -12 27 -16 21 -9 -23 24 -14 30 45 30 50 1 105 15 177
45 20 9 20 9 1 -20 -21 -34 79 72 173 184 110 132 192 279 225 406 16 64 15
83 -2 38z"/>
<path d="M9564 10173 c-38 -60 -88 -132 -112 -160 -23 -29 -38 -53 -34 -53 18
0 110 107 150 175 39 67 76 145 69 145 -2 0 -35 -48 -73 -107z"/>
<path d="M8825 10230 c4 -14 25 -63 46 -109 21 -46 39 -86 39 -89 0 -3 -15 8
-32 25 -43 39 -79 63 -97 63 -12 0 -13 -53 -8 -367 3 -203 11 -460 18 -573 16
-289 7 -788 -17 -950 -13 -85 -18 -173 -17 -275 5 -544 5 -1497 -1 -1530 -4
-22 -11 -458 -16 -970 -5 -511 -15 -1168 -22 -1460 -15 -651 -15 -1111 1
-1355 6 -102 16 -259 21 -350 6 -91 16 -210 22 -265 7 -55 12 -181 11 -280 -1
-382 -13 -987 -23 -1128 -6 -81 -10 -253 -10 -382 l0 -235 23 0 24 0 7 218 c3
119 10 298 15 397 6 99 11 353 11 565 1 212 5 426 10 475 10 119 -12 547 -52
990 -39 423 -44 788 -15 959 15 84 18 198 22 765 11 1343 14 1601 26 1836 15
273 16 1222 3 1510 -7 139 -6 222 3 310 54 507 65 653 70 942 7 398 -14 625
-82 896 -14 54 -25 100 -25 103 0 4 26 -20 57 -51 69 -69 147 -122 231 -158
54 -23 61 -24 53 -9 -6 10 -17 25 -26 32 -24 20 -75 96 -75 112 0 7 -21 44
-46 82 -26 38 -71 117 -101 175 -30 58 -52 95 -48 81z"/>
<path d="M9515 10205 c-29 -37 -84 -84 -154 -132 -2 -2 -2 -5 0 -7 7 -7 101
43 127 67 27 25 77 106 70 113 -3 2 -22 -16 -43 -41z"/>
<path d="M8940 10235 c0 -3 11 -28 25 -56 53 -103 136 -168 216 -169 42 0 139
29 139 42 0 4 -29 8 -64 8 -53 0 -75 6 -136 36 -43 22 -94 58 -126 90 -30 30
-54 52 -54 49z"/>
<path d="M9845 10083 c-3 -15 -29 -73 -56 -129 -37 -76 -50 -113 -50 -150 -1
-27 -8 -119 -15 -205 -28 -313 -34 -692 -29 -1759 3 -586 7 -1083 10 -1105 10
-113 27 -1194 23 -1485 -5 -302 -8 -358 -37 -570 -42 -314 -46 -416 -32 -810
22 -631 50 -975 98 -1220 29 -146 22 -349 -22 -645 l-37 -250 -9 -535 c-4
-306 -4 -666 2 -840 5 -168 9 -322 9 -342 0 -33 3 -38 24 -38 l24 0 -5 118
c-39 951 -14 1618 79 2082 31 151 31 376 0 520 -54 256 -86 543 -102 916 -15
331 -4 715 41 1384 19 274 21 369 15 725 -3 226 -10 505 -15 621 -34 756 -39
1440 -11 1709 8 77 10 311 5 790 -8 824 -3 889 80 1153 15 46 24 86 22 88 -3
3 -8 -8 -12 -23z"/>
<path d="M9591 9806 c-49 -81 -119 -261 -151 -389 -60 -237 -77 -429 -85 -957
-6 -363 -18 -620 -35 -735 -5 -33 -14 -249 -20 -480 -6 -231 -15 -465 -20
-520 -5 -55 -14 -224 -21 -375 -11 -262 -13 -281 -46 -400 -83 -304 -111 -615
-79 -867 25 -198 52 -297 159 -598 42 -116 53 -210 39 -318 -36 -266 -44 -401
-38 -717 2 -173 10 -400 16 -505 10 -169 7 -819 -5 -995 -2 -30 -7 -140 -10
-245 -3 -104 -10 -300 -15 -435 -12 -307 -30 -973 -30 -1142 l0 -128 39 0 39
0 6 73 c3 39 8 207 11 372 3 165 9 390 15 500 5 110 12 263 15 340 3 77 8 185
10 240 27 535 25 1075 -5 1420 -18 201 -12 794 10 1050 26 307 26 381 -4 476
-13 42 -40 106 -60 142 -89 158 -126 317 -126 534 0 169 13 267 81 608 43 217
51 275 59 440 5 105 14 231 19 280 6 50 15 329 21 620 6 292 15 594 21 672 5
79 14 380 19 670 9 541 15 632 51 858 31 199 95 430 146 528 26 51 8 38 -26
-17z"/>
<path d="M9664 9815 c-32 -49 -80 -346 -104 -645 -6 -69 -15 -442 -20 -830 -5
-388 -11 -808 -14 -935 -3 -126 -8 -390 -11 -585 -4 -195 -11 -420 -16 -500
-13 -190 -20 -1156 -9 -1240 14 -103 28 -366 41 -740 8 -271 8 -362 -2 -425
-17 -109 -23 -765 -9 -980 6 -93 13 -330 17 -525 6 -376 0 -550 -42 -1190 -36
-537 -45 -745 -45 -996 l0 -224 28 0 27 0 3 248 c3 318 31 939 67 1485 10 144
7 846 -4 1062 -6 110 -11 405 -11 655 0 431 1 465 26 660 28 225 28 253 -5
535 -11 94 -25 240 -31 325 -15 206 -21 817 -10 1110 16 467 20 692 25 1715 6
1184 10 1367 31 1555 16 143 55 356 79 436 17 57 13 66 -11 29z"/>
<path d="M9300 9583 c-65 -88 -127 -213 -140 -283 -6 -30 -8 -83 -5 -118 11
-125 -20 -338 -100 -697 -73 -327 -83 -452 -58 -735 22 -259 24 -875 5 -1620
-7 -261 -15 -880 -18 -1375 -5 -747 -8 -913 -21 -975 -21 -106 -28 -400 -14
-556 7 -71 31 -246 53 -389 35 -230 40 -280 40 -430 0 -120 -7 -211 -22 -310
-20 -138 -21 -150 -9 -775 11 -610 7 -841 -18 -1232 l-6 -88 32 0 31 0 1 153
c0 83 2 172 4 197 22 262 29 1161 10 1355 -18 183 -15 294 10 463 36 248 34
320 -19 602 -65 347 -80 468 -80 675 0 129 5 207 18 275 21 117 24 166 36 715
6 242 17 737 26 1100 18 727 15 1723 -6 2139 -18 345 0 561 85 1056 36 210 54
334 75 515 18 161 39 232 89 305 33 48 63 100 57 100 -3 0 -29 -30 -56 -67z"/>
<path d="M20470 9498 c0 -24 -9 -117 -20 -208 -27 -231 -42 -453 -36 -530 7
-84 21 -898 20 -1150 0 -107 -2 -359 -4 -560 -3 -459 7 -1256 21 -1590 6 -140
14 -343 18 -450 4 -107 8 868 9 2168 1 1299 0 2362 -3 2362 -3 0 -5 -19 -5
-42z"/>
<path d="M12652 5455 c-10 -18 -84 -73 -157 -118 -57 -33 -141 -127 -115 -127
16 0 90 48 132 86 101 90 229 115 320 61 25 -14 69 -52 98 -83 l52 -58 -17 40
c-43 103 -107 169 -185 192 -63 18 -119 21 -128 7z"/>
<path d="M13000 5164 c0 -19 89 -324 100 -342 10 -14 10 -13 5 8 -3 14 -14 63
-24 110 -26 114 -80 265 -81 224z"/>
<path d="M13022 4517 c-2 -131 -16 -227 -47 -322 -13 -38 -22 -71 -20 -73 4
-5 45 101 61 159 19 69 28 240 16 299 -8 39 -9 31 -10 -63z"/>
<path d="M20465 4078 c-4 -250 -3 -556 2 -703 9 -236 10 -195 11 443 1 386 0
702 -2 702 -2 0 -7 -199 -11 -442z"/>
<path d="M12795 4275 c-91 -90 -178 -145 -280 -178 l-70 -22 80 -3 c55 -2 103
4 155 17 41 11 76 18 78 16 7 -7 -30 -67 -66 -108 -34 -38 -31 -36 46 22 46
35 92 76 102 93 24 39 42 132 38 193 l-3 50 -80 -80z"/>
<path d="M12068 4224 c6 -12 34 -42 63 -68 48 -43 76 -56 159 -71 28 -5 24 -1
-21 18 -71 30 -124 62 -173 107 -27 24 -36 29 -28 14z"/>
<path d="M13072 4076 c-100 -210 -95 -181 -87 -501 8 -340 28 -676 56 -930 17
-153 20 -222 15 -350 -7 -183 -42 -432 -85 -609 -96 -395 -104 -669 -41 -1401
26 -300 23 -285 60 -285 30 0 30 1 30 54 0 30 -9 159 -20 288 -50 598 -47 917
11 1198 11 52 31 169 44 260 51 350 59 440 59 670 1 198 -3 246 -27 400 -49
309 -49 315 -43 706 l6 371 30 74 c32 77 64 178 58 184 -1 1 -31 -56 -66 -129z"/>
<path d="M12923 3963 c-23 -32 -51 -67 -63 -78 -13 -11 -48 -53 -79 -93 -123
-161 -149 -220 -158 -363 -7 -113 7 -211 68 -451 l49 -197 0 -533 c0 -293 -5
-706 -10 -918 -5 -212 -10 -598 -10 -857 l0 -473 30 0 c29 0 31 2 26 33 -11
67 -16 328 -17 792 0 435 1 495 21 645 19 147 22 230 27 755 5 553 4 604 -17
810 -25 258 -36 528 -26 638 8 75 10 80 60 140 60 71 154 207 143 207 -2 0
-22 -26 -44 -57z"/>
<path d="M12769 3874 c-13 -15 -56 -48 -95 -74 -156 -106 -239 -227 -268 -390
-5 -28 -1 -22 23 28 49 103 117 196 196 270 41 38 97 97 126 131 51 62 62 83
18 35z"/>
<path d="M12423 3801 c-285 -200 -364 -504 -298 -1146 l14 -130 -4 190 c-13
572 80 885 327 1093 68 57 47 53 -39 -7z"/>
<path d="M12370 3235 c-23 -110 -18 -414 9 -595 26 -166 33 -233 61 -560 20
-237 43 -481 59 -620 5 -49 9 120 10 485 1 612 3 578 -65 932 -19 100 -40 238
-47 305 l-13 123 -14 -70z"/>
<path d="M3680 2899 c0 -63 -53 -208 -135 -371 -77 -154 -97 -211 -164 -468
-95 -368 -117 -526 -105 -728 14 -231 6 -1014 -11 -1152 -8 -63 -15 -129 -15
-147 l0 -33 65 0 65 0 0 98 c0 91 -21 808 -36 1222 -8 228 3 309 86 647 75
302 96 367 175 523 77 151 96 205 102 292 6 74 -3 158 -18 158 -5 0 -9 -18 -9
-41z"/>
<path d="M2667 2085 c-14 -14 -14 -20 -1 -68 9 -28 33 -97 55 -152 73 -190
109 -344 129 -557 9 -97 29 -890 30 -1205 l0 -103 30 0 30 0 0 358 c-1 499
-15 956 -34 1080 -25 159 -51 267 -100 408 -90 258 -102 277 -139 239z"/>
<path d="M20472 1795 c-1 -12 -14 -66 -28 -120 -91 -351 -103 -692 -44 -1335
34 -377 28 -340 56 -340 l24 0 0 160 c0 88 -8 254 -17 368 -23 287 -23 685 0
862 12 92 17 181 15 280 -2 80 -5 136 -6 125z"/>
<path d="M12138 720 c-12 -186 -25 -642 -20 -682 3 -27 9 -38 21 -38 15 0 16
31 13 342 -1 189 -3 377 -5 418 -2 69 -3 66 -9 -40z"/>
<path d="M12506 635 c-4 -49 -11 -111 -16 -137 -8 -41 -16 -118 -46 -436 l-6
-62 30 0 c26 0 31 4 35 33 14 83 28 499 20 592 l-9 100 -8 -90z"/>
</g>
</svg>
