<?xml version="1.0" standalone="no"?>
<!DOCTYPE svg PUBLIC "-//W3C//DTD SVG 20010904//EN"
 "http://www.w3.org/TR/2001/REC-SVG-20010904/DTD/svg10.dtd">
<svg version="1.0" xmlns="http://www.w3.org/2000/svg"
 width="2332.000000pt" height="2332.000000pt" viewBox="0 0 2332.000000 2332.000000"
 preserveAspectRatio="xMidYMid meet">

<g transform="translate(0.000000,2332.000000) scale(0.100000,-0.100000)"
fill="#000000" stroke="none">
<path d="M12 20189 l3 -3130 105 -39 c386 -144 771 -411 1055 -730 426 -479
670 -907 785 -1376 17 -69 29 -133 27 -142 -4 -13 -5 -12 -6 4 -2 43 -81 302
-124 409 -112 279 -257 516 -488 798 -356 434 -616 658 -984 848 -106 55 -348
159 -370 159 -3 0 -5 -1428 -5 -3173 l0 -3174 86 -52 c146 -90 284 -200 430
-346 255 -253 449 -532 592 -851 50 -110 132 -335 132 -357 -1 -7 -16 29 -34
78 -140 385 -379 763 -667 1055 -137 139 -248 231 -405 336 l-129 86 -3 -2288
c-1 -1258 -1 -2289 1 -2290 1 -2 73 32 158 75 159 79 363 154 519 190 490 112
1036 80 1534 -91 342 -117 596 -267 807 -477 222 -222 362 -474 478 -861 45
-149 111 -424 110 -455 0 -11 -18 52 -40 139 -71 288 -143 494 -237 682 -218
435 -577 730 -1109 914 -732 253 -1531 202 -2140 -139 l-83 -46 0 -2812 c0
-1547 2 -2813 4 -2813 1 0 54 24 117 54 630 297 1531 358 2219 149 284 -86
606 -256 849 -449 l84 -66 948 -2 c522 0 949 2 949 6 0 17 124 189 181 251
176 193 448 346 750 423 153 38 282 54 451 54 376 1 624 -93 900 -342 91 -82
228 -237 289 -328 l44 -65 519 2 519 1 32 104 c165 538 541 1000 1146 1406
413 277 873 462 1269 511 108 14 341 14 450 1 313 -39 667 -164 953 -337 302
-184 559 -382 772 -597 279 -281 383 -473 486 -895 22 -91 42 -173 44 -181 4
-13 63 -15 449 -15 l445 0 27 75 c163 457 543 886 996 1124 651 342 1396 221
2007 -323 85 -76 229 -241 316 -362 85 -118 205 -323 251 -427 l39 -89 2196 1
2196 2 59 50 c74 65 199 154 286 206 l68 40 0 2815 0 2814 -61 -42 c-185 -125
-384 -314 -516 -489 -208 -278 -369 -630 -443 -970 -17 -79 -19 -85 -14 -35
24 243 184 652 361 924 164 252 391 485 611 626 l61 40 -2 2310 -2 2310 -75
37 c-41 20 -129 55 -195 77 -633 211 -1271 48 -1865 -475 -129 -113 -308 -295
-382 -389 -130 -164 -242 -362 -318 -560 -17 -44 -28 -66 -24 -50 23 115 141
364 244 515 132 192 385 457 605 633 208 167 475 318 685 386 188 62 282 76
515 75 190 0 222 -2 336 -27 142 -30 264 -70 388 -128 46 -21 85 -39 87 -39 2
0 4 1426 4 3170 l0 3169 -67 20 c-108 31 -179 48 -308 73 -106 20 -148 23
-370 22 -278 -1 -431 -18 -664 -75 -368 -90 -752 -283 -1031 -517 -280 -235
-546 -572 -724 -921 -127 -248 -170 -407 -217 -801 -15 -127 -17 -138 -13 -60
28 520 134 826 445 1285 424 625 1046 1014 1811 1131 63 10 202 18 358 21 231
5 267 3 385 -17 108 -18 274 -56 373 -86 l22 -6 0 3126 0 3126 -172 0 -173 0
-215 -187 c-246 -213 -445 -405 -531 -512 -210 -258 -370 -644 -448 -1076 -5
-27 -9 -40 -10 -28 -3 59 62 342 116 508 119 365 275 617 540 875 157 154 154
151 448 412 5 4 -1788 7 -3985 6 l-3994 -3 -18 -70 c-23 -90 -58 -285 -59
-338 -2 -34 -3 -36 -6 -13 -6 40 14 211 38 321 10 49 19 93 19 97 0 4 -198 8
-441 8 -389 0 -440 -2 -435 -15 9 -24 54 -291 67 -400 18 -151 16 -428 -6
-570 -39 -265 -132 -571 -240 -790 -264 -535 -683 -894 -1438 -1233 -791 -355
-1469 -345 -2187 34 -461 244 -853 626 -1097 1069 -302 548 -408 1224 -284
1818 l18 87 -508 0 c-280 0 -509 -2 -509 -5 0 -3 16 -42 35 -88 37 -90 85
-249 84 -276 0 -9 -11 22 -24 69 -27 98 -63 198 -94 258 l-21 42 -1304 0
-1303 0 -42 -90 c-24 -49 -56 -129 -72 -177 -15 -48 -28 -80 -29 -71 0 28 50
178 86 257 19 41 34 75 34 77 0 2 -417 4 -926 4 l-927 0 86 -81 c231 -215 457
-523 627 -852 77 -150 185 -395 178 -403 -3 -2 -15 22 -28 54 -71 175 -226
453 -345 622 -152 215 -376 459 -552 603 l-70 57 -1597 0 -1596 0 2 -3131z
m18515 3089 c-3 -8 -6 -5 -6 6 -1 11 2 17 5 13 3 -3 4 -12 1 -19z m-13490
-350 c-3 -7 -5 -2 -5 12 0 14 2 19 5 13 2 -7 2 -19 0 -25z m2900 -20 c-3 -8
-6 -5 -6 6 -1 11 2 17 5 13 3 -3 4 -12 1 -19z m-2910 -30 c-3 -7 -5 -2 -5 12
0 14 2 19 5 13 2 -7 2 -19 0 -25z m2920 -20 c-3 -8 -6 -5 -6 6 -1 11 2 17 5
13 3 -3 4 -12 1 -19z m-2930 -40 c-3 -7 -5 -2 -5 12 0 14 2 19 5 13 2 -7 2
-19 0 -25z m2940 -20 c-3 -8 -6 -5 -6 6 -1 11 2 17 5 13 3 -3 4 -12 1 -19z
m-3737 -863 c0 -5 -5 -3 -10 5 -5 8 -10 20 -10 25 0 6 5 3 10 -5 5 -8 10 -19
10 -25z m17547 -492 c-3 -10 -5 -2 -5 17 0 19 2 27 5 18 2 -10 2 -26 0 -35z
m-10 -85 c-2 -13 -4 -5 -4 17 -1 22 1 32 4 23 2 -10 2 -28 0 -40z m-10 -115
c-2 -16 -4 -3 -4 27 0 30 2 43 4 28 2 -16 2 -40 0 -55z m-10 -280 c-1 -43 -3
-8 -3 77 0 85 2 120 3 78 2 -43 2 -113 0 -155z m-2070 163 c564 -120 975 -451
1256 -1012 84 -169 229 -556 213 -571 -3 -4 -6 -1 -6 6 0 23 -103 297 -155
412 -345 766 -944 1163 -1750 1162 -384 0 -694 -74 -1051 -249 -518 -253 -928
-675 -1124 -1156 -13 -32 -25 -56 -27 -54 -7 6 62 167 121 284 237 471 654
830 1226 1055 176 69 262 93 431 121 210 35 202 34 489 31 230 -3 267 -5 377
-29z m-11422 -401 c384 -80 766 -323 1130 -722 179 -195 325 -386 410 -538 39
-68 26 -55 -33 35 -112 172 -333 432 -505 596 -221 210 -430 360 -649 464
-202 96 -338 129 -564 137 -644 23 -1128 -207 -1556 -739 -101 -126 -205 -285
-279 -430 -60 -119 -140 -314 -154 -378 -5 -19 -10 -30 -12 -23 -8 21 75 252
136 379 76 157 155 291 250 419 377 510 796 761 1361 815 134 12 369 5 465
-15z m6005 -691 c251 -28 510 -84 725 -157 773 -263 1229 -753 1360 -1462 14
-75 25 -146 24 -158 0 -12 -11 32 -24 98 -43 220 -94 368 -188 548 -312 598
-979 976 -1907 1082 -156 17 -447 20 -570 4 -681 -84 -1235 -501 -1579 -1188
-67 -132 -96 -201 -158 -376 -29 -82 -50 -134 -47 -115 4 19 26 92 50 161 230
673 615 1148 1134 1398 350 169 702 218 1180 165z m2751 -445 c-11 -30 -20
-49 -20 -43 -1 15 30 106 35 101 2 -2 -5 -28 -15 -58z m-10974 -501 c-3 -8 -6
-5 -6 6 -1 11 2 17 5 13 3 -3 4 -12 1 -19z m-10 -40 c-3 -8 -6 -5 -6 6 -1 11
2 17 5 13 3 -3 4 -12 1 -19z m-10 -50 c-3 -8 -6 -5 -6 6 -1 11 2 17 5 13 3 -3
4 -12 1 -19z m-10 -50 c-3 -8 -6 -5 -6 6 -1 11 2 17 5 13 3 -3 4 -12 1 -19z
m-10 -60 c-3 -8 -6 -5 -6 6 -1 11 2 17 5 13 3 -3 4 -12 1 -19z m4020 -410 c-3
-7 -5 -2 -5 12 0 14 2 19 5 13 2 -7 2 -19 0 -25z m1867 -242 c-3 -15 -8 -25
-11 -23 -2 3 -1 17 3 31 3 15 8 25 11 23 2 -3 1 -17 -3 -31z m4493 -53 c-3
-10 -5 -4 -5 12 0 17 2 24 5 18 2 -7 2 -21 0 -30z m-4520 -45 c-3 -8 -6 -5 -6
6 -1 11 2 17 5 13 3 -3 4 -12 1 -19z m4530 -45 c-3 -10 -5 -4 -5 12 0 17 2 24
5 18 2 -7 2 -21 0 -30z m-4550 -45 c-3 -8 -6 -5 -6 6 -1 11 2 17 5 13 3 -3 4
-12 1 -19z m4560 -60 c-3 -8 -6 -5 -6 6 -1 11 2 17 5 13 3 -3 4 -12 1 -19z
m-6371 -1769 c454 -44 858 -207 1215 -490 332 -263 958 -1076 1127 -1464 122
-282 186 -754 153 -1135 -29 -333 -115 -694 -224 -939 -173 -390 -411 -690
-822 -1033 -457 -381 -910 -586 -1445 -654 -195 -24 -511 -16 -710 19 -543 96
-1039 358 -1451 768 -53 52 -123 131 -155 175 -57 76 -209 357 -216 399 -1 11
-6 22 -9 25 -4 3 -32 56 -64 119 -31 63 -68 132 -81 153 -21 34 -23 42 -12 56
11 15 11 15 -3 5 -13 -11 -24 2 -74 84 -86 141 -171 313 -200 405 -54 170 -59
228 -59 683 0 437 6 548 45 740 81 399 306 805 637 1147 248 255 488 433 814
603 400 208 694 297 1108 338 82 8 325 6 426 -4z m5664 -1412 c202 -47 378
-126 578 -261 339 -225 541 -435 632 -652 32 -76 115 -382 107 -390 -2 -3 -10
16 -16 42 -51 203 -133 386 -235 529 -201 278 -566 540 -916 657 -161 54 -221
63 -435 63 -184 0 -209 -2 -307 -27 -214 -55 -430 -148 -625 -272 -399 -252
-635 -520 -764 -866 -15 -41 -28 -69 -29 -62 0 7 16 54 35 104 117 303 299
526 620 764 251 185 558 328 810 378 126 24 131 25 290 21 114 -3 175 -10 255
-28z m-13683 -89 c-3 -7 -5 -2 -5 12 0 14 2 19 5 13 2 -7 2 -19 0 -25z m10
-50 c-3 -8 -6 -5 -6 6 -1 11 2 17 5 13 3 -3 4 -12 1 -19z m10 -60 c-3 -8 -6
-5 -6 6 -1 11 2 17 5 13 3 -3 4 -12 1 -19z m17900 -35 c-3 -10 -5 -2 -5 17 0
19 2 27 5 18 2 -10 2 -26 0 -35z m-6260 -1085 c-3 -8 -6 -5 -6 6 -1 11 2 17 5
13 3 -3 4 -12 1 -19z m-30 -160 c-3 -8 -6 -5 -6 6 -1 11 2 17 5 13 3 -3 4 -12
1 -19z m-8917 -163 c823 -174 1424 -830 1680 -1832 43 -169 36 -174 -10 -8
-142 517 -370 934 -685 1251 -299 300 -620 470 -1035 546 -158 29 -498 31
-675 4 -397 -61 -797 -212 -1139 -430 -536 -344 -888 -827 -1010 -1391 -30
-136 -33 -114 -5 32 42 222 153 496 281 695 119 187 309 397 488 541 300 242
722 455 1084 547 129 33 204 47 391 74 17 2 138 3 270 1 214 -3 253 -6 365
-30z m-2903 -2032 c-3 -10 -5 -2 -5 17 0 19 2 27 5 18 2 -10 2 -26 0 -35z
m4620 25 c-3 -8 -6 -5 -6 6 -1 11 2 17 5 13 3 -3 4 -12 1 -19z m10 -60 c-3 -8
-6 -5 -6 6 -1 11 2 17 5 13 3 -3 4 -12 1 -19z m-4640 -75 c-3 -10 -5 -4 -5 12
0 17 2 24 5 18 2 -7 2 -21 0 -30z m4650 15 c-3 -8 -6 -5 -6 6 -1 11 2 17 5 13
3 -3 4 -12 1 -19z m7738 -209 c654 -62 1267 -306 1746 -695 443 -359 766 -825
959 -1380 75 -218 163 -596 147 -635 -3 -8 -6 -3 -6 10 -3 94 -92 428 -166
626 -272 725 -784 1302 -1462 1647 -344 176 -673 278 -1093 340 -221 32 -598
32 -810 -1 -369 -56 -661 -150 -983 -313 -768 -391 -1343 -1089 -1583 -1921
-35 -121 -83 -343 -85 -388 0 -13 -3 -18 -6 -11 -7 17 23 191 57 338 131 555
422 1076 830 1484 512 511 1187 831 1900 899 217 21 332 21 555 0z m-12916
-1859 c0 -9 -4 -8 -9 5 -5 11 -9 27 -9 35 0 9 4 8 9 -5 5 -11 9 -27 9 -35z m8
-42 c-3 -8 -6 -5 -6 6 -1 11 2 17 5 13 3 -3 4 -12 1 -19z m15770 -875 c-3 -10
-5 -2 -5 17 0 19 2 27 5 18 2 -10 2 -26 0 -35z m-6210 -20 c-3 -10 -5 -2 -5
17 0 19 2 27 5 18 2 -10 2 -26 0 -35z m6220 -75 c-2 -13 -4 -5 -4 17 -1 22 1
32 4 23 2 -10 2 -28 0 -40z m-6230 -25 c-3 -10 -5 -4 -5 12 0 17 2 24 5 18 2
-7 2 -21 0 -30z m-5501 -48 c88 -15 290 -73 282 -80 -2 -2 -39 7 -82 20 -207
64 -473 73 -668 22 -369 -96 -716 -372 -1005 -799 -193 -285 -271 -542 -260
-853 8 -218 50 -382 151 -586 79 -158 162 -277 342 -489 36 -43 32 -40 -21 15
-258 268 -422 561 -486 868 -31 145 -31 371 0 514 51 244 164 463 371 723 285
358 622 582 969 644 103 19 299 19 407 1z m404 -125 c8 -5 11 -10 5 -10 -5 0
-17 5 -25 10 -8 5 -10 10 -5 10 6 0 17 -5 25 -10z m3412 -1560 c259 -25 665
-130 918 -237 441 -188 751 -499 936 -940 48 -113 94 -271 93 -313 0 -14 -7 2
-14 35 -48 217 -187 487 -351 685 -260 314 -570 488 -1114 625 -309 78 -433
97 -620 98 -183 1 -271 -10 -438 -54 -313 -82 -573 -233 -831 -484 -253 -246
-423 -521 -548 -890 -24 -71 -41 -114 -37 -95 29 163 190 530 310 706 399 590
1056 925 1696 864z m-4936 -1192 l29 -33 -32 29 c-31 28 -38 36 -30 36 2 0 16
-15 33 -32z m6891 -380 c-2 -13 -4 -5 -4 17 -1 22 1 32 4 23 2 -10 2 -28 0
-40z m-3970 -60 c-3 -8 -6 -5 -6 6 -1 11 2 17 5 13 3 -3 4 -12 1 -19z m3980
-90 c-2 -18 -4 -6 -4 27 0 33 2 48 4 33 2 -15 2 -42 0 -60z m-3990 40 c-3 -8
-6 -5 -6 6 -1 11 2 17 5 13 3 -3 4 -12 1 -19z m-3490 -185 c-3 -10 -5 -4 -5
12 0 17 2 24 5 18 2 -7 2 -21 0 -30z m18650 -40 c-3 -10 -5 -4 -5 12 0 17 2
24 5 18 2 -7 2 -21 0 -30z m-18640 -15 c-3 -7 -5 -2 -5 12 0 14 2 19 5 13 2
-7 2 -19 0 -25z m10 -70 c-3 -7 -5 -2 -5 12 0 14 2 19 5 13 2 -7 2 -19 0 -25z
m18620 -15 c-3 -10 -5 -4 -5 12 0 17 2 24 5 18 2 -7 2 -21 0 -30z m-18610 -75
c-3 -7 -5 -2 -5 12 0 14 2 19 5 13 2 -7 2 -19 0 -25z m13578 2 c103 -10 218
-30 212 -36 -2 -2 -51 3 -108 12 -260 40 -511 -14 -704 -151 -210 -149 -427
-513 -464 -778 -20 -145 20 -431 83 -597 47 -122 50 -133 16 -62 -33 68 -70
187 -97 315 -25 116 -25 375 0 472 25 96 123 296 197 405 70 102 219 248 303
299 108 64 240 107 372 121 39 4 75 8 80 8 6 1 55 -3 110 -8z m252 -46 c-3 -3
-12 -4 -19 -1 -8 3 -5 6 6 6 11 1 17 -2 13 -5z m40 -10 c-3 -3 -12 -4 -19 -1
-8 3 -5 6 6 6 11 1 17 -2 13 -5z m-12045 -99 c182 -32 554 -165 714 -256 45
-26 109 -75 154 -119 42 -41 49 -50 16 -19 -111 102 -226 162 -469 247 -230
81 -401 123 -528 129 -315 16 -592 -98 -834 -342 -120 -120 -183 -213 -275
-400 -122 -248 -171 -438 -174 -675 0 -80 2 -176 6 -215 5 -54 4 -62 -3 -35
-6 19 -13 112 -16 205 -4 144 -2 189 16 293 62 366 271 745 523 946 263 211
564 295 870 241z m9234 -206 c139 -24 269 -81 419 -183 103 -70 335 -296 435
-424 263 -337 340 -652 244 -1012 -76 -288 -221 -494 -461 -653 -101 -68 -261
-149 -275 -141 -4 3 -8 1 -8 -3 0 -11 -60 -34 -71 -27 -5 3 -9 1 -9 -4 0 -5
-9 -12 -20 -15 -11 -3 -20 -1 -20 3 0 9 36 24 60 25 8 1 14 6 13 11 -1 6 3 11
10 12 45 6 57 9 63 15 4 4 16 7 26 7 11 0 16 4 13 10 -3 5 1 10 11 10 14 0 15
2 3 18 -12 15 -12 16 2 5 12 -10 20 -9 37 3 12 8 22 12 22 7 1 -4 8 3 16 17 8
14 13 17 10 8 -3 -12 -1 -15 9 -11 8 3 12 10 8 16 -3 5 -1 7 4 4 6 -4 19 4 28
17 10 13 24 22 32 19 8 -3 11 0 8 9 -4 9 9 22 35 37 22 12 40 30 40 39 0 15 2
15 10 2 8 -13 10 -12 10 3 0 11 4 15 12 11 8 -5 9 -2 5 10 -5 12 -3 16 5 14
14 -5 38 15 38 30 0 16 41 62 51 57 5 -4 9 1 9 9 0 9 10 26 23 39 12 12 22 26
22 30 0 4 7 12 15 17 8 5 11 10 7 10 -5 0 2 15 15 32 26 37 98 193 98 214 0 8
5 14 12 14 6 0 9 3 6 6 -4 3 -2 20 3 37 6 18 12 43 15 56 3 14 8 29 11 35 4 6
8 26 9 46 1 19 5 78 9 130 4 52 6 101 6 108 -1 6 -3 30 -5 52 -2 22 -4 41 -5
43 -6 6 -13 56 -14 98 -1 26 -5 45 -8 43 -10 -6 -20 26 -13 38 4 6 -1 17 -11
25 -11 7 -13 13 -7 13 7 0 12 7 12 15 0 8 -6 14 -12 12 -8 -1 -13 9 -14 26 -1
16 -7 33 -15 38 -12 7 -12 9 0 9 10 0 4 11 -15 31 -18 19 -22 28 -11 24 10 -4
17 -3 17 4 0 6 -7 11 -15 11 -8 0 -15 5 -15 11 0 5 -4 7 -10 4 -5 -3 -7 0 -4
9 3 8 -11 40 -31 71 -82 123 -355 401 -383 390 -7 -3 -10 -1 -7 5 7 11 -49 42
-60 32 -5 -4 -5 -1 -1 6 4 6 2 12 -4 12 -6 0 -9 4 -6 9 9 14 -20 21 -33 8 -8
-8 -11 -8 -11 1 0 7 -7 12 -15 12 -9 0 -18 6 -20 13 -3 6 -17 13 -31 14 -14 0
-31 6 -37 12 -7 7 -4 9 12 6 12 -2 19 0 16 5 -5 8 -43 5 -74 -6 -11 -4 -12 -2
-1 11 7 9 9 15 4 14 -5 -1 -11 0 -14 1 -3 1 -12 3 -20 5 -8 2 -26 7 -40 10
-14 3 -43 9 -65 11 -22 3 -47 8 -55 11 -8 4 -23 5 -34 4 -10 -2 -15 2 -12 7 4
7 -61 9 -182 8 -171 -2 -194 -5 -275 -29 -111 -34 -238 -91 -299 -135 -27 -19
-48 -31 -48 -27 0 4 -12 -4 -26 -18 -15 -15 -31 -24 -37 -20 -6 3 -7 1 -3 -5
4 -7 1 -12 -9 -12 -9 0 -14 -4 -10 -9 7 -12 -50 -53 -59 -43 -4 4 -6 0 -4 -8
2 -8 -3 -14 -9 -12 -7 1 -13 -3 -13 -9 0 -6 -14 -25 -32 -42 -18 -18 -28 -26
-23 -18 5 10 4 12 -4 7 -6 -4 -9 -11 -6 -16 7 -12 -39 -57 -53 -52 -7 2 -9 -5
-7 -17 2 -12 0 -21 -4 -21 -16 0 -48 -36 -43 -49 3 -8 0 -11 -6 -7 -12 7 -25
-22 -15 -36 3 -6 2 -8 -4 -5 -5 3 -16 -10 -23 -29 -8 -19 -20 -40 -26 -45 -7
-6 -10 -18 -7 -26 4 -9 2 -14 -3 -11 -5 3 -15 0 -22 -8 -7 -8 -9 -14 -3 -14
12 0 8 -24 -7 -43 -7 -8 -15 -26 -17 -38 -8 -39 -27 -79 -35 -74 -5 3 -6 -5
-3 -16 4 -15 0 -27 -13 -37 -17 -13 -17 -14 -1 -8 10 3 16 2 14 -2 -19 -35
-20 -39 -38 -204 -45 -406 124 -780 476 -1053 217 -168 429 -244 653 -232 63
3 92 1 92 -7 0 -6 4 -5 9 3 11 18 41 23 41 8 0 -8 3 -8 11 0 8 8 20 8 35 3 16
-6 24 -6 24 1 0 6 4 8 9 5 11 -7 42 4 37 13 -2 3 20 5 49 4 40 -1 55 3 59 14
5 12 9 13 21 3 12 -10 15 -10 15 0 0 8 3 10 7 7 3 -4 12 -2 20 4 10 9 13 8 13
-4 0 -16 -150 -62 -305 -93 -112 -23 -320 -23 -405 -1 -91 25 -249 104 -355
179 -115 81 -328 292 -387 383 -137 212 -192 401 -191 655 0 324 123 635 364
925 238 285 522 421 890 424 58 1 132 -4 165 -10z m5989 -329 c285 -24 539
-121 808 -310 193 -136 464 -433 614 -675 101 -163 190 -351 208 -440 3 -16
-10 11 -29 62 -91 247 -308 564 -542 795 -177 175 -328 285 -519 378 -225 111
-414 154 -660 153 -352 -2 -731 -92 -1025 -245 -406 -210 -680 -537 -835 -993
-51 -150 -59 -154 -15 -7 82 277 221 520 405 711 334 346 791 529 1450 579 11
1 74 -3 140 -8z m-4385 -1010 c6 -11 8 -20 6 -20 -3 0 -10 9 -16 20 -6 11 -8
20 -6 20 3 0 10 -9 16 -20z m-12213 -202 c-3 -8 -6 -5 -6 6 -1 11 2 17 5 13 3
-3 4 -12 1 -19z m10 -40 c-3 -8 -6 -5 -6 6 -1 11 2 17 5 13 3 -3 4 -12 1 -19z
m9304 -13 c5 4 6 -1 2 -10 -5 -13 -7 -14 -14 -3 -5 7 -8 18 -8 23 0 6 3 4 6
-3 2 -6 9 -10 14 -7z m-9271 -70 c0 -5 -5 -3 -10 5 -5 8 -10 20 -10 25 0 6 5
3 10 -5 5 -8 10 -19 10 -25z m39 -90 c0 -5 -8 6 -19 25 -11 19 -19 40 -19 45
0 6 8 -6 19 -25 11 -19 19 -39 19 -45z m14488 -7 c-3 -8 -6 -5 -6 6 -1 11 2
17 5 13 3 -3 4 -12 1 -19z m-14469 -33 c-3 -3 -9 2 -12 12 -6 14 -5 15 5 6 7
-7 10 -15 7 -18z m14459 -7 c-3 -8 -6 -5 -6 6 -1 11 2 17 5 13 3 -3 4 -12 1
-19z m-5163 -44 c3 -8 2 -12 -4 -9 -6 3 -10 10 -10 16 0 14 7 11 14 -7z m5153
-6 c-3 -8 -6 -5 -6 6 -1 11 2 17 5 13 3 -3 4 -12 1 -19z m3710 -30 c-3 -8 -6
-5 -6 6 -1 11 2 17 5 13 3 -3 4 -12 1 -19z m-8824 -28 c9 -11 13 -20 7 -20 -5
0 -14 9 -20 20 -6 11 -9 20 -8 20 2 0 11 -9 21 -20z m59 -87 c-7 -9 -17 -1
-35 29 l-21 33 29 -30 c16 -16 28 -31 27 -32z m43 -45 c5 4 5 1 1 -6 -6 -10
-11 -10 -22 -1 -8 6 -14 14 -14 16 0 3 6 0 13 -6 8 -6 18 -7 22 -3z m22 -39
c2 -16 -1 -19 -9 -11 -5 5 -7 15 -4 21 10 15 12 14 13 -10z m143 -150 c0 -6
-4 -7 -10 -4 -5 3 -10 11 -10 16 0 6 5 7 10 4 6 -3 10 -11 10 -16z m43 -30
l22 -21 -22 11 c-12 6 -25 16 -28 21 -11 17 5 11 28 -11z m52 -39 c10 -11 16
-20 13 -20 -3 0 -13 9 -23 20 -10 11 -16 20 -13 20 3 0 13 -9 23 -20z m45 -30
c0 -5 -2 -10 -4 -10 -3 0 -8 5 -11 10 -3 6 -1 10 4 10 6 0 11 -4 11 -10z m65
-40 c3 -6 -1 -7 -9 -4 -18 7 -21 14 -7 14 6 0 13 -4 16 -10z m120 -60 c3 -6
-1 -7 -9 -4 -18 7 -21 14 -7 14 6 0 13 -4 16 -10z m57 -18 c8 -8 9 -12 1 -12
-18 0 -43 12 -43 20 0 12 28 6 42 -8z m63 -22 c17 -3 19 -10 4 -10 -9 0 -24 7
-35 16 -19 15 -19 15 1 6 11 -6 25 -11 30 -12z m60 -10 c3 -5 -1 -10 -9 -10
-8 0 -18 5 -21 10 -3 6 1 10 9 10 8 0 18 -4 21 -10z"/>
<path d="M9610 15967 c0 -10 -8 -14 -25 -12 -14 1 -25 -3 -25 -9 0 -6 -5 -4
-10 4 -6 9 -10 11 -10 3 0 -7 -6 -10 -14 -7 -8 3 -17 1 -21 -5 -3 -6 -14 -11
-23 -11 -15 0 -15 2 -2 11 11 7 6 8 -19 4 -23 -5 -36 -3 -42 6 -7 11 -9 10 -9
-3 0 -10 -10 -23 -22 -29 -21 -11 -22 -11 -9 4 13 16 2 25 -13 10 -7 -7 -28
-11 -89 -17 -21 -2 -47 -12 -58 -22 -18 -16 -19 -16 -19 7 -1 22 -2 23 -14 7
-7 -10 -25 -18 -40 -18 -19 0 -25 -4 -20 -12 5 -10 4 -10 -6 -1 -11 10 -16 9
-26 -5 -10 -14 -15 -15 -26 -4 -11 11 -10 12 7 7 18 -6 19 -6 2 5 -20 13 -47
-2 -47 -24 0 -6 5 -4 11 4 9 13 10 13 7 0 -3 -8 -13 -15 -24 -16 -55 -2 -65
-5 -59 -14 6 -9 -27 -15 -68 -12 -11 1 -16 -2 -11 -10 4 -7 3 -8 -5 -4 -7 5
-20 -1 -30 -13 -10 -11 -21 -18 -24 -14 -4 3 1 12 11 19 9 7 12 14 6 14 -6 0
-20 -11 -32 -25 -14 -16 -32 -25 -51 -25 -17 0 -33 -4 -36 -10 -3 -5 -15 -10
-26 -10 -10 0 -19 -5 -19 -11 0 -6 -6 -9 -14 -6 -19 8 -28 -3 -15 -19 8 -9 6
-11 -8 -8 -10 3 -36 -4 -58 -15 -29 -14 -42 -16 -47 -8 -5 8 -8 6 -8 -6 0 -10
-4 -15 -10 -12 -14 9 -12 -8 3 -24 6 -8 0 -6 -16 4 -22 14 -26 15 -22 3 4 -11
-2 -17 -22 -21 -15 -3 -41 -18 -57 -33 -23 -22 -30 -24 -38 -13 -8 11 -9 10
-4 -3 3 -10 1 -18 -5 -18 -6 0 -7 -5 -4 -10 4 -6 11 -7 17 -4 7 5 8 2 4 -5 -6
-9 -12 -8 -25 4 -17 14 -19 13 -36 -9 -11 -14 -22 -23 -27 -20 -4 3 -8 0 -8
-7 0 -6 -8 -9 -20 -6 -25 6 -26 -10 -2 -37 l17 -21 -24 20 c-17 14 -25 16 -28
8 -3 -7 -10 -13 -17 -13 -7 0 -22 -11 -32 -25 -17 -23 -53 -37 -39 -15 3 6 -1
7 -10 4 -11 -5 -13 -10 -5 -19 8 -9 6 -15 -7 -20 -10 -5 -22 -7 -28 -6 -5 1
-1 -8 10 -21 19 -21 19 -22 1 -8 -15 12 -20 12 -23 3 -3 -7 -11 -13 -19 -13
-9 0 -13 -4 -10 -9 4 -5 -2 -7 -13 -4 -10 3 -22 0 -25 -6 -5 -7 0 -9 11 -5 10
3 6 -2 -9 -10 -15 -9 -29 -25 -33 -35 -4 -13 -13 -18 -30 -16 -20 2 -23 -1
-15 -11 8 -9 3 -17 -19 -30 -17 -10 -31 -22 -31 -26 0 -4 -7 -8 -15 -8 -8 0
-15 -5 -15 -11 0 -5 5 -7 10 -4 6 3 10 3 10 0 0 -3 -16 -13 -35 -21 -19 -8
-34 -18 -33 -22 2 -10 -20 -62 -27 -62 -4 0 -3 5 1 12 5 7 3 8 -5 4 -7 -5 -10
-10 -7 -13 6 -6 -11 -23 -39 -39 -10 -6 -21 -17 -24 -25 -3 -10 -1 -11 10 -4
8 6 3 -1 -11 -14 -14 -13 -18 -20 -10 -15 8 4 5 -4 -8 -18 -12 -13 -19 -28
-15 -33 5 -4 2 -5 -5 -1 -7 4 -10 11 -7 16 3 4 -5 6 -17 2 -12 -3 -17 -7 -10
-10 15 -5 16 -38 2 -47 -6 -4 -7 -11 -4 -17 4 -7 2 -8 -5 -4 -9 6 -9 11 -1 21
8 9 7 14 -3 18 -9 3 -13 -2 -12 -16 1 -12 -5 -31 -14 -41 -13 -16 -13 -18 -1
-11 13 8 13 6 1 -8 -7 -9 -17 -14 -22 -11 -5 3 -6 -1 -3 -9 7 -19 -22 -47 -49
-48 -17 -1 -18 -2 -4 -6 23 -6 22 -17 -5 -37 -13 -9 -17 -14 -9 -10 9 5 12 3
7 -4 -4 -7 -14 -12 -21 -12 -8 0 -19 -10 -26 -21 -9 -17 -8 -20 3 -13 7 4 4
-3 -7 -16 -11 -13 -13 -20 -6 -15 9 5 5 -5 -7 -22 -12 -17 -22 -35 -22 -41 0
-5 -7 -15 -15 -22 -21 -18 -19 -3 6 31 11 16 16 29 10 29 -11 0 -41 -55 -47
-88 -3 -17 -1 -21 8 -16 14 9 -17 -45 -36 -61 -6 -5 -11 -16 -12 -22 -4 -46
-4 -48 -13 -35 -7 11 -9 10 -15 -3 -3 -9 -10 -13 -16 -10 -6 4 -7 -1 -3 -10 4
-12 8 -13 13 -5 5 9 9 9 14 1 4 -6 2 -11 -4 -11 -6 0 -8 -4 -5 -10 4 -6 -1 -7
-12 -3 -16 6 -16 5 -5 -10 8 -9 10 -22 6 -29 -4 -7 -9 -24 -10 -37 -2 -14 -11
-31 -20 -38 -11 -8 -13 -13 -5 -13 7 0 10 -4 6 -10 -3 -5 -12 -7 -20 -3 -8 3
-15 0 -15 -7 0 -6 4 -9 9 -5 5 3 12 1 16 -5 3 -5 -1 -10 -9 -10 -8 0 -18 -5
-21 -10 -4 -6 -3 -10 2 -9 22 4 25 -3 7 -17 -10 -8 -13 -13 -6 -9 14 7 16 -4
2 -25 -8 -12 -10 -12 -10 -1 0 8 -3 12 -6 8 -3 -3 -2 -13 4 -23 6 -11 5 -25
-4 -42 -7 -13 -10 -30 -8 -37 3 -7 -2 -15 -10 -18 -11 -4 -16 -19 -16 -46 0
-22 -7 -60 -15 -85 -8 -24 -15 -59 -15 -78 0 -18 -5 -67 -11 -108 -7 -43 -13
-193 -14 -353 -1 -257 8 -387 27 -387 4 0 8 -15 8 -32 0 -39 24 -163 38 -198
5 -14 13 -49 17 -77 4 -29 10 -53 14 -53 8 0 31 -59 31 -79 0 -7 6 -27 14 -44
29 -67 45 -115 39 -121 -4 -3 -1 -6 5 -6 7 0 12 -7 12 -16 0 -9 5 -13 13 -9 6
4 4 0 -6 -8 -17 -14 -16 -15 3 -20 11 -3 19 -9 18 -14 -1 -4 4 -19 11 -32 7
-13 11 -36 9 -52 -3 -16 -2 -27 0 -24 2 2 13 -6 24 -18 11 -12 16 -16 12 -8
-4 9 -3 12 4 8 5 -4 9 -15 8 -24 -2 -9 4 -24 13 -33 35 -37 55 -66 82 -117 38
-72 54 -94 63 -86 4 4 4 0 0 -10 -3 -9 -11 -14 -18 -10 -8 4 -8 2 1 -7 6 -7 9
-20 6 -29 -4 -13 -3 -14 5 -1 6 8 8 19 5 25 -3 5 10 -7 30 -28 19 -20 38 -44
41 -52 3 -9 12 -12 23 -9 15 5 16 4 3 -5 -13 -10 -12 -14 5 -29 11 -9 33 -35
49 -56 16 -21 48 -59 72 -85 30 -32 39 -48 31 -54 -8 -6 -7 -7 4 -4 22 7 77
-48 57 -57 -7 -3 -4 -4 7 -3 13 2 19 9 17 21 -2 12 1 15 8 11 7 -4 9 -16 7
-27 -3 -11 0 -21 9 -25 8 -3 14 -9 14 -15 0 -5 7 -16 15 -25 13 -13 18 -13 33
-1 16 12 16 11 2 -6 -14 -18 -13 -19 2 -13 12 4 15 2 11 -8 -3 -9 3 -18 13
-22 11 -4 30 -19 44 -33 29 -31 95 -80 107 -80 4 0 14 -9 21 -21 7 -12 16 -19
18 -16 3 3 25 -15 50 -39 28 -26 51 -41 60 -37 8 3 24 -3 35 -13 17 -16 23
-16 42 -5 18 11 20 11 10 0 -15 -15 -17 -33 -4 -25 5 3 11 -1 14 -8 3 -8 1
-16 -6 -19 -6 -2 -4 -6 6 -10 9 -3 16 -3 16 1 -5 30 5 30 34 1 23 -25 40 -34
64 -34 23 1 29 -3 22 -11 -13 -16 12 -36 31 -24 8 6 20 10 25 10 6 0 3 -5 -5
-10 -13 -8 -12 -10 3 -10 9 0 17 -4 17 -9 0 -5 9 -11 20 -14 11 -3 20 -1 20 4
0 4 7 6 15 3 8 -3 14 -9 13 -12 -3 -28 2 -34 19 -21 15 12 16 12 11 -2 -5 -14
-1 -16 27 -14 22 2 34 -1 32 -8 -1 -6 6 -13 15 -15 14 -3 16 1 11 14 -5 14 -2
13 15 -4 12 -12 27 -22 33 -22 7 0 18 -8 26 -17 8 -10 12 -12 8 -5 -3 6 -2 12
4 12 5 0 18 3 28 6 15 5 16 4 3 -6 -12 -10 -11 -11 8 -7 15 4 30 -1 43 -14 11
-11 25 -16 36 -12 12 5 15 2 11 -8 -4 -10 3 -14 26 -14 17 0 37 4 45 9 10 6
12 5 7 -2 -7 -12 40 -29 51 -18 3 3 13 -2 22 -12 9 -9 34 -18 56 -20 22 -2 42
-7 45 -10 7 -10 100 -10 94 0 -3 4 -1 8 5 8 5 0 12 -4 15 -8 10 -16 139 -33
173 -23 21 6 35 6 39 0 3 -6 12 -8 19 -5 9 3 11 -2 8 -17 -4 -17 -2 -19 5 -8
13 18 92 24 92 8 0 -7 5 -5 10 3 5 8 10 12 10 8 0 -4 11 -4 23 1 13 5 30 5 37
1 8 -5 19 -5 25 -1 10 9 126 7 155 -1 8 -3 12 -3 8 -1 -19 11 -5 23 25 23 66
0 192 24 205 39 11 14 11 14 6 -1 -7 -21 -4 -21 30 -8 14 5 26 6 26 1 0 -5 9
-7 21 -4 16 5 18 8 7 15 -9 7 -4 8 14 4 15 -3 37 -2 50 3 13 6 49 17 80 26 46
12 56 19 52 33 -4 11 -3 13 3 5 13 -18 113 -3 113 17 0 4 22 14 50 21 27 7 47
15 46 18 -2 3 3 13 12 21 14 13 15 12 9 -3 -8 -22 1 -22 26 1 11 9 17 12 14 5
-4 -6 -3 -14 3 -18 5 -3 10 1 10 9 0 21 135 87 149 73 8 -8 11 -8 11 1 0 7 8
12 18 13 15 0 15 1 -2 8 -15 6 -10 10 23 21 22 7 41 17 41 22 0 5 5 6 11 2 6
-3 23 5 37 19 36 33 70 50 84 41 7 -4 8 -3 4 4 -4 8 4 16 21 23 15 5 30 13 33
17 7 9 68 52 74 52 2 0 21 16 42 35 20 19 41 35 46 35 4 0 31 23 59 51 40 40
53 49 61 38 6 -10 7 -7 3 10 -4 14 -3 21 2 18 15 -10 55 42 48 61 -5 14 -4 14
6 5 10 -10 25 -1 71 47 32 32 58 64 58 69 0 6 5 11 11 11 5 0 7 5 3 12 -4 6
-3 8 4 4 6 -3 13 -2 17 4 4 6 11 7 17 4 7 -5 8 -2 4 5 -5 7 0 21 10 32 9 10
13 19 8 19 -5 0 6 10 23 21 32 20 36 46 6 35 -8 -3 -11 -1 -8 4 4 6 12 10 18
9 27 -3 47 2 47 12 0 6 10 25 23 42 30 42 45 69 53 90 3 9 12 17 19 17 7 0 16
17 20 37 5 27 9 33 16 22 7 -12 9 -12 9 2 0 8 14 36 30 62 17 26 30 54 30 62
0 8 4 15 9 15 5 0 14 14 21 30 7 17 16 30 20 30 4 0 18 31 30 69 12 38 31 79
41 90 10 11 19 25 19 31 0 17 34 90 43 90 4 0 3 8 -2 18 -7 13 -7 22 0 29 5 5
11 23 12 40 1 17 4 29 6 27 7 -7 51 130 46 143 -2 7 1 18 8 25 7 7 13 36 15
63 1 28 5 57 8 65 4 8 8 29 10 45 2 17 8 51 14 78 5 26 9 51 8 55 -1 4 2 27 6
52 17 107 4 640 -15 640 -5 0 -9 17 -9 38 -1 20 -8 66 -16 102 -8 36 -20 94
-25 130 -6 36 -17 79 -24 95 -21 45 -49 148 -46 165 2 8 -1 12 -5 7 -7 -7 -17
14 -53 116 -9 26 -20 44 -25 40 -4 -4 -7 -1 -5 7 1 8 -3 28 -9 43 -7 16 -12
33 -12 38 0 5 -4 9 -8 9 -10 0 -37 50 -34 63 1 4 -4 7 -10 8 -7 0 -4 4 7 9 19
8 19 9 -2 9 -13 1 -23 7 -23 15 0 7 -7 19 -15 26 -9 7 -13 15 -11 18 3 2 -6
19 -20 37 -25 33 -28 54 -9 67 6 4 -2 8 -16 8 -18 0 -28 6 -32 20 -3 11 -1 18
4 14 5 -3 9 -2 9 3 0 4 -13 14 -29 21 -23 10 -27 18 -24 40 3 23 2 24 -6 7 -8
-17 -10 -18 -10 -2 -1 9 -5 17 -11 17 -5 0 -14 8 -19 18 -8 14 -6 19 5 19 8 0
13 -6 10 -12 -2 -6 2 -12 9 -12 10 0 11 5 5 18 -6 11 -19 16 -35 15 -13 -2
-22 0 -20 5 3 4 2 9 -2 12 -5 2 -2 2 5 1 9 -3 10 1 2 16 -6 11 -13 20 -16 20
-3 0 -2 -5 2 -12 4 -7 3 -8 -5 -4 -6 4 -11 13 -10 19 3 28 -2 39 -16 33 -9 -3
-18 1 -21 9 -4 8 -11 12 -18 8 -6 -4 -4 2 4 12 8 10 10 16 3 12 -6 -4 -14 -3
-18 3 -3 5 -1 10 5 10 6 0 -2 16 -17 35 -16 20 -30 30 -34 23 -4 -6 -15 -2
-30 13 -13 13 -35 33 -50 44 -39 30 -80 82 -82 104 0 11 -4 18 -8 15 -4 -2
-10 3 -13 12 -4 9 -9 14 -13 10 -3 -3 2 -15 12 -26 29 -32 7 -23 -25 10 -17
17 -34 29 -38 26 -4 -2 -9 4 -9 15 -1 10 4 19 10 19 7 0 6 4 -3 10 -8 5 -19
10 -25 10 -5 0 -4 -4 4 -9 7 -5 9 -11 4 -14 -12 -7 -84 59 -75 69 4 4 2 4 -5
1 -6 -4 -17 -1 -25 6 -25 25 -134 97 -146 97 -7 0 -12 3 -12 8 0 4 -13 16 -29
27 -16 10 -27 24 -23 30 3 5 -2 4 -11 -4 -9 -7 -17 -9 -17 -3 0 5 -12 15 -27
21 -48 20 -83 42 -83 52 0 5 -7 9 -16 9 -9 0 -32 9 -51 21 -18 12 -40 18 -48
15 -8 -3 -19 2 -23 11 -6 10 -16 14 -26 10 -10 -4 -15 -3 -11 3 3 6 -1 10 -10
10 -10 0 -15 6 -12 13 3 8 -7 13 -31 14 -19 1 -39 6 -45 12 -5 5 -16 7 -23 4
-8 -3 -14 0 -14 6 0 6 5 11 12 11 6 0 9 3 5 6 -3 3 -12 2 -19 -2 -17 -11 -48
-13 -42 -2 3 4 -4 8 -15 8 -11 0 -22 4 -25 9 -6 10 -76 28 -127 34 -10 1 -15
9 -12 22 2 11 1 14 -3 8 -4 -10 -11 -10 -26 -2 -11 6 -32 13 -46 15 -22 4 -24
2 -12 -7 12 -9 11 -9 -5 -3 -11 4 -34 8 -52 8 -17 1 -30 4 -28 7 2 3 -14 10
-36 16 -25 6 -39 7 -39 0 0 -5 -6 -4 -14 3 -8 6 -23 10 -33 9 -25 -4 -64 11
-58 21 3 5 1 11 -5 15 -5 3 -10 -1 -10 -9 0 -9 -5 -16 -11 -16 -5 0 -7 5 -3
11 4 7 -1 7 -16 -1 -14 -8 -25 -8 -29 -2 -9 14 -55 27 -47 13 9 -14 0 -14 -26
0 -15 8 -19 8 -14 0 4 -6 3 -11 -3 -11 -5 0 -12 3 -14 8 -3 4 -71 6 -151 5
-118 -1 -149 1 -161 14 -13 13 -15 13 -15 0z m820 -102 c0 -12 -19 -12 -23 0
-4 9 -1 12 9 8 7 -3 14 -7 14 -8z m160 -75 c0 -5 -2 -10 -4 -10 -3 0 -8 5 -11
10 -3 6 -1 10 4 10 6 0 11 -4 11 -10z m-2625 -580 c-3 -5 -12 -10 -18 -10 -7
0 -6 4 3 10 19 12 23 12 15 0z m3745 -120 c0 -5 -5 -10 -11 -10 -5 0 -7 5 -4
10 3 6 8 10 11 10 2 0 4 -4 4 -10z m41 -21 c10 -6 5 -8 -16 -8 -16 0 -25 3
-18 5 7 3 9 13 6 22 -4 13 -3 14 5 3 5 -7 16 -17 23 -22z m-3961 -33 c0 -2 -8
-10 -17 -17 -16 -13 -17 -12 -4 4 13 16 21 21 21 13z m4021 -79 c-8 -8 -11 -7
-11 4 0 9 3 19 7 23 4 4 9 2 11 -4 3 -7 -1 -17 -7 -23z m-4401 -2838 c0 -6 -4
-7 -10 -4 -5 3 -10 11 -10 16 0 6 5 7 10 4 6 -3 10 -11 10 -16z m710 -845 c0
-8 -19 -13 -24 -6 -3 5 1 9 9 9 8 0 15 -2 15 -3z m67 -56 c-3 -8 -6 -5 -6 6
-1 11 2 17 5 13 3 -3 4 -12 1 -19z m314 -185 c13 -16 12 -17 -3 -4 -17 13 -22
21 -14 21 2 0 10 -8 17 -17z m2414 -53 c-3 -5 -12 -10 -18 -10 -7 0 -6 4 3 10
19 12 23 12 15 0z m-2325 -30 c0 -5 -2 -10 -4 -10 -3 0 -8 5 -11 10 -3 6 -1
10 4 10 6 0 11 -4 11 -10z m185 -60 c-3 -5 -12 -10 -18 -10 -7 0 -6 4 3 10 19
12 23 12 15 0z"/>
<path d="M9310 15940 c0 -5 5 -10 11 -10 5 0 7 5 4 10 -3 6 -8 10 -11 10 -2 0
-4 -4 -4 -10z"/>
<path d="M10130 15936 c0 -2 7 -7 16 -10 8 -3 12 -2 9 4 -6 10 -25 14 -25 6z"/>
<path d="M11617 15213 c-13 -12 -7 -24 11 -21 9 2 16 -2 15 -8 -1 -6 5 -11 13
-11 10 0 9 7 -8 24 -24 26 -23 25 -31 16z"/>
<path d="M11940 14819 c0 -5 5 -7 10 -4 6 3 10 8 10 11 0 2 -4 4 -10 4 -5 0
-10 -5 -10 -11z"/>
<path d="M12025 14679 c22 -23 21 -23 21 -1 0 11 -8 19 -19 19 -18 2 -18 1 -2
-18z"/>
<path d="M7336 14435 c-3 -8 -1 -15 4 -15 6 0 10 7 10 15 0 8 -2 15 -4 15 -2
0 -6 -7 -10 -15z"/>
<path d="M12170 14440 c-9 -6 -10 -10 -3 -10 6 0 15 5 18 10 8 12 4 12 -15 0z"/>
<path d="M7266 12353 c-6 -14 -5 -15 5 -6 7 7 10 15 7 18 -3 3 -9 -2 -12 -12z"/>
<path d="M7340 12191 c0 -6 4 -12 8 -15 5 -3 9 1 9 9 0 8 -4 15 -9 15 -4 0 -8
-4 -8 -9z"/>
<path d="M7470 11948 c0 -4 7 -8 15 -8 8 0 15 4 15 8 0 5 -7 9 -15 9 -8 0 -15
-4 -15 -9z"/>
<path d="M7490 11924 c0 -3 7 -12 15 -20 13 -13 15 -13 15 -1 0 8 -7 17 -15
21 -8 3 -15 3 -15 0z"/>
<path d="M11090 11016 c0 -2 7 -7 16 -10 8 -3 12 -2 9 4 -6 10 -25 14 -25 6z"/>
<path d="M8955 10800 c-8 -13 9 -20 24 -11 10 6 9 10 -3 14 -8 3 -18 2 -21 -3z"/>
<path d="M10218 10703 c7 -3 16 -2 19 1 4 3 -2 6 -13 5 -11 0 -14 -3 -6 -6z"/>
<path d="M9600 10675 c0 -8 4 -15 10 -15 5 0 7 7 4 15 -4 8 -8 15 -10 15 -2 0
-4 -7 -4 -15z"/>
<path d="M15085 3560 c-3 -5 -1 -10 4 -10 6 0 11 5 11 10 0 6 -2 10 -4 10 -3
0 -8 -4 -11 -10z"/>
<path d="M13453 2925 c0 -8 4 -12 9 -9 5 3 6 10 3 15 -9 13 -12 11 -12 -6z"/>
<path d="M9010 23300 c0 -11 -4 -20 -8 -20 -9 0 -39 -170 -49 -273 -3 -37 -10
-67 -16 -67 -6 0 -7 -29 -3 -79 4 -52 3 -80 -4 -83 -13 -4 14 -420 31 -485 6
-23 9 -56 7 -72 -2 -17 -1 -28 3 -26 4 3 9 -10 12 -28 9 -57 47 -201 62 -234
8 -17 15 -40 15 -50 0 -10 9 -36 20 -58 11 -22 20 -50 20 -63 0 -17 4 -22 14
-19 10 4 13 1 9 -9 -6 -17 45 -134 59 -134 4 0 8 -11 8 -25 0 -14 4 -25 9 -25
5 0 12 -12 16 -27 3 -15 15 -38 25 -52 10 -14 25 -43 33 -63 9 -21 21 -38 26
-38 6 0 11 -4 11 -9 0 -6 14 -30 30 -54 17 -25 30 -49 30 -54 0 -5 11 -20 25
-33 13 -12 22 -27 19 -31 -3 -5 5 -9 18 -9 16 0 19 -3 10 -9 -10 -6 -8 -12 10
-23 13 -9 32 -32 43 -52 11 -20 28 -39 37 -42 11 -3 18 -15 18 -30 0 -13 5
-24 12 -24 16 0 78 -69 78 -86 0 -8 9 -14 20 -14 11 0 20 -4 20 -9 0 -5 15
-19 34 -32 26 -18 32 -27 24 -36 -8 -10 -6 -13 8 -12 35 4 54 -1 54 -12 0 -7
12 -23 28 -37 15 -13 39 -36 54 -50 24 -22 29 -23 45 -11 16 13 17 12 4 -3
-11 -15 -11 -18 0 -19 8 -1 18 -1 22 0 5 1 6 -3 2 -9 -3 -5 -1 -10 5 -10 7 0
9 -7 6 -17 -4 -10 -4 -14 0 -10 8 7 46 -12 118 -62 27 -18 59 -34 72 -35 12 0
20 -5 16 -10 -3 -5 2 -6 12 -3 10 4 15 3 11 -3 -3 -5 12 -18 34 -29 22 -12 42
-25 46 -31 3 -5 15 -10 25 -10 11 0 42 -13 70 -30 28 -16 63 -33 77 -36 25 -7
25 -8 8 -15 -14 -5 -7 -7 22 -7 23 0 61 -9 85 -20 24 -11 62 -23 86 -27 35 -6
41 -9 31 -21 -12 -15 -5 -17 25 -5 12 5 39 0 68 -11 27 -10 57 -18 68 -18 11
0 20 -4 20 -9 0 -6 8 -10 18 -10 45 1 174 -20 186 -30 7 -6 29 -11 47 -11 19
0 148 -2 287 -5 164 -3 278 -1 320 6 37 7 81 12 99 13 17 0 29 4 26 9 -2 4 15
8 39 9 71 3 77 3 84 11 4 4 17 7 29 7 11 0 26 5 32 11 11 11 67 20 128 21 17
1 24 3 18 5 -22 8 -15 32 7 26 10 -3 42 6 70 20 27 14 50 21 50 16 0 -5 12 -2
26 8 25 16 27 16 36 0 11 -21 28 -13 28 14 0 14 7 19 26 19 22 0 25 4 21 21
-4 16 -3 18 8 9 10 -8 15 -8 20 0 4 6 13 9 21 6 8 -3 14 -1 14 5 0 6 4 8 9 5
5 -3 12 1 15 9 5 13 10 14 27 5 19 -11 20 -10 9 10 -9 16 -9 20 -1 15 7 -3 27
2 45 13 30 18 34 18 44 3 10 -15 11 -15 6 0 -3 10 0 20 7 25 8 5 10 3 5 -7 -4
-8 2 -3 13 11 11 14 21 21 21 16 0 -5 10 0 23 12 13 12 27 19 30 15 4 -3 7 0
7 8 0 21 51 43 63 26 6 -8 7 -7 4 5 -7 19 37 53 55 42 7 -4 8 -3 4 4 -5 8 1
12 14 12 12 0 18 5 15 10 -3 6 -1 10 4 10 6 0 11 7 11 15 0 8 11 17 25 21 14
3 25 12 25 20 0 8 4 14 9 14 6 0 22 11 37 25 15 14 33 25 40 25 8 0 14 7 14
15 0 8 12 22 28 32 15 10 32 24 38 32 6 8 16 11 23 7 8 -6 11 -2 9 10 -2 11 2
18 10 17 6 -2 12 3 12 10 0 6 36 50 80 97 61 65 78 90 74 105 -4 11 -3 17 2
12 8 -8 74 50 74 65 0 5 11 21 25 36 14 15 28 37 31 50 4 12 10 22 14 22 11 0
57 80 66 114 5 20 9 24 15 14 7 -10 9 -10 9 3 0 8 15 41 34 72 19 30 31 58 28
61 -3 3 0 6 8 6 10 0 10 3 0 15 -7 9 -10 18 -6 22 3 3 6 1 6 -5 0 -7 5 -12 11
-12 5 0 8 4 4 9 -6 11 15 61 27 61 4 0 8 9 8 20 0 11 5 20 10 20 6 0 10 7 10
15 0 8 4 15 10 15 5 0 6 7 3 17 -4 11 -3 14 5 9 7 -4 12 -2 12 3 0 6 -6 11
-12 11 -10 0 -9 3 1 9 7 5 10 14 7 20 -4 6 -2 11 3 11 6 0 11 9 11 21 0 13 4
18 11 13 9 -5 10 1 5 20 -5 20 -3 26 11 26 13 0 14 3 5 12 -7 7 -8 17 -3 27 5
9 9 19 10 24 1 4 1 8 2 10 7 27 6 56 -3 51 -7 -5 -8 -2 -4 5 5 7 14 10 22 7
11 -4 13 0 8 18 -3 13 -1 27 5 30 6 4 11 20 11 36 0 15 5 30 11 32 7 2 7 12 0
31 -6 16 -7 26 -2 22 11 -6 26 98 17 114 -4 5 1 14 10 19 14 8 14 13 4 32 -10
19 -10 22 1 18 11 -4 14 5 13 36 0 23 -4 48 -8 54 -4 7 -2 12 5 12 8 0 7 5 -2
17 -12 14 -12 16 1 11 11 -4 16 3 17 28 2 18 -2 36 -8 40 -7 4 -8 9 -1 13 6 4
7 22 3 48 -5 27 -4 46 3 54 8 9 6 10 -9 5 -18 -5 -18 -5 -3 7 16 13 19 39 5
53 -10 10 -9 26 1 20 4 -2 9 4 9 15 1 11 -3 17 -9 13 -6 -4 -5 3 2 16 7 12 8
20 2 16 -5 -3 -9 5 -9 19 0 14 3 22 8 19 5 -3 9 -1 9 5 0 5 -6 12 -12 14 -10
4 -9 6 1 6 11 1 11 4 1 16 -11 14 -19 50 -22 110 0 11 -7 44 -14 74 -8 29 -11
57 -8 62 2 4 0 16 -5 26 -5 10 -13 36 -18 58 -6 26 -14 39 -23 37 -11 -3 -11
0 -1 12 12 14 -222 16 -2398 16 -2406 0 -2411 0 -2411 -20z"/>
<path d="M12320 20340 c0 -5 5 -10 11 -10 5 0 7 5 4 10 -3 6 -8 10 -11 10 -2
0 -4 -4 -4 -10z"/>
<path d="M11323 1843 c-68 -2 -123 -7 -123 -12 0 -7 -124 -21 -212 -25 -16 -1
-28 -3 -28 -6 0 -3 -8 -6 -17 -7 -10 -1 -44 -8 -76 -17 -32 -9 -62 -14 -67
-11 -6 4 -25 -2 -43 -13 -30 -18 -101 -38 -121 -33 -4 1 -23 -7 -41 -18 -24
-14 -35 -16 -38 -8 -3 8 -12 3 -25 -12 -14 -15 -28 -22 -41 -18 -12 3 -19 0
-18 -6 1 -6 -12 -11 -30 -11 -18 0 -33 -3 -33 -7 0 -9 -60 -45 -91 -54 -13 -4
-32 -14 -41 -22 -10 -9 -25 -13 -34 -9 -12 4 -15 2 -10 -9 3 -10 -1 -15 -13
-15 -11 0 -21 6 -24 13 -3 7 -9 1 -15 -14 -11 -28 -88 -81 -135 -93 -15 -3
-25 -10 -22 -15 6 -10 -23 -25 -42 -22 -7 1 -10 -4 -7 -12 3 -8 -10 -20 -36
-33 -22 -10 -40 -24 -40 -29 0 -6 -15 -19 -32 -30 -18 -10 -49 -34 -68 -52
-35 -32 -58 -44 -44 -21 4 7 3 8 -5 4 -6 -4 -9 -11 -6 -16 3 -4 -2 -11 -11
-14 -8 -3 -12 -11 -9 -17 4 -6 14 -8 22 -5 8 4 11 1 8 -5 -4 -6 -13 -8 -20 -5
-7 2 -21 -4 -30 -14 -9 -10 -24 -16 -34 -13 -21 5 -37 -12 -21 -22 7 -5 5 -12
-7 -21 -22 -17 -37 -18 -27 -2 4 7 3 8 -4 4 -6 -4 -8 -14 -5 -23 4 -11 3 -14
-5 -9 -8 5 -12 0 -12 -13 0 -12 -7 -21 -15 -21 -8 0 -15 -6 -15 -13 0 -7 -11
-23 -24 -34 -13 -11 -29 -34 -37 -52 -8 -17 -20 -31 -26 -31 -7 0 -13 -4 -13
-10 0 -5 -7 -10 -16 -10 -10 0 -14 -6 -11 -14 4 -9 -9 -31 -28 -53 -25 -28
-31 -41 -23 -51 8 -9 7 -11 -4 -7 -21 8 -48 -21 -48 -53 0 -16 -3 -22 -8 -15
-5 8 -24 -20 -52 -75 -24 -48 -48 -90 -53 -93 -5 -4 -7 -11 -3 -17 3 -6 2 -12
-2 -14 -14 -5 -78 -130 -102 -198 -13 -36 -26 -69 -30 -75 -7 -10 -40 -109
-40 -120 0 -3 6 -3 13 1 6 4 3 -2 -7 -14 -11 -12 -15 -22 -10 -22 5 0 0 -7
-10 -15 -11 -8 -14 -15 -7 -15 7 0 10 -4 7 -9 -3 -5 18 -11 47 -14 28 -3 1108
-5 2399 -4 1995 2 2349 4 2360 16 10 10 10 12 0 7 -13 -8 -31 28 -34 70 -1 13
-6 24 -10 24 -4 0 -8 13 -8 28 0 16 -7 37 -16 48 -8 10 -13 13 -9 7 8 -17 0
-16 -14 1 -9 11 -9 16 0 22 8 5 9 3 4 -6 -5 -8 -4 -11 3 -7 9 6 9 15 3 46 -1
2 -7 -2 -15 -8 -10 -9 -17 -7 -27 6 -13 16 -12 17 3 4 16 -12 18 -11 14 15 -5
36 -16 64 -25 64 -4 0 -8 6 -8 14 0 26 -34 106 -45 106 -6 0 -8 3 -5 7 4 3 3
11 -2 17 -23 29 -48 83 -46 103 1 18 -1 20 -12 11 -11 -8 -12 -7 -7 6 4 11 1
16 -12 17 -11 0 -14 3 -6 6 6 2 12 9 12 14 0 6 -4 8 -10 4 -13 -8 -43 42 -36
61 6 15 4 15 -19 0 -14 -9 -25 -12 -25 -6 0 5 5 10 11 10 5 0 7 5 4 10 -4 6
-12 7 -18 3 -7 -4 -4 5 6 21 l18 27 -28 -18 c-27 -17 -28 -17 -13 1 13 16 12
20 -8 36 -13 11 -18 21 -12 25 6 3 8 11 4 16 -3 5 -9 7 -13 4 -5 -2 -21 13
-36 35 -15 22 -32 40 -37 40 -6 0 -8 7 -4 15 3 8 2 14 -2 14 -19 -3 -33 2 -28
9 3 5 -8 22 -25 38 -16 15 -28 33 -25 40 2 6 0 17 -6 25 -8 11 -9 10 -4 -3 7
-25 0 -22 -30 7 -14 14 -29 23 -35 20 -5 -3 -6 0 -3 8 8 21 -14 31 -34 15 -15
-12 -16 -11 -4 4 12 15 12 20 0 32 -7 9 -19 22 -26 31 -7 8 -18 12 -24 9 -8
-5 -9 -1 -5 10 5 12 2 16 -10 14 -9 -2 -22 7 -28 19 -9 17 -15 19 -23 11 -8
-8 -9 -5 -5 13 3 13 2 21 -2 17 -4 -4 -22 4 -40 17 -17 14 -35 22 -40 17 -5
-4 -4 -1 0 7 6 11 4 13 -8 8 -9 -3 -16 -3 -16 1 3 18 -2 35 -7 29 -4 -3 -15 5
-26 18 -11 14 -26 25 -34 25 -9 0 -12 5 -8 12 5 7 3 8 -5 3 -13 -7 -51 26 -51
44 0 6 -6 8 -14 5 -8 -3 -23 4 -34 16 -11 12 -25 19 -31 15 -6 -3 -14 0 -17 9
-3 9 -12 12 -21 9 -11 -4 -14 -2 -9 5 7 11 -10 16 -50 15 -7 0 -9 8 -6 20 4
14 2 18 -8 12 -7 -4 -15 -3 -19 2 -8 11 -90 50 -116 55 -11 1 -27 11 -36 21
-9 9 -25 17 -35 17 -16 0 -17 -2 -4 -10 8 -5 10 -10 5 -10 -6 0 -18 9 -28 20
-19 23 -43 26 -50 8 -2 -7 -7 -10 -11 -7 -4 4 1 14 11 24 16 17 16 17 -4 11
-12 -4 -24 -2 -28 4 -4 6 -14 9 -22 6 -8 -3 -11 -1 -8 4 6 10 -12 14 -50 11
-17 -2 -17 0 -5 8 12 8 6 11 -22 11 -21 0 -38 4 -38 8 0 13 -44 12 -52 -1 -5
-8 -8 -7 -8 4 0 17 -44 33 -122 44 -27 4 -48 12 -48 17 0 6 -6 8 -13 5 -7 -3
-33 -1 -58 4 -24 6 -75 12 -114 15 -38 2 -71 9 -73 14 -2 5 -52 6 -114 3 -83
-5 -109 -3 -104 5 4 7 6 11 4 10 -2 -1 -58 -4 -125 -5z m-1648 -723 c3 -6 -1
-7 -9 -4 -18 7 -21 14 -7 14 6 0 13 -4 16 -10z m3912 -546 c-3 -3 -12 -4 -19
-1 -8 3 -5 6 6 6 11 1 17 -2 13 -5z"/>
<path d="M10129 1503 c-13 -17 -13 -17 6 -3 11 8 22 16 24 17 2 2 0 3 -6 3 -6
0 -17 -8 -24 -17z"/>
<path d="M10050 1486 c0 -2 8 -10 18 -17 15 -13 16 -12 3 4 -13 16 -21 21 -21
13z"/>
<path d="M16550 1339 c-545 -40 -1084 -367 -1414 -859 -89 -133 -226 -418
-226 -471 0 -5 681 -9 1796 -9 l1795 0 -6 23 c-27 91 -226 412 -351 567 -415
514 -1007 793 -1594 749z"/>
<path d="M9814 1288 l-19 -23 23 19 c21 18 27 26 19 26 -2 0 -12 -10 -23 -22z"/>
<path d="M13500 740 c-9 -6 -10 -10 -3 -10 6 0 15 5 18 10 8 12 4 12 -15 0z"/>
<path d="M6430 708 c-432 -31 -843 -219 -1083 -496 -67 -77 -153 -199 -145
-207 2 -3 584 -4 1292 -3 l1288 3 -75 100 c-83 111 -258 286 -358 357 -268
191 -564 271 -919 246z"/>
<path d="M1143 554 c-353 -38 -702 -128 -1013 -261 l-115 -50 -3 -121 -3 -122
1588 0 c873 0 1583 4 1577 8 -22 20 -185 131 -254 173 -335 204 -722 337
-1102 378 -132 15 -525 12 -675 -5z"/>
<path d="M23240 179 c-69 -44 -240 -168 -240 -175 0 -2 72 -4 160 -4 l160 0 0
110 c0 61 -3 110 -7 110 -5 0 -37 -19 -73 -41z"/>
</g>
</svg>
