<svg width="110" height="110" viewBox="0 0 110 110" fill="none" xmlns="http://www.w3.org/2000/svg">
<path d="M0 65H110V89.6875H105.57V92.5H101.51V95.3125H97.0805V98.4375H93.0201V101.25H88.5906V104.062H84.5302V107.188H71.9799V110H38.0201V106.875H25.4698V104.062H21.0403V101.25H16.9799V98.4375H12.5503V95.3125H8.48993V92.5H4.0604V89.6875H0V65Z" fill="#C28A51"/>
<path d="M96.7104 84.375H82.3145V87.5H96.7104V84.375Z" fill="#9D6B3A"/>
<path d="M67.1814 91.8749H59.7988V94.9999H67.1814V91.8749Z" fill="#9D6B3A"/>
<path d="M46.8783 98.7499H30.6367V101.875H46.8783V98.7499Z" fill="#9D6B3A"/>
<path d="M24.7297 81.8749H2.58203V84.9999H24.7297V81.8749Z" fill="#9D6B3A"/>
<path d="M69.6573 8.32428V16.5574H66.6853V25.3738H69.6573V28.2441H75.6014V30.8534H78.8706V33.4627H81.8427V36.072H84.8147V38.6813H87.7867V41.5515H90.7587V44.1608H94.028V52.2497H97V73.3851H94.028V81.213H90.4615V84.0832H87.4895V86.6925H84.5175V89.3018H81.5455V91.9111H78.5734V94.7814H75.6014V97.3907H66.3881V100H42.3147V97.3907H33.3986V94.7814H30.1294V91.9111H27.1573V89.3018H24.1853V86.6925H21.2133V84.0832H18.2413V81.4739H14.972V73.3851H12V52.2497H14.972V44.1608H17.9441V41.5515H20.9161V38.6813H23.8881V36.072H27.1573V33.4627H30.1294V30.8534H33.1014V28.2441H39.0455V25.6348H42.3147V16.5574H39.3921V8.32428H69.6573Z" fill="#C6BDBD"/>
<path d="M17.5117 56.8082H34.183L41.4768 49.4899L47.7285 44.9159H55.0222V39.4272H68.5677V45.8307H81.0712V51.3195H89.4068V53.1491H92.5327V67.7857H82.1131V61.3822H17.5117V56.8082Z" fill="#170618"/>
<path d="M34.184 54.9787V61.3822H55.0232V54.0639H70.6526V61.3822H84.198V66.871H92.5337V71.445H89.4078V78.7633H86.2819V81.5077H84.198V83.3373H81.0721V86.0816H78.9882V87.9112H76.9043V90.6556H73.7784V92.4852H65.4428V95.2295H44.6026V92.4852H36.267V90.6556H33.1411V87.9112H31.0572V86.0816H27.9313V83.3373H25.8474V80.5929H23.7635V78.7633H20.6376V71.445H17.5117L17.5127 61.3822H26.8903V54.9787H34.184Z" fill="#311543"/>
<path d="M41.4768 55.8935V66.871H28.9628V72.3598H22.7215V70.5302H17.5117V61.3822H25.8474V58.6379H28.9733V55.8935H41.4768Z" fill="#200B2E"/>
<path d="M66.4848 0.0911704L42.5196 0.0911694L42.5188 8.32434L45.6457 8.32429L45.6454 26.6201L63.3584 26.6201L63.489 8.32429L66.4848 8.32429L66.4848 0.0911704Z" fill="#9D6B3A"/>
<path d="M45.6446 17.4722H63.3579V29.3645H68.4001V31.8914H73.6463V34.1946H76.5317V36.4978H79.1548V38.801H81.7779V41.1042H84.4011V43.6378H87.0242V45.941H89.9096V53.0809H92.5327V71.7369H89.9096V78.6465H86.7619V81.18H84.1387V83.4832H81.5156V85.7864H78.8925V88.0896H76.2694V90.6232H73.6463V92.9264H65.5147V95.2296H44.2675V92.9264H36.3981V90.6232H33.5127V88.0896H30.8896V85.7864H28.2665V83.4832H25.6434V81.18H23.0203V78.8768H20.1348V71.7369H17.5117V53.0809H20.1348V45.941H22.7579V43.6378H25.3811V41.1042H28.0042V38.801H30.8896V36.4978H33.5127V34.1946H36.1358V31.8914H41.382V29.3645H45.6446V17.4722Z" fill="#2E222F" fill-opacity="0.63"/>
<path d="M47.7285 43.0864H41.4768V48.364V49.4899H35.225V61.3822H41.4768V49.4899H47.7285V43.0864Z" fill="#C6BDBD"/>
<path d="M60.2312 0.0912476H66.483V8.32438H60.2312H52.9375V4.66521H60.2312V0.0912476Z" fill="#573D33"/>
<path d="M44.6016 8.32428H64.3988V17.4722H44.6016V8.32428Z" fill="#C6BDBD"/>
<rect x="45.6445" y="17.4722" width="7.29371" height="9.14792" fill="#B08963" fill-opacity="0.73"/>
</svg>
